<svg xmlns="http://www.w3.org/2000/svg" viewBox="0 0 643.24 375.52"><defs><style>.cls-1{fill:#e0c979;}.cls-2{fill:#b3a162;}.cls-3{fill:#cc4944;}.cls-4{fill:#a33a36;}.cls-5{fill:#943531;}.cls-6{fill:#d6794d;}.cls-7{fill:#2e2222;}.cls-8{fill:#e6885d;}.cls-9{fill:#bd653c;}.cls-10{fill:#3b5175;}.cls-11{fill:#4d6a99;}.cls-12{fill:#c7b67f;}.cls-13{fill:#f0e2b4;}.cls-14,.cls-16{fill:#fff;}.cls-15{fill:#7c9fd6;}.cls-16{opacity:0.2;}.cls-17{fill:#b56139;}.cls-18{fill:#e0d5aa;}.cls-19{fill:#ebe4ca;}.cls-20{fill:#325288;}.cls-21{fill:#28426e;}.cls-22{fill:#945436;}.cls-23{fill:#24a19c;}.cls-24{fill:#6580ad;}.cls-25{fill:#bd732d;}.cls-26{fill:#f5b43b;}</style></defs><g id="Layer_2" data-name="Layer 2"><g id="OBJECTS"><path class="cls-1" d="M264.55,268.9v-156A66.13,66.13,0,0,1,330.6,46.8H577.18a66.13,66.13,0,0,1,66.06,66.06v156A66.13,66.13,0,0,1,577.18,335H330.6A66.12,66.12,0,0,1,264.55,268.9ZM330.6,77.29A35.61,35.61,0,0,0,295,112.86v156a35.61,35.61,0,0,0,35.57,35.57H577.18a35.61,35.61,0,0,0,35.57-35.57v-156a35.6,35.6,0,0,0-35.57-35.57Z"/><path class="cls-1" d="M0,309.46v-156a66.13,66.13,0,0,1,66.06-66H312.64a66.12,66.12,0,0,1,66.05,66v156a66.13,66.13,0,0,1-66.05,66.06H66.06A66.13,66.13,0,0,1,0,309.46ZM66.06,117.85a35.61,35.61,0,0,0-35.57,35.57v156A35.6,35.6,0,0,0,66.06,345H312.64a35.61,35.61,0,0,0,35.57-35.57v-156a35.61,35.61,0,0,0-35.57-35.57Z"/><path class="cls-2" d="M349.17,304.59h28.52a1,1,0,0,0,0-2H349.17a1,1,0,0,0,0,2Z"/><path class="cls-2" d="M271,87.39h34.41a1,1,0,1,0,0-2H271a1,1,0,1,0,0,2Z"/><path class="cls-2" d="M264.55,117.85H295v7.65H264.55Z"/><path class="cls-2" d="M369.79,342.53H325.72a35.62,35.62,0,0,0,11.76-7.65H373.6A66.46,66.46,0,0,1,369.79,342.53Z"/><path class="cls-2" d="M133,345a70.1,70.1,0,0,0,12.19,16.6c-1.87,4.06-19.82,11.6-27.27,10.67A269.15,269.15,0,0,1,101.74,345Z"/><path class="cls-3" d="M148.73,148c14.7,4,34.44.83,61.82,57.4C205.81,279.29,190.83,320,190.83,345h-107c4.07-23.71,0-84.71,0-103.68-17.61-2.71-21.83-6.1-25.64-9.91a29.37,29.37,0,0,1-6.27-1.71c4.78-35.81,14.35-67.8,22.09-79.29,3.78-5.61,15.88-8.85,35.7-10.16C117.2,138.36,132.17,143.57,148.73,148Z"/><path class="cls-4" d="M103.05,237c2.92-15.14,7.64-42.39,7.64-48.17,2.37,13.18-.13,53-.13,64.8C99,258,95.33,250.68,103.05,237Z"/><path class="cls-5" d="M176.4,184.78c.91,5.84,2,11.67,2.85,17.51.52,3.43,1.06,6.86,1.51,10.29.28,2.16.49,4.33.89,6.47a66.15,66.15,0,0,0-.35-16.75A56.77,56.77,0,0,0,176.4,184.78Z"/><path class="cls-5" d="M93.27,148.87A38.07,38.07,0,0,1,105,159.53a33.83,33.83,0,0,1,3.82,7.48,43,43,0,0,1,1.75,7.27,20.19,20.19,0,0,0-.29-7.67,27.51,27.51,0,0,0-3.62-8.25C103.34,153.94,98.75,150.18,93.27,148.87Z"/><path class="cls-6" d="M310.57,264.57c3.65-3.65,3.14-10.69,0-10.69s-15.55,9.2-25.41,19.06c-3.94,3.94-33.7-8.22-53.35-21.43-3.72,19.31-2.37,23.71-4.06,31.17,11.18,7.45,59.66,22.27,64.48,19.14C300.83,288.43,306.59,276.77,310.57,264.57Z"/><path class="cls-7" d="M118.65,119.24C114,107.45,107.05,98.6,101.5,89s-8.45-34.77,14.6-47.1c19.07-10.2,38.46-16.75,56.26-12.33,17.12,4.24,33.81,16.26,35,25.84,1.57,12.85-14.43,16-24.82,10.48C163,85.57,142,120.72,118.65,119.24Z"/><path class="cls-8" d="M187.19,87.36c-.09-2.23-.8-23.57-3-29.78-6.76,1.53-28.09,1.32-29.13,8.66s-9.53,5.8-11.64,14.5S140,91.85,135.93,94.62c-.7-15.07-12-16.4-17.08-11.19-6.84,7,.36,18.79,4.9,21.66-9.15,19.33-3.75,27.1-14.09,35.19,8.18,15.93,29,39.15,39.78,28.32,3-10.89,0-19.48,3-29.33,10.23.39,21.79,3.19,27.4-4.52,4.06-5.58,6.12-13.75,7-23.89,3.88.4,8.39.59,8.4-2.78C195.31,103.09,187.28,89.59,187.19,87.36Z"/><path class="cls-7" d="M181.53,89.84c.13,1.79-.74,3.31-1.93,3.39s-2.25-1.31-2.37-3.1.75-3.3,1.94-3.38S181.42,88.05,181.53,89.84Z"/><path class="cls-9" d="M183,84.68a30,30,0,0,0-3.67,0,16,16,0,0,0-3.49.88C177.32,83.34,180.9,83.06,183,84.68Z"/><path class="cls-7" d="M184.34,79.51c1.82-1.28.37-5.5-5.62-5.41-4.39.06-9.4,3.31-8.94,5.36s4.85-.28,8.65-.09C180.74,79.48,183.1,80.38,184.34,79.51Z"/><path class="cls-9" d="M123.75,105.09a12.62,12.62,0,0,0,3.18.26c1.1,0,2.12-.4,3.2-.51C128.59,106.46,125.28,107.14,123.75,105.09Z"/><path class="cls-9" d="M130.91,95.59c-1-4.51-3.25-10.6-6.87-7.92s-.78,10,4,12.46C127.34,97.07,127.67,95.47,130.91,95.59Z"/><path class="cls-9" d="M133.29,118.79c-.6,8,7.72,19.31,18,26a45,45,0,0,1,1.16-5.47C147.53,138.44,136.65,133.6,133.29,118.79Z"/><path class="cls-9" d="M183.72,120.46a6.23,6.23,0,0,1-8.67-5.78c1,1.43,1.8,2.92,3.33,3.86a10.28,10.28,0,0,0,2.78,1.27A18.64,18.64,0,0,1,183.72,120.46Z"/><path class="cls-10" d="M110.77,245.54c-5.56,0-24.36-.3-22.08,27.65s8.81,34.58,31.34,29.1C123.25,279.29,119.89,258.28,110.77,245.54Z"/><path class="cls-11" d="M206.79,180.84c-19.78,19.77-67.34,50.26-96,64.7-2.94,14.1-3.63,43.87,9.26,56.75,20.32,1.73,80.77,2.94,114.86,9.63C232.06,296.93,206.79,198.23,206.79,180.84Z"/><path class="cls-10" d="M127.11,311.92c2.74,19.7,10.88,35.12,21.38,45.62-1.87,4.06-19.82,11.6-27.27,10.67C111.05,353,97,329.93,93.12,307.66A201,201,0,0,0,127.11,311.92Z"/><path class="cls-11" d="M202.8,249.93c7.62,36.64,23.24,64.39,34.89,62s14.93-34.09,7.31-70.74-23.24-64.38-34.9-62S195.18,213.28,202.8,249.93Z"/><path class="cls-10" d="M198.88,206.17c1.52-5.41,3.93-8.86,7.13-9.52,9.26-1.93,21.68,20.13,27.73,49.25s3.46,54.3-5.81,56.23c-2,.42-4.18-.3-6.4-2-7.37-11.15-14.37-29.22-18.73-50.22C199.41,233.65,198.18,218.36,198.88,206.17Z"/><path class="cls-12" d="M199.14,224.42c5.61,1.34,13.77,1.48,20.68,1.48,0,6.57,5.3,26.46,8.32,40-8.71,2.73-12.72,6.1-16.88,13.37a195.06,195.06,0,0,1-8.46-29.39A199,199,0,0,1,199.14,224.42Z"/><path class="cls-13" d="M217.61,247.25c2.3,11.06,7,19.44,10.53,18.7s4.51-10.29,2.21-21.35-7-19.43-10.53-18.7S215.31,236.19,217.61,247.25Z"/><path class="cls-14" d="M219.82,225.9c-1.45.42-2.43,2-3,3.29a16.37,16.37,0,0,0-1.32,5.64,50.54,50.54,0,0,0,1.13,12.56c1,3.91,1.9,8,3.85,11.59a15.73,15.73,0,0,0,3.4,4.78,7.79,7.79,0,0,0,2.21,1.44c.12,0,2.11.71,2.08.75.08-.13-1.53-1-1.64-1a7,7,0,0,1-1.86-1.58,17.54,17.54,0,0,1-2.81-5c-1.59-3.6-2.35-7.6-3.25-11.41-.73-3.82-1.73-7.79-1.62-11.71a19.3,19.3,0,0,1,.59-5.72C217.92,228.24,218.57,226.58,219.82,225.9Z"/><path class="cls-15" d="M214.28,308.8c-4.4-.52-8.95-1-13.6-1.42-25.25-46.85-25.85-83.21-23.26-102.71,4.75-3.4,9.28-6.77,13.45-10C188.21,203.64,178.51,247.06,214.28,308.8Z"/><path class="cls-16" d="M110.56,260.39a3.07,3.07,0,0,0,1.57-.43l71-42.66a3,3,0,1,0-3.15-5.22l-71,42.65a3,3,0,0,0,1.57,5.66Z"/><path class="cls-15" d="M201.8,250.13c-7.85-37.76-4.29-69.36,8.1-71.94a8.25,8.25,0,0,1,1.65-.17c12.18,0,27,27,34.45,62.93,3.7,17.82,5,35.05,3.58,48.51-1.42,13.84-5.57,22.16-11.68,23.43a8.25,8.25,0,0,1-1.65.17C224.07,313.06,209.26,286,201.8,250.13Zm8.51-69.95c-10.9,2.27-13.88,34.11-6.52,69.54,7,33.8,21.59,61.3,32.46,61.3a6.43,6.43,0,0,0,1.24-.12c5.09-1.06,8.76-8.95,10.07-21.65,1.37-13.26.11-30.27-3.56-47.89-7-33.8-21.58-61.3-32.45-61.3A6.36,6.36,0,0,0,210.31,180.18Z"/><path class="cls-8" d="M58.14,231.44c-1.33,36.35-3.82,62.15,4.57,70.53s102.58,29.66,111.35,33.72c6.88,3.19,14.45,3.1,23.12,3,5.16-.08,14.41-1.44,18.21-5.67,5.78-1.08,10.24-3.56,10.24-5.93,2.12-.42,9.05-3.93,9.05-7.32,5.08-2.37,7.19-6,5.43-7.75-.69-.69-39.8,6.6-44.08,3,3.73-6.43,13.78-13,8.64-15.62-4-2-11.94,7.56-14.73,8-10,1.47-10.89,6.25-16.14,5.49-21-3-61.29-33.93-76.2-38,2.61-18.38,3.75-25.41,5.45-37.84C87.14,235.64,68.53,232.85,58.14,231.44Z"/><path class="cls-17" d="M207.93,322.44c9.32,0,26.38-2.35,26.55-2.37a.3.3,0,0,0,.26-.34.3.3,0,0,0-.34-.26c-.18,0-17.19,2.37-26.47,2.37a.3.3,0,1,0,0,.6Z"/><path class="cls-17" d="M206.75,328.69c3,0,17.89-1.25,18.52-1.3a.31.31,0,0,0,.28-.33.29.29,0,0,0-.33-.28c-.15,0-15.47,1.3-18.47,1.3a.31.31,0,1,0,0,.61Z"/><path class="cls-17" d="M206,333.88a84.53,84.53,0,0,0,9.17-.6.3.3,0,0,0,.26-.34.29.29,0,0,0-.34-.26,87.24,87.24,0,0,1-9.09.59.3.3,0,0,0-.31.3A.31.31,0,0,0,206,333.88Z"/><path class="cls-17" d="M82.09,277.26a.51.51,0,0,0,.36-.15c3.83-3.83,14.94-1.83,15.06-1.81a.52.52,0,0,0,.59-.41.5.5,0,0,0-.41-.59c-.48-.09-11.76-2.12-16,2.09a.51.51,0,0,0,.36.87Z"/><path class="cls-4" d="M483.51,132.12c-31,1.69-80.53,24.46-98.91,37.54,13,30.07,43,95.46,55.38,121.32,14.25-4.44,48.91-26.59,64.84-35.63C497,230.4,495.9,150.79,483.51,132.12Z"/><path class="cls-18" d="M483.51,132.12c-33.53,4.42-75.25,24.46-93.64,37.54,13,30.07,43.06,95.46,55.38,121.32,14.25-4.44,48.91-26.59,64.85-35.63C502.26,230.4,495.9,150.79,483.51,132.12Z"/><path class="cls-19" d="M483.51,132.12C454,137.89,413,156.58,394.59,169.66c13,30.07,43.05,95.46,55.38,121.32,14.25-4.44,48.91-26.59,64.84-35.63C507,230.4,495.9,150.79,483.51,132.12Z"/><path class="cls-3" d="M483.51,132.12c-25.45,5.41-63.18,24.46-81.56,37.54C415,199.73,445,265.12,457.33,291c14.25-4.44,48.91-26.59,64.84-35.63C514.33,230.4,495.9,150.79,483.51,132.12Z"/><path class="cls-19" d="M431.34,183.76a1,1,0,0,0,.49-.13c13.69-7.67,40.71-19.48,41-19.6a1,1,0,0,0,.53-1.34,1,1,0,0,0-1.34-.52c-.27.12-27.39,12-41.16,19.69a1,1,0,0,0-.39,1.38A1,1,0,0,0,431.34,183.76Z"/><path class="cls-19" d="M435.77,191.89a1,1,0,0,0,.5-.13c13.68-7.68,40.7-19.48,41-19.6a1,1,0,1,0-.82-1.86c-.27.12-27.39,12-41.16,19.69a1,1,0,0,0-.39,1.38A1,1,0,0,0,435.77,191.89Z"/><path class="cls-19" d="M439.61,200.73a1,1,0,0,0,.49-.13c13.69-7.67,40.71-19.48,41-19.6a1,1,0,0,0,.53-1.33,1,1,0,0,0-1.34-.53c-.27.12-27.39,12-41.16,19.69a1,1,0,0,0-.39,1.39A1,1,0,0,0,439.61,200.73Z"/><path class="cls-7" d="M527.41,90.05c4.67-12.82,11.78-22.56,17.43-33s7.94-37.64-17.23-50.13C506.79-3.42,473.7,3.49,457.68.38S438.62,14.17,456.36,27C478,47.49,502.38,92.41,527.41,90.05Z"/><path class="cls-8" d="M452.73,58.06c0-2.4.08-25.35,2.25-32.09,7.31,1.42,30.22.49,31.58,8.35s10.42,5.91,13,15.18,4,11.83,8.5,14.67c.26-16.21,12.35-18,18-12.58,7.58,7.31.23,20.2-4.55,23.42,10.47,20.47,17.39,34.31,28.77,42.67C535.78,132.58,510.5,136,498.65,144c2.23-11.49,3.37-21-3.65-31.42-11,.75-26.57,4.24-32.85-3.86-4.55-5.87-7-14.57-8.32-25.43-4.15.55-9,.91-9.12-2.72C444.53,75.23,452.71,60.46,452.73,58.06Z"/><path class="cls-7" d="M458.23,61.93c-.06,1.91.91,3.5,2.18,3.55s2.35-1.47,2.42-3.38-.9-3.5-2.17-3.54S458.3,60,458.23,61.93Z"/><path class="cls-9" d="M457.19,57a30.53,30.53,0,0,1,3.94-.14,17.23,17.23,0,0,1,3.78.83C463.21,55.32,459.35,55.14,457.19,57Z"/><path class="cls-7" d="M455.54,51.69c-2-1.31-.58-5.89,5.86-6,4.72-.07,10.21,3.26,9.78,5.48s-5.22-.15-9.3.17C459.4,51.54,456.9,52.59,455.54,51.69Z"/><path class="cls-9" d="M521.47,75a13.08,13.08,0,0,1-3.41.39c-1.17,0-2.29-.36-3.45-.44C516.32,76.65,519.89,77.27,521.47,75Z"/><path class="cls-9" d="M513.47,65c.95-4.87,3.14-11.49,7.12-8.73S521.76,67,516.7,69.83C517.35,66.52,517,64.82,513.47,65Z"/><path class="cls-9" d="M511.67,90.05c.92,8.55-3,20.16-13.85,27.63a32,32,0,0,0-2.82-5.09C500.29,111.53,508.56,106.07,511.67,90.05Z"/><path class="cls-9" d="M457.55,93.51a6.71,6.71,0,0,0,9.13-6.5c-1,1.57-1.85,3.2-3.45,4.26a11.59,11.59,0,0,1-3,1.46A17.6,17.6,0,0,0,457.55,93.51Z"/><path class="cls-20" d="M545.48,112.76c-16.11-9.68-43.26.95-63.59,31.25s-46.7,73-58.89,85.23c12.42,12.42,18.31,26.29,18.31,35.09,14.14-9.22,19.92-15,31.1-22.95,0,27.1.4,39.86-3.87,62.9H568a526.9,526.9,0,0,1,6.71-84.55C580.13,185.83,570.46,127.76,545.48,112.76Z"/><path class="cls-21" d="M521.54,124.86a36.57,36.57,0,0,1,20.33,15.71c4.31,7.16,4.31,15.82,3.71,23.86,2.13-8.18,2.49-17.23-1.92-24.8a30.52,30.52,0,0,0-22.12-14.77Z"/><path class="cls-21" d="M528,189.9c-17,23.78-38.77,51.22-55.55,69.26V241.38C488,229.87,510.18,207.68,528,189.9Z"/><path class="cls-8" d="M423,229.24c-13.43,3.56-54.84,38.87-79.23,41.41s-25.41-9.65-34.55-5.59-30,20.12-24.06,28.89c-.46,5.84,1.64,6.36,3.48,6.93.19,3.16,3.71,3.4,6,3.4-.54,3.72,5.93,8.1,6.69,3.21,5-5,20.83-10.42,34.3-11.69s90.15-21.29,105.67-31.47C448.59,250.28,431.13,232.29,423,229.24Z"/><path class="cls-17" d="M285.16,294.25a.3.3,0,0,0,.29-.22,30.24,30.24,0,0,1,14-16.5.31.31,0,0,0,.13-.42.31.31,0,0,0-.41-.12,30.84,30.84,0,0,0-14.3,16.87.3.3,0,0,0,.2.38Z"/><path class="cls-17" d="M288.64,301.19a.29.29,0,0,0,.29-.23c0-.11,3-11.29,13.18-16.16a.3.3,0,1,0-.27-.54c-10.42,5-13.47,16.43-13.5,16.55a.31.31,0,0,0,.22.37Z"/><path class="cls-17" d="M294.65,304.58h0a.32.32,0,0,0,.29-.32c0-.06-.12-6.24,11-12.21a.3.3,0,0,0,.13-.41.31.31,0,0,0-.42-.12c-11.47,6.16-11.3,12.5-11.29,12.77A.31.31,0,0,0,294.65,304.58Z"/><path class="cls-6" d="M301.34,307.49c1.78-4.45,6.44-14.74,11-11.69,1.14-2.67,5.38-8.64,7-1.78,1.52-3.55,6.22-3.81,6.22.51,1.66-1.65,5.21-.65,4.2,4s-3.56,7.44-6.86,7.44c-2.33,2.75-5.47,2.58-6.75,1.69-2.36,1.32-5.7,1.31-7.4.17C305.24,309.47,303,309.14,301.34,307.49Z"/><path class="cls-6" d="M310.57,253.88c5.76,0,9,7.82,11,16.43,1.53,6.57-8.38,2.14-11-5.74C310.57,259.22,308.2,256.25,310.57,253.88Z"/><path class="cls-22" d="M308.79,308.14a.31.31,0,0,0,.28-.18c1.9-4,3.51-11.77,3.58-12.1a.31.31,0,1,0-.6-.12c0,.08-1.66,8-3.53,12a.31.31,0,0,0,.14.41Z"/><path class="cls-22" d="M316.19,308a.29.29,0,0,0,.28-.19c1.63-4.13,3.15-13.31,3.21-13.7a.3.3,0,0,0-.6-.1c0,.1-1.57,9.5-3.17,13.58a.29.29,0,0,0,.17.39A.22.22,0,0,0,316.19,308Z"/><path class="cls-22" d="M322.94,306.27a.3.3,0,0,0,.28-.2c1.52-4,2.67-11.42,2.69-11.49a.31.31,0,0,0-.26-.35.32.32,0,0,0-.35.25c0,.08-1.15,7.47-2.65,11.38a.3.3,0,0,0,.18.39Z"/><path class="cls-17" d="M320.25,273.87a2.57,2.57,0,0,0,.65-.08,1.36,1.36,0,0,0,.87-.74c.86-1.68-.6-5.68-.67-5.85a.3.3,0,0,0-.39-.18.3.3,0,0,0-.18.39c.4,1.08,1.31,4.16.7,5.36a.79.79,0,0,1-.49.43c-1.72.49-6.84-1.83-11.67-12.08a.3.3,0,1,0-.55.26C312.91,270.71,317.74,273.87,320.25,273.87Z"/><path class="cls-23" d="M411.11,57.51H370.75a14.36,14.36,0,0,0-14.36,14.35v14a14.35,14.35,0,0,0,12,14.15c3.7,3.86,8.7,8.9,10.31,9.64,1.79.83,1.88-5,1.7-9.44h30.67a14.35,14.35,0,0,0,14.36-14.35v-14A14.36,14.36,0,0,0,411.11,57.51Z"/><path class="cls-14" d="M380.5,72H365.07a1.2,1.2,0,0,1,0-2.4H380.5a1.2,1.2,0,0,1,0,2.4Z"/><path class="cls-14" d="M416.71,72H388.89a1.2,1.2,0,1,1,0-2.4h27.82a1.2,1.2,0,0,1,0,2.4Z"/><path class="cls-14" d="M396.06,80.08h-31a1.2,1.2,0,0,1,0-2.39h31a1.2,1.2,0,1,1,0,2.39Z"/><path class="cls-14" d="M416.71,80.08H402.84a1.2,1.2,0,0,1,0-2.39h13.87a1.2,1.2,0,0,1,0,2.39Z"/><path class="cls-14" d="M405.93,88.21H365.07a1.2,1.2,0,0,1,0-2.39h40.86a1.2,1.2,0,1,1,0,2.39Z"/><path class="cls-23" d="M262,107.57H221.64a14.35,14.35,0,0,0-14.35,14.36v14a14.35,14.35,0,0,0,14.35,14.36h30.68c-.18,4.43-.09,10.26,1.7,9.43,1.6-.74,6.6-5.78,10.3-9.63a14.36,14.36,0,0,0,12-14.16v-14A14.36,14.36,0,0,0,262,107.57Z"/><path class="cls-14" d="M267.68,122H238.77a1.2,1.2,0,0,1,0-2.39h28.91a1.2,1.2,0,1,1,0,2.39Z"/><path class="cls-14" d="M232.59,122H216.05a1.2,1.2,0,1,1,0-2.39h16.54a1.2,1.2,0,1,1,0,2.39Z"/><path class="cls-14" d="M267.68,130.15H247a1.2,1.2,0,1,1,0-2.39h20.73a1.2,1.2,0,1,1,0,2.39Z"/><path class="cls-14" d="M240.76,130.15H216.05a1.2,1.2,0,1,1,0-2.39h24.71a1.2,1.2,0,1,1,0,2.39Z"/><path class="cls-14" d="M252.25,138.27h-36.2a1.2,1.2,0,1,1,0-2.39h36.2a1.2,1.2,0,1,1,0,2.39Z"/><path class="cls-3" d="M19.86,313.93A14.74,14.74,0,1,0,34.59,299.2,14.72,14.72,0,0,0,19.86,313.93Z"/><path class="cls-14" d="M26.54,311.47c.52-3.58,5.5-4.85,8.05-1.11,2.56-3.74,7.54-2.47,8.06,1.11.69,4.78-4,8.8-8.06,11.25C30.54,320.27,25.85,316.25,26.54,311.47Z"/><path class="cls-20" d="M49.33,345a21.31,21.31,0,1,0,21.31-21.31A21.31,21.31,0,0,0,49.33,345Z"/><path class="cls-14" d="M68.1,337.63h0c1.21-1.61,3.31-4.42,5.43-7.21s5.77-1.27,4.49,2.15c-.38,1-1.31,3.23-2.08,5.08l4.44,0c2.75,0,4.16,1.44,4.16,3a3.07,3.07,0,0,1-.67,1.9,3,3,0,0,1,.67,1.89,3.09,3.09,0,0,1-.67,1.9,3,3,0,0,1,0,3.78,3,3,0,0,1-2,4.91v.07H67.76c-1.52,0-6.18-2.23-6.18-2.23V340.75Z"/><path class="cls-24" d="M56.74,352.14a3,3,0,0,0,3,3h0a3,3,0,0,0,3-3V341a3,3,0,0,0-3-3h0a3,3,0,0,0-3,3Z"/><path class="cls-20" d="M10.32,263.07a17.33,17.33,0,1,0,17.32-17.33A17.31,17.31,0,0,0,10.32,263.07Z"/><path class="cls-14" d="M25.58,257.05h0c1-1.31,2.69-3.6,4.41-5.86s4.7-1,3.65,1.74c-.31.83-1.06,2.63-1.68,4.13h3.61c2.23,0,3.38,1.18,3.38,2.46a2.49,2.49,0,0,1-.55,1.54,2.43,2.43,0,0,1,0,3.08,2.43,2.43,0,0,1,0,3.08,2.45,2.45,0,0,1-1.66,4v.06H25.3c-1.24,0-5-1.82-5-1.82v-9.88Z"/><path class="cls-24" d="M16.34,268.85a2.43,2.43,0,0,0,2.43,2.43h0a2.43,2.43,0,0,0,2.44-2.43v-9.07a2.44,2.44,0,0,0-2.44-2.44h0a2.43,2.43,0,0,0-2.43,2.44Z"/><path class="cls-25" d="M521.46,304.27a12.68,12.68,0,1,1-12.68-12.67A12.68,12.68,0,0,1,521.46,304.27Z"/><path class="cls-26" d="M523.46,304.27a12.68,12.68,0,1,1-12.68-12.67A12.68,12.68,0,0,1,523.46,304.27Z"/><path class="cls-25" d="M510.78,315a10.69,10.69,0,1,1,10.68-10.69A10.69,10.69,0,0,1,510.78,315Zm0-20.75a10.07,10.07,0,1,0,10.07,10.06A10.08,10.08,0,0,0,510.78,294.21Z"/><path class="cls-25" d="M510.73,310.72a7.87,7.87,0,0,1-1.59-.13,6.45,6.45,0,0,1-1.25-.37,3,3,0,0,1-.83-.46.68.68,0,0,1-.31-.46,1,1,0,0,1,.15-.46,3.61,3.61,0,0,1,.33-.5c.12-.14.23-.22.31-.22a.35.35,0,0,1,.16.06l.27.14a7.32,7.32,0,0,0,1.15.49,4.29,4.29,0,0,0,1.66.19,3.15,3.15,0,0,0,1.54-.43,1.49,1.49,0,0,0,.6-1.37,1.7,1.7,0,0,0-.36-1.13,2.81,2.81,0,0,0-.95-.72c-.39-.19-.82-.37-1.27-.54a9,9,0,0,1-1.79-1,4,4,0,0,1-1.15-1.2,2.93,2.93,0,0,1-.41-1.54,3.35,3.35,0,0,1,.48-1.79,3.22,3.22,0,0,1,1.4-1.22,5.31,5.31,0,0,1,2.23-.43,6.4,6.4,0,0,1,1.4.16,4.74,4.74,0,0,1,1.24.41,1.52,1.52,0,0,1,.35.27.4.4,0,0,1,.13.28,1.21,1.21,0,0,1-.12.45,2,2,0,0,1-.29.49c-.12.15-.22.22-.3.22a.48.48,0,0,1-.23-.08,3.64,3.64,0,0,0-.38-.16,7.08,7.08,0,0,0-.8-.25,4.55,4.55,0,0,0-1.19-.13,2.32,2.32,0,0,0-1.47.44,1.48,1.48,0,0,0-.55,1.23,1.31,1.31,0,0,0,.33.92,2.74,2.74,0,0,0,.88.64c.37.18.76.36,1.18.54a9.54,9.54,0,0,1,1.89,1,4.32,4.32,0,0,1,1.22,1.28,3.09,3.09,0,0,1,.42,1.61,3.58,3.58,0,0,1-1,2.71A4.33,4.33,0,0,1,510.73,310.72Zm.18,1.25c-.32,0-.48-.13-.48-.37V297c0-.24.16-.37.48-.37H511c.32,0,.48.13.48.37V311.6c0,.24-.16.37-.48.37Z"/><path class="cls-25" d="M617.64,249.39a20.86,20.86,0,1,1-20.85-20.86A20.85,20.85,0,0,1,617.64,249.39Z"/><path class="cls-26" d="M620.93,249.39a20.86,20.86,0,1,1-20.85-20.86A20.86,20.86,0,0,1,620.93,249.39Z"/><path class="cls-25" d="M600.08,267a17.58,17.58,0,1,1,17.57-17.58A17.6,17.6,0,0,1,600.08,267Zm0-34.15a16.57,16.57,0,1,0,16.56,16.57A16.58,16.58,0,0,0,600.08,232.82Z"/><path class="cls-25" d="M600,260a11.48,11.48,0,0,1-2.62-.22,10.84,10.84,0,0,1-2-.6,4.55,4.55,0,0,1-1.38-.76c-.33-.28-.5-.53-.5-.75a1.6,1.6,0,0,1,.25-.76,4.85,4.85,0,0,1,.54-.82c.2-.24.38-.36.52-.36a.58.58,0,0,1,.25.09l.44.24a13.94,13.94,0,0,0,1.89.8,7.16,7.16,0,0,0,2.75.32,5.28,5.28,0,0,0,2.52-.71,2.45,2.45,0,0,0,1-2.26,2.86,2.86,0,0,0-.59-1.86,4.73,4.73,0,0,0-1.56-1.18c-.65-.31-1.35-.61-2.09-.89a15.42,15.42,0,0,1-3-1.61,6.79,6.79,0,0,1-1.89-2,4.85,4.85,0,0,1-.66-2.53,5.58,5.58,0,0,1,.78-3,5.28,5.28,0,0,1,2.31-2,8.59,8.59,0,0,1,3.66-.71,10.78,10.78,0,0,1,2.32.26,8.25,8.25,0,0,1,2,.68,2.5,2.5,0,0,1,.57.44.66.66,0,0,1,.22.47,2,2,0,0,1-.2.72,3.47,3.47,0,0,1-.48.82c-.2.24-.36.36-.5.36a.93.93,0,0,1-.38-.13,4.14,4.14,0,0,0-.62-.26,11.63,11.63,0,0,0-1.32-.42,7.81,7.81,0,0,0-2-.21,3.82,3.82,0,0,0-2.43.72,2.47,2.47,0,0,0-.9,2,2.17,2.17,0,0,0,.54,1.51,4.46,4.46,0,0,0,1.46,1.05c.6.29,1.25.59,1.93.89a15.71,15.71,0,0,1,3.12,1.7,7.07,7.07,0,0,1,2,2.1,5.11,5.11,0,0,1,.69,2.65,5.88,5.88,0,0,1-1.68,4.47A7.08,7.08,0,0,1,600,260Zm.31,2.06c-.53,0-.79-.21-.79-.61v-24.1c0-.4.26-.61.79-.61h.15c.52,0,.79.21.79.61v24.1c0,.4-.27.61-.79.61Z"/><path class="cls-25" d="M582.31,290.1a25.77,25.77,0,1,1-25.77-25.77A25.76,25.76,0,0,1,582.31,290.1Z"/><path class="cls-26" d="M586.37,290.1a25.77,25.77,0,1,1-25.76-25.77A25.76,25.76,0,0,1,586.37,290.1Z"/><path class="cls-25" d="M560.61,311.81a21.71,21.71,0,1,1,21.71-21.71A21.74,21.74,0,0,1,560.61,311.81Zm0-42.18a20.47,20.47,0,1,0,20.46,20.47A20.49,20.49,0,0,0,560.61,269.63Z"/><path class="cls-25" d="M560.49,303.19a14.32,14.32,0,0,1-3.23-.27,13,13,0,0,1-2.53-.74,5.71,5.71,0,0,1-1.7-.94c-.41-.35-.61-.66-.61-.93a2.07,2.07,0,0,1,.29-.94,6.15,6.15,0,0,1,.68-1c.25-.29.46-.44.63-.44a.75.75,0,0,1,.32.1l.54.31a17.51,17.51,0,0,0,2.34,1,8.94,8.94,0,0,0,3.39.39,6.57,6.57,0,0,0,3.12-.88,3,3,0,0,0,1.21-2.78,3.45,3.45,0,0,0-.73-2.3,5.67,5.67,0,0,0-1.92-1.47c-.8-.38-1.66-.75-2.58-1.1a18.56,18.56,0,0,1-3.65-2,8.32,8.32,0,0,1-2.34-2.45,5.91,5.91,0,0,1-.82-3.12,6.85,6.85,0,0,1,1-3.65,6.47,6.47,0,0,1,2.85-2.47,10.62,10.62,0,0,1,4.52-.88,14.07,14.07,0,0,1,2.86.32,10.6,10.6,0,0,1,2.52.84,3.38,3.38,0,0,1,.72.55.85.85,0,0,1,.26.57,2.41,2.41,0,0,1-.24.9,5.07,5.07,0,0,1-.6,1c-.24.29-.45.44-.62.44a1.07,1.07,0,0,1-.47-.17,6.46,6.46,0,0,0-.76-.32,16,16,0,0,0-1.63-.52,9.81,9.81,0,0,0-2.41-.26,4.66,4.66,0,0,0-3,.9,3,3,0,0,0-1.12,2.5,2.67,2.67,0,0,0,.68,1.87,5.71,5.71,0,0,0,1.79,1.3l2.39,1.1a19.36,19.36,0,0,1,3.86,2.09,8.73,8.73,0,0,1,2.46,2.6,6.19,6.19,0,0,1,.86,3.27,7.31,7.31,0,0,1-2.07,5.52C565.34,302.49,563.26,303.16,560.49,303.19Zm.38,2.54c-.65,0-1-.25-1-.75V275.21c0-.49.33-.75,1-.75h.18c.65,0,1,.26,1,.75V305c0,.5-.33.75-1,.75Z"/></g></g></svg>