<svg xmlns="http://www.w3.org/2000/svg" viewBox="0 0 94.12 144.37"><defs><style>.cls-1{fill:#c6c5ca;}.cls-2{fill:#ef470c;}.cls-3{fill:#edca58;}</style></defs><g id="Layer_2" data-name="Layer 2"><g id="OBJECTS"><path class="cls-1" d="M89.83,138.15c0,3.43-19.82,6.22-44.27,6.22S1.3,141.58,1.3,138.15s19.82-6.22,44.26-6.22S89.83,134.72,89.83,138.15Z"/><path class="cls-2" d="M85.82,43.87S84.6,47.24,78.53,55.8c-.2-12.61-17.08-14.72-9.82-34.8C54.07,26.52,45.56,43.61,47.06,66.19,43.31,40.66,27.91,21.88,0,19.41c19.89,37.07,1.3,57.18,1.3,77.2,0,27.31,24.15,40.05,44.17,40.05C101.75,136.66,99.85,78.34,85.82,43.87Z"/><path class="cls-3" d="M85,93.49s-19.69,11.69-31.3,8.15c-9.5-2.9-10.28-11.83-13.42-21.49-2-6.11-9.61-14-15.87-15.47h0c10.21,17.65-.45,24.3,3.31,43-2-9.76-11.27-15.55-11.27-15.55-4.78,16.43,12,39,29.15,39S79.11,118.2,85,93.49Z"/><path class="cls-3" d="M60.62,55.66s0,9,9,19.5-9,21.49-9,21.49,4-5-2.5-16.49S60.62,55.66,60.62,55.66Z"/><path class="cls-2" d="M40.34,0s0,6,6,13-6,14.33-6,14.33S43,24,38.67,16.33,40.34,0,40.34,0Z"/></g></g></svg>