<svg xmlns="http://www.w3.org/2000/svg" xmlns:xlink="http://www.w3.org/1999/xlink" viewBox="0 0 318.68 116.23"><defs><style>.cls-1{fill:none;}.cls-2{fill:#ccf2ff;}.cls-3{fill:#cdf3ff;}.cls-4{isolation:isolate;}.cls-5{clip-path:url(#clip-path);}.cls-6{fill:#c6f1ff;}.cls-7{fill:#c9f2ff;}.cls-8{fill:#cef3ff;}.cls-9{fill:#d1f4ff;}.cls-10{fill:#d4f4ff;}.cls-11{fill:#c3f0ff;}.cls-12{clip-path:url(#clip-path-2);}.cls-13{fill:#d6f5ff;}.cls-14{fill:#ccf3ff;}.cls-15{clip-path:url(#clip-path-3);}.cls-16{fill:#baeeff;}.cls-17{fill:#bdefff;}.cls-18{fill:#c0f0ff;}.cls-19{clip-path:url(#clip-path-4);}.cls-20{clip-path:url(#clip-path-5);}.cls-21{clip-path:url(#clip-path-6);}.cls-22{clip-path:url(#clip-path-7);}.cls-23{clip-path:url(#clip-path-8);}.cls-24{clip-path:url(#clip-path-9);}.cls-25{clip-path:url(#clip-path-10);}.cls-26{clip-path:url(#clip-path-11);}.cls-27{clip-path:url(#clip-path-12);}.cls-28{clip-path:url(#clip-path-13);}.cls-29{clip-path:url(#clip-path-14);}.cls-30{fill:#daf6ff;}.cls-31{clip-path:url(#clip-path-15);}.cls-32{clip-path:url(#clip-path-16);}.cls-33{clip-path:url(#clip-path-17);}.cls-34{clip-path:url(#clip-path-18);}.cls-35{clip-path:url(#clip-path-19);}.cls-36{clip-path:url(#clip-path-20);}.cls-37{clip-path:url(#clip-path-21);}.cls-38{clip-path:url(#clip-path-22);}.cls-39{clip-path:url(#clip-path-23);}.cls-40{clip-path:url(#clip-path-24);}.cls-41{clip-path:url(#clip-path-25);}.cls-42{clip-path:url(#clip-path-26);}.cls-43{clip-path:url(#clip-path-27);}.cls-44{clip-path:url(#clip-path-28);}.cls-45{clip-path:url(#clip-path-29);}.cls-46{clip-path:url(#clip-path-30);}.cls-47{clip-path:url(#clip-path-31);}.cls-48{clip-path:url(#clip-path-32);}.cls-49{clip-path:url(#clip-path-33);}.cls-50{clip-path:url(#clip-path-34);}.cls-51{fill:#d2f4ff;}.cls-52{clip-path:url(#clip-path-35);}.cls-53{fill:#bfefff;}.cls-54{clip-path:url(#clip-path-36);}.cls-55{clip-path:url(#clip-path-37);}.cls-56{clip-path:url(#clip-path-38);}.cls-57{clip-path:url(#clip-path-39);}.cls-58{clip-path:url(#clip-path-40);}.cls-59{clip-path:url(#clip-path-41);}.cls-60{clip-path:url(#clip-path-42);}.cls-61{clip-path:url(#clip-path-43);}.cls-62{clip-path:url(#clip-path-44);}.cls-63{clip-path:url(#clip-path-45);}.cls-64{clip-path:url(#clip-path-46);}.cls-65{clip-path:url(#clip-path-47);}.cls-66{clip-path:url(#clip-path-48);}.cls-67{clip-path:url(#clip-path-49);}.cls-68{clip-path:url(#clip-path-50);}.cls-69{clip-path:url(#clip-path-51);}.cls-70{clip-path:url(#clip-path-52);}.cls-71{clip-path:url(#clip-path-53);}.cls-72{clip-path:url(#clip-path-54);}.cls-73{clip-path:url(#clip-path-55);}.cls-74{clip-path:url(#clip-path-56);}.cls-75{clip-path:url(#clip-path-57);}.cls-76{clip-path:url(#clip-path-58);}.cls-77{clip-path:url(#clip-path-59);}.cls-78{clip-path:url(#clip-path-60);}.cls-79{clip-path:url(#clip-path-61);}.cls-80{clip-path:url(#clip-path-62);}.cls-81{clip-path:url(#clip-path-63);}.cls-82{clip-path:url(#clip-path-64);}.cls-83{clip-path:url(#clip-path-65);}.cls-84{clip-path:url(#clip-path-66);}.cls-85{clip-path:url(#clip-path-67);}.cls-86{clip-path:url(#clip-path-68);}.cls-87{clip-path:url(#clip-path-69);}.cls-88{clip-path:url(#clip-path-70);}.cls-89{fill:#ebfaff;}</style><clipPath id="clip-path" transform="translate(0)"><path class="cls-1" d="M304.05,90,267.56,79.52a1.14,1.14,0,0,0,.58,0c.79-.21,1.85-1.54,2.46-5L307.1,85c-.62,3.42-1.68,4.75-2.47,5A1,1,0,0,1,304.05,90Z"/></clipPath><clipPath id="clip-path-2" transform="translate(0)"><path class="cls-1" d="M306,75.57,269.48,65.13a.86.86,0,0,0,.42,0c1.55-.42,2.64-2.81,3.32-5.75l36.49,10.44c-.68,3-1.77,5.34-3.31,5.75A.71.71,0,0,1,306,75.57Z"/></clipPath><clipPath id="clip-path-3" transform="translate(0)"><path class="cls-1" d="M303.54,94.69,267.05,84.24c-1.57-.45-2.73-2.11-2.65-4.77.16-5.18,3.3-7.62,7.11-10.19L308,79.72c-3.81,2.58-6.95,5-7.11,10.2C300.82,92.57,302,94.24,303.54,94.69Z"/></clipPath><clipPath id="clip-path-4" transform="translate(0)"><path class="cls-1" d="M301.81,81.73l-36.5-10.45c-1.18-.34-2-1.55-2.25-3.84l36.49,10.45C299.77,80.18,300.62,81.39,301.81,81.73Z"/></clipPath><clipPath id="clip-path-5" transform="translate(0)"><path class="cls-1" d="M295.8,78.56,259.31,68.11a1.41,1.41,0,0,0,.76,0c1.54-.42,2.69-3.16,3.36-6.1l36.49,10.45c-.67,2.94-1.81,5.68-3.36,6.09A1.43,1.43,0,0,1,295.8,78.56Z"/></clipPath><clipPath id="clip-path-6" transform="translate(0)"><path class="cls-1" d="M291.69,84.47,255.2,74c-1.25-.36-2-1.74-2.11-4.12l36.5,10.45C289.69,82.72,290.44,84.11,291.69,84.47Z"/></clipPath><clipPath id="clip-path-7" transform="translate(0)"><path class="cls-1" d="M285.46,81,249,70.56a1.47,1.47,0,0,0,.81,0c1.15-.31,2.86-2.42,3.43-5.78L289.7,75.17c-.56,3.36-2.28,5.48-3.43,5.79A1.56,1.56,0,0,1,285.46,81Z"/></clipPath><clipPath id="clip-path-8" transform="translate(0)"><path class="cls-1" d="M254.59,49.93l36.5,10.45c.71.2.91,1.17.89,1.7L255.49,51.63C255.5,51.1,255.31,50.14,254.59,49.93Z"/></clipPath><clipPath id="clip-path-9" transform="translate(0)"><path class="cls-1" d="M281.52,87.08,245,76.64c-1.25-.36-2.27-1.52-2.73-3.84l36.49,10.45C279.25,85.57,280.27,86.73,281.52,87.08Z"/></clipPath><clipPath id="clip-path-10" transform="translate(0)"><path class="cls-1" d="M254.7,46.72l36.5,10.45a3.64,3.64,0,0,0-1.91.09C282.4,59.11,278.76,72,278.53,79.5V80L242,69.55c0-.17,0-.33,0-.5.22-7.52,3.87-20.39,10.76-22.23A3.63,3.63,0,0,1,254.7,46.72Z"/></clipPath><clipPath id="clip-path-11" transform="translate(0)"><path class="cls-1" d="M274.82,83.84,238.33,73.39a1.73,1.73,0,0,0,.91-.06c1.18-.31,2.12-1.79,2.8-3.78L278.53,80c-.68,2-1.62,3.46-2.8,3.78A1.73,1.73,0,0,1,274.82,83.84Z"/></clipPath><clipPath id="clip-path-12" transform="translate(0)"><path class="cls-1" d="M270.86,89.72l-36.5-10.44c-1.19-.35-1.94-1.62-2.1-3.79l36.49,10.44C268.91,88.1,269.66,89.38,270.86,89.72Z"/></clipPath><clipPath id="clip-path-13" transform="translate(0)"><path class="cls-1" d="M264.66,86.58,228.17,76.14a1.55,1.55,0,0,0,.81-.06c1.11-.29,2.78-2.29,3.39-5.49L268.86,81c-.61,3.21-2.28,5.2-3.39,5.5A1.46,1.46,0,0,1,264.66,86.58Z"/></clipPath><clipPath id="clip-path-14" transform="translate(0)"><path class="cls-1" d="M233.79,55.5,270.28,66c.66.19.86,1,.91,1.53L234.7,57C234.65,56.53,234.44,55.69,233.79,55.5Z"/></clipPath><clipPath id="clip-path-15" transform="translate(0)"><path class="cls-1" d="M260.71,92.66,224.22,82.21c-1.79-.51-3.12-2.69-3-7.59.23-7.52,3.87-20.38,10.77-22.23a3.57,3.57,0,0,1,1.89-.09l36.5,10.44a3.63,3.63,0,0,0-1.9.1c-6.89,1.84-10.54,14.71-10.76,22.23C257.59,90,258.92,92.15,260.71,92.66Z"/></clipPath><clipPath id="clip-path-16" transform="translate(0)"><path class="cls-1" d="M221.13,55.84l36.49,10.45a1.83,1.83,0,0,0-1,0l-36.5-10.45A2,2,0,0,1,221.13,55.84Z"/></clipPath><clipPath id="clip-path-17" transform="translate(0)"><path class="cls-1" d="M255.55,74.6,219.06,64.16c-1.16-.34-.58-2.89-1.28-3.1l36.49,10.45C255,71.71,254.39,74.27,255.55,74.6Z"/></clipPath><clipPath id="clip-path-18" transform="translate(0)"><path class="cls-1" d="M251.71,71,215.22,60.59c1.43-2,3-4.22,4.89-4.73l36.5,10.45C254.7,66.82,253.14,69,251.71,71Z"/></clipPath><clipPath id="clip-path-19" transform="translate(0)"><path class="cls-1" d="M234.76,95.18l-36.5-10.45a2.68,2.68,0,0,0,1.46-.09c3.13-.84,5.11-3.79,7.18-7.5l36.49,10.45c-2.07,3.71-4,6.66-7.17,7.5A2.89,2.89,0,0,1,234.76,95.18Z"/></clipPath><clipPath id="clip-path-20" transform="translate(0)"><path class="cls-1" d="M203,63,239.5,73.4c.46.13.6.89.57,2-.14,4.62-3,9.64-6,10.74L197.55,75.72c3.06-1.09,5.89-6.11,6-10.74C203.61,63.85,203.47,63.09,203,63Z"/></clipPath><clipPath id="clip-path-21" transform="translate(0)"><path class="cls-1" d="M230.67,100.55,194.18,90.1c-1.37-.4-2.35-1.57-2.79-3.71l36.49,10.45C228.32,99,229.3,100.15,230.67,100.55Z"/></clipPath><clipPath id="clip-path-22" transform="translate(0)"><path class="cls-1" d="M204.71,60,241.2,70.45a4.25,4.25,0,0,0-2.29.1c-8.12,2.18-11.09,16.29-11.29,22.7a2.26,2.26,0,0,1,0,.26L191.13,83.06V82.8c.19-6.41,3.17-20.52,11.29-22.7A4.35,4.35,0,0,1,204.71,60Z"/></clipPath><clipPath id="clip-path-23" transform="translate(0)"><path class="cls-1" d="M223.56,97.57,187.07,87.13a1.84,1.84,0,0,0,.91-.06c1.21-.32,2.38-1.92,3.15-4l36.49,10.45c-.77,2.08-1.94,3.68-3.15,4A1.71,1.71,0,0,1,223.56,97.57Z"/></clipPath><clipPath id="clip-path-24" transform="translate(0)"><path class="cls-1" d="M219.48,103.79,183,93.34c-1.45-.42-2.4-2.14-2.3-5.59,0-.27,0-.54,0-.83l36.5,10.44c0,.29,0,.57,0,.84C217.08,101.65,218,103.37,219.48,103.79Z"/></clipPath><clipPath id="clip-path-25" transform="translate(0)"><path class="cls-1" d="M214.67,98,178.18,87.59a36,36,0,0,0,2.93-3.54l36.5,10.44A37.42,37.42,0,0,1,214.67,98Z"/></clipPath><clipPath id="clip-path-26" transform="translate(0)"><path class="cls-1" d="M204.41,103.63l-36.5-10.45a2.05,2.05,0,0,0,1.14-.05l36.5,10.45A2.15,2.15,0,0,1,204.41,103.63Z"/></clipPath><clipPath id="clip-path-27" transform="translate(0)"><path class="cls-1" d="M205.55,103.58l-36.5-10.45c1.75-.46,3.49-2.2,3.61-6.1.08-2.9-.22-4.53-.37-13l36.5,10.45c.14,8.47.45,10.1.36,13C209,101.38,207.29,103.11,205.55,103.58Z"/></clipPath><clipPath id="clip-path-28" transform="translate(0)"><path class="cls-1" d="M203.71,100.79l-36.5-10.45a.7.7,0,0,1-.46-.46l36.5,10.45A.68.68,0,0,0,203.71,100.79Z"/></clipPath><clipPath id="clip-path-29" transform="translate(0)"><path class="cls-1" d="M203.37,96.32l-36.5-10.45a133.62,133.62,0,0,0,5.37-17.79l36.49,10.44A134.7,134.7,0,0,1,203.37,96.32Z"/></clipPath><clipPath id="clip-path-30" transform="translate(0)"><path class="cls-1" d="M204.1,107.71,167.61,97.26c-1.73-.5-2.65-2.19-2.91-4.15l36.49,10.45C201.45,105.52,202.37,107.21,204.1,107.71Z"/></clipPath><clipPath id="clip-path-31" transform="translate(0)"><path class="cls-1" d="M201.28,100.59l-36.5-10.45a8.1,8.1,0,0,1,2.09-4.27l36.5,10.45A8,8,0,0,0,201.28,100.59Z"/></clipPath><clipPath id="clip-path-32" transform="translate(0)"><path class="cls-1" d="M193.83,106.14,157.34,95.7a2.89,2.89,0,0,0,1.46-.09c2.53-.68,4.3-2.74,6-5.47l36.5,10.45c-1.68,2.72-3.46,4.79-6,5.46A2.72,2.72,0,0,1,193.83,106.14Z"/></clipPath><clipPath id="clip-path-33" transform="translate(0)"><path class="cls-1" d="M162.09,73.92l36.49,10.45c.46.13.6.89.56,2-.13,4.63-2.95,9.65-6,10.74L156.63,86.69c3.06-1.1,5.88-6.12,6-10.74C162.69,74.81,162.55,74.05,162.09,73.92Z"/></clipPath><clipPath id="clip-path-34" transform="translate(0)"><path class="cls-1" d="M189.75,111.51l-36.5-10.45c-2-.58-3.17-2.83-3-7.29.19-6.41,3.17-20.53,11.29-22.7a4.37,4.37,0,0,1,2.29-.11l36.49,10.45a4.35,4.35,0,0,0-2.29.1c-8.12,2.18-11.1,16.3-11.29,22.7C186.57,108.68,187.73,110.93,189.75,111.51Z"/></clipPath><clipPath id="clip-path-35" transform="translate(0)"><path class="cls-1" d="M177.79,73.61,141.3,63.16a14.28,14.28,0,0,1,1.58-.32l36.49,10.45A14.28,14.28,0,0,0,177.79,73.61Z"/></clipPath><clipPath id="clip-path-36" transform="translate(0)"><path class="cls-1" d="M165.27,96.2l-36.5-10.45c-1.25-.36-1.89-1.69-1.81-4.38.22-7.41,7.73-16.44,14.34-18.21l36.49,10.45c-6.61,1.77-14.11,10.8-14.33,18.2C163.37,94.51,164,95.84,165.27,96.2Z"/></clipPath><clipPath id="clip-path-37" transform="translate(0)"><path class="cls-1" d="M211.81,34.58,175.32,24.14a2.45,2.45,0,0,0,1.31-.69L213.12,33.9A2.44,2.44,0,0,1,211.81,34.58Z"/></clipPath><clipPath id="clip-path-38" transform="translate(0)"><path class="cls-1" d="M211.06,34.61l-36.5-10.44a1.54,1.54,0,0,0,.76,0l36.49,10.44A1.3,1.3,0,0,1,211.06,34.61Z"/></clipPath><clipPath id="clip-path-39" transform="translate(0)"><path class="cls-1" d="M206.91,40.85,170.42,30.41c-1.69-.49-2.2-2.79-2.13-5.27.12-3.79,2.1-11.13,2.21-14.69,0-1.45-.23-2.3-.81-2.47l36.49,10.45c.58.16.86,1,.81,2.47-.1,3.56-2.09,10.9-2.2,14.68C204.71,38.07,205.22,40.37,206.91,40.85Z"/></clipPath><clipPath id="clip-path-40" transform="translate(0)"><path class="cls-1" d="M173.91,2.17,210.4,12.61a3.88,3.88,0,0,0-2,.06c-1.22.33-3,1.24-4.72,4.36L167.19,6.58c1.75-3.12,3.5-4,4.73-4.36A3.76,3.76,0,0,1,173.91,2.17Z"/></clipPath><clipPath id="clip-path-41" transform="translate(0)"><path class="cls-1" d="M191.15,40.28,154.66,29.83a1.43,1.43,0,0,0,.76,0c1.54-.41,2.68-3.13,3.36-6.07l36.49,10.45c-.68,2.93-1.82,5.66-3.36,6.07A1.43,1.43,0,0,1,191.15,40.28Z"/></clipPath><clipPath id="clip-path-42" transform="translate(0)"><path class="cls-1" d="M187,46.19,150.55,35.74c-1.25-.36-2-1.75-2.1-4.13l36.49,10.45C185,44.44,185.79,45.83,187,46.19Z"/></clipPath><clipPath id="clip-path-43" transform="translate(0)"><path class="cls-1" d="M180.81,42.73,144.32,32.28a1.56,1.56,0,0,0,.81-.05c1.15-.31,2.87-2.43,3.43-5.79l36.5,10.45c-.57,3.36-2.29,5.48-3.44,5.78A1.45,1.45,0,0,1,180.81,42.73Z"/></clipPath><clipPath id="clip-path-44" transform="translate(0)"><path class="cls-1" d="M150,11.65l36.49,10.44c.71.21.91,1.17.89,1.7L150.84,13.34C150.86,12.81,150.66,11.85,150,11.65Z"/></clipPath><clipPath id="clip-path-45" transform="translate(0)"><path class="cls-1" d="M176.87,48.8l-36.5-10.45c-1.21-.34-2.2-1.45-2.68-3.64l36.49,10.45C174.66,47.35,175.66,48.45,176.87,48.8Z"/></clipPath><clipPath id="clip-path-46" transform="translate(0)"><path class="cls-1" d="M150.06,8.44l36.49,10.45a3.61,3.61,0,0,0-1.9.09c-6.9,1.85-10.54,14.71-10.77,22.48L137.39,31c.23-7.77,3.87-20.63,10.76-22.48A3.64,3.64,0,0,1,150.06,8.44Z"/></clipPath><clipPath id="clip-path-47" transform="translate(0)"><path class="cls-1" d="M170.21,45.56,133.72,35.11a1.39,1.39,0,0,0,.75,0c1.4-.37,2.18-1.88,2.92-4.07l36.49,10.45c-.74,2.19-1.52,3.69-2.92,4.07A1.39,1.39,0,0,1,170.21,45.56Z"/></clipPath><clipPath id="clip-path-48" transform="translate(0)"><path class="cls-1" d="M166.31,51.63,129.82,41.18c-1.81-.51-2.44-2.7-2.37-5.1.11-3.79,2.1-11.12,2.2-14.68,0-1.46-.22-2.31-.81-2.48l36.5,10.45c.58.17.85,1,.81,2.48-.11,3.56-2.1,10.89-2.21,14.68C163.87,48.93,164.5,51.11,166.31,51.63Z"/></clipPath><clipPath id="clip-path-49" transform="translate(0)"><path class="cls-1" d="M133.06,13.11l36.5,10.45a3.76,3.76,0,0,0-2,.05c-1.27.35-3,1.31-4.81,4.49L126.27,17.66c1.78-3.18,3.54-4.15,4.81-4.49A3.64,3.64,0,0,1,133.06,13.11Z"/></clipPath><clipPath id="clip-path-50" transform="translate(0)"><path class="cls-1" d="M138.54,37.09,102.05,26.64c-1.26-.36-1.9-1.69-1.82-4.38A19.06,19.06,0,0,1,114.61,4c1.82-.49,6.61-.34,10.65-1.42A9.65,9.65,0,0,0,130.1,0l36.49,10.45a9.59,9.59,0,0,1-4.84,2.61c-4,1.09-8.82.94-10.65,1.43A19,19,0,0,0,136.73,32.7C136.65,35.4,137.28,36.73,138.54,37.09Z"/></clipPath><clipPath id="clip-path-51" transform="translate(0)"><path class="cls-1" d="M90.21,24.59,126.7,35a1.83,1.83,0,0,0-1,0L89.2,24.6A1.83,1.83,0,0,1,90.21,24.59Z"/></clipPath><clipPath id="clip-path-52" transform="translate(0)"><path class="cls-1" d="M124.64,43.36,88.15,32.91c-1.16-.33-.58-2.89-1.28-3.09l36.49,10.45C124.06,40.47,123.48,43,124.64,43.36Z"/></clipPath><clipPath id="clip-path-53" transform="translate(0)"><path class="cls-1" d="M120.79,39.79,84.3,29.35c1.44-2,3-4.24,4.9-4.75l36.49,10.45C123.79,35.56,122.23,37.75,120.79,39.79Z"/></clipPath><clipPath id="clip-path-54" transform="translate(0)"><path class="cls-1" d="M103.84,63.93,67.35,53.49a2.89,2.89,0,0,0,1.46-.09c3.13-.84,5.1-3.8,7.18-7.51l36.49,10.45c-2.08,3.71-4,6.67-7.18,7.5A2.68,2.68,0,0,1,103.84,63.93Z"/></clipPath><clipPath id="clip-path-55" transform="translate(0)"><path class="cls-1" d="M72.1,31.71l36.49,10.45c.46.13.59.89.56,2-.14,4.63-3,9.64-6,10.73L66.64,44.46c3.06-1.09,5.88-6.1,6-10.72C72.69,32.6,72.56,31.84,72.1,31.71Z"/></clipPath><clipPath id="clip-path-56" transform="translate(0)"><path class="cls-1" d="M99.77,69.3,63.27,58.85c-1.37-.4-2.35-1.57-2.79-3.7L97,65.6C97.41,67.72,98.39,68.9,99.77,69.3Z"/></clipPath><clipPath id="clip-path-57" transform="translate(0)"><path class="cls-1" d="M73.79,28.74l36.5,10.45a4.35,4.35,0,0,0-2.29.1C99.88,41.47,96.91,55.59,96.72,62a1.13,1.13,0,0,0,0,.26L60.22,51.8v-.25c.2-6.41,3.17-20.53,11.29-22.7A4.33,4.33,0,0,1,73.79,28.74Z"/></clipPath><clipPath id="clip-path-58" transform="translate(0)"><path class="cls-1" d="M92.65,66.33,56.16,55.88a1.73,1.73,0,0,0,.91-.06c1.21-.32,2.37-1.92,3.15-4l36.5,10.45c-.79,2.1-2,3.7-3.16,4A1.84,1.84,0,0,1,92.65,66.33Z"/></clipPath><clipPath id="clip-path-59" transform="translate(0)"><path class="cls-1" d="M88.57,72.54,52.08,62.09c-1.2-.34-2-1.58-2.26-3.92L86.31,68.61C86.52,71,87.37,72.19,88.57,72.54Z"/></clipPath><clipPath id="clip-path-60" transform="translate(0)"><path class="cls-1" d="M82.07,69.16,45.58,58.71a1.82,1.82,0,0,0,.91-.05c1.55-.42,3-2.92,3.71-5.86L86.7,63.25C86,66.19,84.53,68.69,83,69.1A1.77,1.77,0,0,1,82.07,69.16Z"/></clipPath><clipPath id="clip-path-61" transform="translate(0)"><path class="cls-1" d="M78,75.37,41.5,64.92c-1.46-.41-2.4-2.14-2.3-5.58,0-.09,0-.21,0-.31L75.71,69.48c0,.1,0,.21,0,.31C75.59,73.23,76.54,75,78,75.37Z"/></clipPath><clipPath id="clip-path-62" transform="translate(0)"><path class="cls-1" d="M67.48,73.68,31,63.23a2.89,2.89,0,0,0,1.46-.09c3.14-.84,5.11-3.8,7.19-7.51L76.12,66.08c-2.08,3.7-4.05,6.67-7.18,7.51A2.89,2.89,0,0,1,67.48,73.68Z"/></clipPath><clipPath id="clip-path-63" transform="translate(0)"><path class="cls-1" d="M35.73,41.45,72.23,51.9c.46.13.59.89.55,2-.13,4.62-3,9.63-6,10.73L30.28,54.21c3-1.09,5.87-6.1,6-10.73C36.33,42.34,36.19,41.58,35.73,41.45Z"/></clipPath><clipPath id="clip-path-64" transform="translate(0)"><path class="cls-1" d="M63.39,79,26.9,68.6c-2-.58-3.17-2.84-3-7.31.19-6.41,3.17-20.52,11.29-22.7a4.31,4.31,0,0,1,2.28-.1L73.92,48.94a4.21,4.21,0,0,0-2.28.1c-8.12,2.17-11.1,16.29-11.29,22.7C60.22,76.21,61.38,78.47,63.39,79Z"/></clipPath><clipPath id="clip-path-65" transform="translate(0)"><path class="cls-1" d="M19.86,47.39,56.35,57.84a4.1,4.1,0,0,0-1.09-.15L18.77,47.24A4.16,4.16,0,0,1,19.86,47.39Z"/></clipPath><clipPath id="clip-path-66" transform="translate(0)"><path class="cls-1" d="M49,78.63,12.46,68.18a1.69,1.69,0,0,0,1,0c2.9-.77,4.1-6.84,4.22-11.08.1-3.12-.38-5.62-2.06-6.1L52.08,61.44c1.68.48,2.16,3,2.07,6.1-.13,4.24-1.33,10.31-4.22,11.08A1.81,1.81,0,0,1,49,78.63Z"/></clipPath><clipPath id="clip-path-67" transform="translate(0)"><path class="cls-1" d="M48.38,83.85,11.89,73.41c-1-.28-1.72-1.15-1.66-3.16a14,14,0,0,1,.61-3.37L47.33,77.33a14,14,0,0,0-.61,3.37C46.66,82.71,47.41,83.58,48.38,83.85Z"/></clipPath><clipPath id="clip-path-68" transform="translate(0)"><path class="cls-1" d="M16.58,33.4l36.5,10.45c1.79.51,2.49,2.42,2.42,4.71-.13,4.18-2.8,9.7-6,10.55L13,48.67c3.17-.85,5.85-6.38,6-10.56C19.07,35.82,18.38,33.92,16.58,33.4Z"/></clipPath><clipPath id="clip-path-69" transform="translate(0)"><path class="cls-1" d="M19.13,30.57,55.62,41a8.06,8.06,0,0,0-4.3.14L14.82,30.72A8,8,0,0,1,19.13,30.57Z"/></clipPath><clipPath id="clip-path-70" transform="translate(0)"><path class="cls-1" d="M38.34,63.88,1.84,53.43C.61,53.08-.07,51.82,0,49.34c.22-7.69,7.33-16.62,14.81-18.62l36.5,10.44c-7.49,2-14.59,10.94-14.82,18.62C36.42,62.27,37.1,63.53,38.34,63.88Z"/></clipPath></defs><g id="Layer_2" data-name="Layer 2"><g id="Layer_1-2" data-name="Layer 1"><g id="Shadow"><polygon class="cls-2" points="307.1 85 270.6 74.55 271.18 71.13 307.67 81.58 307.1 85"/><polygon class="cls-3" points="308 79.72 271.5 69.28 271.98 66.72 308.47 77.17 308 79.72"/><g class="cls-4"><g class="cls-5"><g class="cls-4"><path class="cls-6" d="M304.05,90,267.56,79.52h.07L304.12,90l-.07,0" transform="translate(0)"/><path class="cls-7" d="M304.12,90,267.63,79.53l.16,0L304.28,90l-.16,0" transform="translate(0)"/><path class="cls-2" d="M304.28,90,267.79,79.56H268L304.44,90a.43.43,0,0,1-.16,0" transform="translate(0)"/><path class="cls-8" d="M304.44,90,268,79.55a.57.57,0,0,0,.18,0L304.62,90a1.13,1.13,0,0,1-.18,0" transform="translate(0)"/><path class="cls-9" d="M304.62,90,268.13,79.52h0l.18-.07L304.81,89.9l-.18.07h0" transform="translate(0)"/><path class="cls-10" d="M304.81,89.9,268.32,79.45a2.48,2.48,0,0,0,1-1l36.49,10.45a2.42,2.42,0,0,1-1,1" transform="translate(0)"/><path class="cls-9" d="M305.78,88.94,269.29,78.49a5.15,5.15,0,0,0,.27-.48l36.49,10.44a5.4,5.4,0,0,1-.27.49" transform="translate(0)"/><path class="cls-8" d="M306.05,88.45,269.56,78a5.65,5.65,0,0,0,.25-.55L306.3,87.91a4.56,4.56,0,0,1-.25.54" transform="translate(0)"/><path class="cls-2" d="M306.3,87.91,269.81,77.46q.12-.3.24-.66l36.49,10.45c-.07.24-.16.46-.24.66" transform="translate(0)"/><path class="cls-7" d="M306.54,87.25,270.05,76.8c.09-.26.17-.55.25-.85L306.79,86.4c-.08.3-.16.59-.25.85" transform="translate(0)"/><path class="cls-6" d="M306.79,86.4,270.3,76c.1-.36.18-.76.27-1.19l36.49,10.45c-.08.43-.17.82-.27,1.19" transform="translate(0)"/><path class="cls-11" d="M307.06,85.21,270.57,74.76l0-.21L307.1,85a1.55,1.55,0,0,0,0,.21" transform="translate(0)"/></g></g></g><g class="cls-4"><g class="cls-12"><g class="cls-4"><path class="cls-6" d="M306,75.57,269.48,65.13h0L306,75.58h0" transform="translate(0)"/><path class="cls-7" d="M306,75.58,269.52,65.14h.1L306.11,75.6l-.1,0" transform="translate(0)"/><path class="cls-2" d="M306.11,75.6,269.62,65.15h.12L306.23,75.6h-.12" transform="translate(0)"/><path class="cls-8" d="M306.23,75.6,269.74,65.15l.15,0,36.5,10.45-.16,0" transform="translate(0)"/><path class="cls-9" d="M306.39,75.57l-36.5-10.45h0a1.75,1.75,0,0,0,.32-.12l36.49,10.45a1.28,1.28,0,0,1-.31.11h0" transform="translate(0)"/><path class="cls-10" d="M306.71,75.45,270.22,65a3.54,3.54,0,0,0,1.4-1.36l36.49,10.45a3.48,3.48,0,0,1-1.4,1.36" transform="translate(0)"/><path class="cls-9" d="M308.11,74.09,271.62,63.64c.13-.21.26-.43.38-.67l36.49,10.44a6.31,6.31,0,0,1-.38.68" transform="translate(0)"/><path class="cls-8" d="M308.49,73.41,272,63c.12-.24.24-.49.35-.76l36.49,10.45c-.11.26-.23.52-.35.75" transform="translate(0)"/><path class="cls-2" d="M308.84,72.66,272.35,62.21c.12-.3.23-.62.34-1l36.49,10.45c-.1.33-.22.65-.34,1" transform="translate(0)"/><path class="cls-7" d="M309.18,71.71,272.69,61.26q.19-.59.36-1.23l36.5,10.45c-.12.43-.24.84-.37,1.23" transform="translate(0)"/><path class="cls-6" d="M309.55,70.48,273.05,60c.06-.22.11-.44.17-.66l36.49,10.44c0,.23-.11.45-.16.67" transform="translate(0)"/></g></g></g><polygon class="cls-13" points="312.94 51.21 276.45 40.76 282.19 39.23 318.68 49.67 312.94 51.21"/><polygon class="cls-14" points="309.71 69.81 273.21 59.37 276.45 40.76 312.94 51.21 309.71 69.81"/><g class="cls-4"><g class="cls-15"><g class="cls-4"><path class="cls-16" d="M303.54,94.69,267.05,84.24c-1.41-.4-2.49-1.78-2.63-4l36.49,10.45c.15,2.19,1.22,3.58,2.63,4" transform="translate(0)"/><path class="cls-17" d="M300.91,90.71,264.42,80.26a6.77,6.77,0,0,1,0-.79v-.09l36.5,10.45v.09c0,.27,0,.54,0,.79" transform="translate(0)"/><path class="cls-18" d="M300.9,89.83,264.4,79.38c0-.33,0-.65.08-1L301,88.87c0,.31-.06.63-.07,1" transform="translate(0)"/><path class="cls-11" d="M301,88.87,264.48,78.42c0-.25.07-.51.11-.75l36.49,10.45c0,.24-.08.49-.11.75" transform="translate(0)"/><path class="cls-6" d="M301.08,88.12,264.59,77.67c0-.22.09-.44.15-.65l36.49,10.44c-.05.22-.1.43-.15.66" transform="translate(0)"/><path class="cls-7" d="M301.23,87.46,264.74,77a6.13,6.13,0,0,1,.18-.61l36.49,10.45a5.94,5.94,0,0,0-.18.6" transform="translate(0)"/><path class="cls-2" d="M301.41,86.86,264.92,76.41c.07-.21.14-.41.22-.61l36.49,10.45c-.08.2-.15.4-.22.61" transform="translate(0)"/><path class="cls-8" d="M301.63,86.25,265.14,75.8c.09-.22.19-.44.3-.65L301.93,85.6l-.3.65" transform="translate(0)"/><path class="cls-9" d="M301.93,85.6,265.44,75.15c.14-.28.3-.55.46-.81l36.5,10.44c-.17.27-.32.54-.47.82" transform="translate(0)"/><path class="cls-10" d="M302.4,84.78,265.9,74.34a18.66,18.66,0,0,1,5.61-5.06L308,79.72c-2.27,1.54-4.3,3-5.6,5.06" transform="translate(0)"/></g></g></g><g class="cls-4"><g class="cls-19"><g class="cls-4"><path class="cls-16" d="M301.81,81.73l-36.5-10.45c-1.18-.34-2-1.55-2.25-3.84l36.49,10.45c.22,2.29,1.07,3.5,2.26,3.84" transform="translate(0)"/></g></g></g><polygon class="cls-14" points="299.92 72.44 263.43 61.99 266.66 43.39 303.15 53.83 299.92 72.44"/><polygon class="cls-13" points="303.15 53.83 266.66 43.39 272.37 41.86 308.86 52.3 303.15 53.83"/><g class="cls-4"><g class="cls-20"><g class="cls-4"><path class="cls-6" d="M295.8,78.56,259.31,68.11l.06,0,36.49,10.45-.06,0" transform="translate(0)"/><path class="cls-7" d="M295.86,78.58,259.37,68.13l.16,0L296,78.6l-.17,0" transform="translate(0)"/><path class="cls-2" d="M296,78.6l-36.5-10.45h.21l36.5,10.44H296" transform="translate(0)"/><path class="cls-8" d="M296.24,78.59l-36.5-10.44.31-.06,36.49,10.45a1.17,1.17,0,0,1-.3,0" transform="translate(0)"/><path class="cls-9" d="M296.54,78.54,260.05,68.09h0a1.62,1.62,0,0,0,.28-.11l36.49,10.45a1.33,1.33,0,0,1-.28.1h0" transform="translate(0)"/><path class="cls-10" d="M296.84,78.43,260.35,68a3.36,3.36,0,0,0,1.34-1.32l36.5,10.44a3.41,3.41,0,0,1-1.35,1.33" transform="translate(0)"/><path class="cls-9" d="M298.19,77.1l-36.5-10.44a6.89,6.89,0,0,0,.4-.71l36.5,10.45a7.59,7.59,0,0,1-.4.7" transform="translate(0)"/><path class="cls-8" d="M298.59,76.4,262.09,66a9.06,9.06,0,0,0,.38-.83L299,75.57c-.12.29-.24.57-.37.83" transform="translate(0)"/><path class="cls-2" d="M299,75.57,262.47,65.12c.14-.33.26-.68.38-1l36.5,10.44q-.18.56-.39,1" transform="translate(0)"/><path class="cls-7" d="M299.35,74.52l-36.5-10.44c.15-.44.28-.9.4-1.37l36.5,10.45c-.13.46-.26.92-.4,1.36" transform="translate(0)"/><path class="cls-6" d="M299.75,73.16l-36.5-10.45c.07-.24.12-.48.18-.72l36.49,10.45c-.05.24-.11.48-.17.72" transform="translate(0)"/></g></g></g><g class="cls-4"><g class="cls-21"><g class="cls-4"><path class="cls-16" d="M291.69,84.47,255.2,74c-1.21-.34-1.94-1.64-2.09-3.85L289.6,80.62c.15,2.21.89,3.51,2.09,3.85" transform="translate(0)"/><path class="cls-17" d="M289.6,80.62,253.11,70.17c0-.08,0-.17,0-.27l36.5,10.45c0,.09,0,.18,0,.27" transform="translate(0)"/></g></g></g><polygon class="cls-14" points="289.7 75.17 253.21 64.73 255.49 51.63 291.98 62.08 289.7 75.17"/><polygon class="cls-13" points="292.93 56.57 256.44 46.13 262.14 44.6 298.63 55.04 292.93 56.57"/><polygon class="cls-14" points="292.41 59.64 255.91 49.19 256.44 46.13 292.93 56.57 292.41 59.64"/><g class="cls-4"><g class="cls-22"><g class="cls-4"><path class="cls-6" d="M285.46,81,249,70.56l.05,0L285.52,81l-.06,0" transform="translate(0)"/><path class="cls-7" d="M285.52,81,249,70.58l.15,0,36.49,10.45-.14,0" transform="translate(0)"/><path class="cls-2" d="M285.66,81.05,249.17,70.6h.19L285.85,81h-.19" transform="translate(0)"/><path class="cls-8" d="M285.85,81,249.36,70.59a1.91,1.91,0,0,0,.36-.07L286.22,81a2.2,2.2,0,0,1-.37.07" transform="translate(0)"/><path class="cls-9" d="M286.22,81l-36.5-10.45h.06a.87.87,0,0,0,.25-.1l36.5,10.45a1.72,1.72,0,0,1-.26.1h0" transform="translate(0)"/><path class="cls-10" d="M286.53,80.86,250,70.41a4.45,4.45,0,0,0,1.72-1.71l36.5,10.45a4.67,4.67,0,0,1-1.72,1.71" transform="translate(0)"/><path class="cls-9" d="M288.25,79.15,251.75,68.7a6.85,6.85,0,0,0,.43-.76l36.5,10.45c-.14.27-.29.52-.43.76" transform="translate(0)"/><path class="cls-8" d="M288.68,78.39l-36.5-10.45a6.64,6.64,0,0,0,.33-.71L289,77.68c-.1.25-.21.48-.32.71" transform="translate(0)"/><path class="cls-2" d="M289,77.68,252.51,67.23c.09-.23.18-.46.26-.71L289.26,77c-.08.24-.17.48-.26.71" transform="translate(0)"/><path class="cls-7" d="M289.26,77,252.77,66.52c.08-.24.15-.49.22-.74l36.49,10.45c-.07.25-.14.5-.22.74" transform="translate(0)"/><path class="cls-6" d="M289.48,76.23,253,65.78q.1-.39.18-.81l36.49,10.45q-.07.42-.18.81" transform="translate(0)"/><path class="cls-11" d="M289.66,75.42,253.17,65c0-.08,0-.16,0-.24L289.7,75.17a1.87,1.87,0,0,1,0,.25" transform="translate(0)"/></g></g></g><g class="cls-4"><g class="cls-23"><g class="cls-4"><path class="cls-17" d="M292,62.08,255.49,51.63a1.48,1.48,0,0,0,0-.21L292,61.86v.22" transform="translate(0)"/><path class="cls-16" d="M292,61.86l-36.5-10.44c0-.55-.26-1.31-.89-1.49l36.5,10.45c.62.18.85.94.89,1.48" transform="translate(0)"/></g></g></g><g class="cls-4"><g class="cls-24"><g class="cls-4"><path class="cls-16" d="M281.52,87.08,245,76.64c-1.25-.36-2.27-1.52-2.73-3.84l36.49,10.45c.46,2.32,1.48,3.48,2.73,3.83" transform="translate(0)"/></g></g></g><g class="cls-4"><g class="cls-25"><g class="cls-4"><path class="cls-17" d="M278.53,80,242,69.55c0-.17,0-.33,0-.5a1.48,1.48,0,0,1,0-.21l36.49,10.45c0,.07,0,.14,0,.21V80" transform="translate(0)"/><path class="cls-18" d="M278.54,79.29,242.05,68.84c0-.8.1-1.66.2-2.56l36.49,10.44c-.1.9-.17,1.77-.2,2.57" transform="translate(0)"/><path class="cls-11" d="M278.74,76.72,242.25,66.28c.11-.9.25-1.84.43-2.8l36.5,10.45c-.19,1-.33,1.89-.44,2.79" transform="translate(0)"/><path class="cls-6" d="M279.18,73.93l-36.5-10.45c.18-.91.38-1.84.62-2.77l36.5,10.45c-.24.93-.45,1.86-.62,2.77" transform="translate(0)"/><path class="cls-7" d="M279.8,71.16,243.3,60.71c.23-.86.48-1.72.76-2.57l36.49,10.45c-.28.85-.53,1.71-.75,2.57" transform="translate(0)"/><path class="cls-2" d="M280.55,68.59,244.06,58.14c.26-.78.54-1.55.85-2.31L281.4,66.28c-.31.75-.59,1.53-.85,2.31" transform="translate(0)"/><path class="cls-8" d="M281.4,66.28,244.91,55.83c.29-.71.61-1.41,1-2.09l36.49,10.45c-.34.67-.66,1.37-1,2.09" transform="translate(0)"/><path class="cls-9" d="M282.35,64.19,245.86,53.74c.35-.7.74-1.38,1.14-2l36.49,10.45c-.4.64-.78,1.31-1.14,2" transform="translate(0)"/><path class="cls-10" d="M283.49,62.17,247,51.72a11.81,11.81,0,0,1,4.69-4.5l36.49,10.45a11.68,11.68,0,0,0-4.69,4.5" transform="translate(0)"/><path class="cls-9" d="M288.18,57.67,251.69,47.22a6.4,6.4,0,0,1,1.11-.4l.06,0,36.49,10.45h-.06a7.4,7.4,0,0,0-1.11.41" transform="translate(0)"/><path class="cls-8" d="M289.35,57.25,252.86,46.8a4.63,4.63,0,0,1,.82-.15l36.5,10.45a4.57,4.57,0,0,0-.83.15" transform="translate(0)"/><path class="cls-2" d="M290.18,57.1l-36.5-10.45a3.06,3.06,0,0,1,.52,0l36.5,10.45a3,3,0,0,0-.52,0" transform="translate(0)"/><path class="cls-7" d="M290.7,57.09,254.2,46.64l.37,0,36.5,10.45a2.2,2.2,0,0,0-.37,0" transform="translate(0)"/><path class="cls-6" d="M291.07,57.14l-36.5-10.45.13,0,36.5,10.45-.13,0" transform="translate(0)"/></g></g></g><g class="cls-4"><g class="cls-26"><g class="cls-4"><path class="cls-6" d="M274.82,83.84,238.33,73.39h.06l36.49,10.45h-.06" transform="translate(0)"/><path class="cls-7" d="M274.88,83.85,238.39,73.4a.76.76,0,0,0,.16,0L275,83.87l-.16,0" transform="translate(0)"/><path class="cls-2" d="M275,83.87,238.55,73.43h.23l36.49,10.45H275" transform="translate(0)"/><path class="cls-8" d="M275.27,83.87,238.78,73.42a2.65,2.65,0,0,0,.43-.08L275.7,83.79a2.47,2.47,0,0,1-.43.08" transform="translate(0)"/><path class="cls-9" d="M275.7,83.79,239.21,73.34h0a2,2,0,0,0,.32-.11l36.49,10.45-.32.11h0" transform="translate(0)"/><path class="cls-10" d="M276.05,83.67,239.56,73.22a3.66,3.66,0,0,0,1.43-1.4l36.5,10.45a3.74,3.74,0,0,1-1.44,1.4" transform="translate(0)"/><path class="cls-9" d="M277.49,82.27,241,71.82a5.65,5.65,0,0,0,.39-.69l36.5,10.45q-.19.36-.39.69" transform="translate(0)"/><path class="cls-8" d="M277.88,81.58l-36.5-10.45q.19-.37.36-.78l36.49,10.44c-.11.28-.23.54-.35.79" transform="translate(0)"/><path class="cls-2" d="M278.23,80.79,241.74,70.35l.3-.8L278.53,80c-.1.27-.19.54-.3.79" transform="translate(0)"/></g></g></g><g class="cls-4"><g class="cls-27"><g class="cls-4"><path class="cls-16" d="M270.86,89.72l-36.5-10.44c-1.19-.35-1.94-1.62-2.1-3.79l36.49,10.44c.16,2.17.91,3.45,2.11,3.79" transform="translate(0)"/></g></g></g><polygon class="cls-6" points="268.86 81.03 232.37 70.59 232.37 70.31 268.87 80.76 268.86 81.03"/><polygon class="cls-14" points="268.87 80.76 232.37 70.31 234.7 57.04 271.19 67.48 268.87 80.76"/><g class="cls-4"><g class="cls-28"><g class="cls-4"><path class="cls-6" d="M264.66,86.58,228.17,76.14h.06L264.72,86.6l-.06,0" transform="translate(0)"/><path class="cls-7" d="M264.72,86.6,228.23,76.15l.14,0,36.5,10.45-.15,0" transform="translate(0)"/><path class="cls-2" d="M264.87,86.62l-36.5-10.45h.2l36.49,10.44h-.19" transform="translate(0)"/><path class="cls-8" d="M265.06,86.61,228.57,76.17l.36-.07,36.49,10.44a1.91,1.91,0,0,1-.36.07" transform="translate(0)"/><path class="cls-9" d="M265.42,86.54,228.93,76.1l0,0,.26-.09,36.49,10.44a.93.93,0,0,1-.26.1h-.05" transform="translate(0)"/><path class="cls-10" d="M265.73,86.43,229.24,76A4.68,4.68,0,0,0,231,74.26l36.49,10.45a4.5,4.5,0,0,1-1.73,1.72" transform="translate(0)"/><path class="cls-9" d="M267.46,84.71,231,74.26c.15-.23.29-.48.43-.75L267.89,84a7.62,7.62,0,0,1-.43.76" transform="translate(0)"/><path class="cls-8" d="M267.89,84,231.4,73.51c.11-.23.22-.46.32-.7l36.49,10.44c-.1.25-.21.48-.32.7" transform="translate(0)"/><path class="cls-2" d="M268.21,83.25,231.72,72.81c.09-.23.17-.46.25-.7l36.5,10.44c-.08.25-.17.48-.26.7" transform="translate(0)"/><path class="cls-7" d="M268.47,82.55,232,72.11c.08-.24.15-.48.22-.73l36.49,10.45c-.06.25-.14.49-.21.72" transform="translate(0)"/><path class="cls-6" d="M268.68,81.83,232.19,71.38l.18-.79L268.86,81c-.05.27-.11.53-.18.79" transform="translate(0)"/><polyline class="cls-11" points="268.86 81.04 232.37 70.59 232.37 70.59 268.86 81.03 268.86 81.04"/></g></g></g><g class="cls-4"><g class="cls-29"><g class="cls-4"><path class="cls-16" d="M271.19,67.48,234.7,57c0-.51-.26-1.35-.91-1.54L270.28,66c.66.19.86,1,.91,1.53" transform="translate(0)"/></g></g></g><polygon class="cls-30" points="273.94 51.71 237.45 41.27 243.34 38.58 279.83 49.03 273.94 51.71"/><polygon class="cls-14" points="271.62 65.05 235.12 54.6 237.45 41.27 273.94 51.71 271.62 65.05"/><g class="cls-4"><g class="cls-31"><g class="cls-4"><path class="cls-16" d="M260.71,92.66,224.22,82.21c-1.53-.44-2.72-2.08-2.95-5.58l36.5,10.45c.23,3.5,1.42,5.14,2.94,5.58" transform="translate(0)"/><path class="cls-17" d="M257.77,87.08l-36.5-10.45q-.06-.91,0-2a1.48,1.48,0,0,0,0-.21l36.49,10.45v.21a18.74,18.74,0,0,0,0,2" transform="translate(0)"/><path class="cls-18" d="M257.74,84.86,221.25,74.41c0-.8.1-1.66.21-2.56L258,82.3c-.11.9-.18,1.76-.21,2.56" transform="translate(0)"/><path class="cls-11" d="M258,82.3,221.46,71.85c.1-.9.25-1.84.43-2.8L258.38,79.5c-.18,1-.33,1.9-.43,2.8" transform="translate(0)"/><path class="cls-6" d="M258.38,79.5,221.89,69.05c.17-.91.38-1.84.62-2.77L259,76.73c-.24.93-.45,1.86-.62,2.77" transform="translate(0)"/><path class="cls-7" d="M259,76.73,222.51,66.28c.22-.86.47-1.72.75-2.56l36.49,10.44c-.28.85-.53,1.71-.75,2.57" transform="translate(0)"/><path class="cls-2" d="M259.75,74.16,223.26,63.72c.26-.79.54-1.56.85-2.31l36.5,10.44c-.31.76-.6,1.53-.86,2.31" transform="translate(0)"/><path class="cls-8" d="M260.61,71.85l-36.5-10.44c.3-.72.61-1.42.95-2.09l36.49,10.44c-.33.68-.65,1.38-.94,2.09" transform="translate(0)"/><path class="cls-9" d="M261.55,69.76,225.06,59.32a21.7,21.7,0,0,1,1.15-2L262.7,67.74c-.41.64-.79,1.32-1.15,2" transform="translate(0)"/><path class="cls-10" d="M262.7,67.74,226.21,57.3a11.71,11.71,0,0,1,4.69-4.51l36.49,10.45a11.75,11.75,0,0,0-4.69,4.5" transform="translate(0)"/><path class="cls-9" d="M267.39,63.24,230.9,52.79a7.35,7.35,0,0,1,1.11-.4l.06,0,36.49,10.45-.06,0a6.4,6.4,0,0,0-1.11.4" transform="translate(0)"/><path class="cls-8" d="M268.56,62.82,232.07,52.37a7.05,7.05,0,0,1,.81-.15l36.5,10.45a5.51,5.51,0,0,0-.82.15" transform="translate(0)"/><path class="cls-2" d="M269.38,62.67l-36.5-10.45a4.64,4.64,0,0,1,.52,0l36.5,10.45a3,3,0,0,0-.52,0" transform="translate(0)"/><path class="cls-7" d="M269.9,62.66,233.4,52.21l.37,0,36.5,10.45-.37-.05" transform="translate(0)"/><path class="cls-6" d="M270.27,62.71l-36.5-10.45.13,0,36.5,10.44-.13,0" transform="translate(0)"/></g></g></g><g class="cls-4"><g class="cls-32"><g class="cls-4"><path class="cls-9" d="M256.61,66.31l-36.5-10.45h0L256.63,66.3h0" transform="translate(0)"/><path class="cls-8" d="M256.63,66.3,220.14,55.85l.35-.06L257,66.24l-.35.06" transform="translate(0)"/><path class="cls-2" d="M257,66.24,220.49,55.79h.29l36.49,10.45H257" transform="translate(0)"/><path class="cls-7" d="M257.27,66.23,220.78,55.78l.25,0,36.49,10.45-.25,0" transform="translate(0)"/><path class="cls-6" d="M257.52,66.27,221,55.82l.1,0,36.49,10.45-.1,0" transform="translate(0)"/></g></g></g><g class="cls-4"><g class="cls-33"><g class="cls-4"><path class="cls-16" d="M255.55,74.6,219.06,64.16c-1.16-.34-.58-2.89-1.28-3.1l36.49,10.45c.7.2.12,2.76,1.28,3.09" transform="translate(0)"/></g></g></g><g class="cls-4"><g class="cls-34"><g class="cls-4"><path class="cls-10" d="M251.71,71,215.22,60.59c1.28-1.82,2.66-3.76,4.31-4.52L256,66.52c-1.64.75-3,2.69-4.31,4.52" transform="translate(0)"/><path class="cls-9" d="M256,66.52,219.53,56.07a3.1,3.1,0,0,1,.58-.21l36.5,10.45a3.19,3.19,0,0,0-.59.21" transform="translate(0)"/></g></g></g><polygon class="cls-14" points="241.59 97.96 205.1 87.52 206.22 81.08 242.71 91.52 241.59 97.96"/><polygon class="cls-14" points="243.39 87.59 206.9 77.14 210.13 58.53 246.62 68.98 243.39 87.59"/><polygon class="cls-13" points="246.62 68.98 210.13 58.53 215.84 57 252.33 67.45 246.62 68.98"/><g class="cls-4"><g class="cls-35"><g class="cls-4"><path class="cls-6" d="M234.76,95.18l-36.5-10.45.1,0L234.85,95.2l-.09,0" transform="translate(0)"/><path class="cls-7" d="M234.85,95.2,198.36,84.76a2.06,2.06,0,0,0,.26,0l36.49,10.45-.26,0" transform="translate(0)"/><path class="cls-2" d="M235.11,95.24,198.62,84.79a2.32,2.32,0,0,0,.37,0l36.5,10.45a2.47,2.47,0,0,1-.38,0" transform="translate(0)"/><path class="cls-8" d="M235.49,95.23,199,84.78a4.65,4.65,0,0,0,.68-.12L236.16,95.1a3.74,3.74,0,0,1-.67.13" transform="translate(0)"/><path class="cls-9" d="M236.16,95.1,199.67,84.66l.05,0a7.53,7.53,0,0,0,1.07-.38l36.49,10.45a7.4,7.4,0,0,1-1.06.38h-.06" transform="translate(0)"/><path class="cls-10" d="M237.28,94.71,200.79,84.26a11.73,11.73,0,0,0,4.68-4.7L242,90a11.79,11.79,0,0,1-4.68,4.7" transform="translate(0)"/><path class="cls-9" d="M242,90,205.47,79.56c.48-.75.95-1.56,1.43-2.42l36.49,10.45c-.47.85-.95,1.67-1.43,2.42" transform="translate(0)"/></g></g></g><g class="cls-4"><g class="cls-36"><g class="cls-4"><path class="cls-9" d="M234,86.17,197.55,75.72a2.87,2.87,0,0,0,.37-.15L234.41,86a2.39,2.39,0,0,1-.37.15" transform="translate(0)"/><path class="cls-10" d="M234.41,86,197.92,75.57a8.56,8.56,0,0,0,3.34-3.22l36.49,10.44A8.45,8.45,0,0,1,234.41,86" transform="translate(0)"/><path class="cls-9" d="M237.75,82.79,201.26,72.35a12.58,12.58,0,0,0,.7-1.25l36.5,10.45c-.22.43-.46.85-.71,1.24" transform="translate(0)"/><path class="cls-8" d="M238.46,81.55,202,71.1c.18-.35.35-.72.5-1.09L239,80.46c-.15.37-.32.74-.49,1.09" transform="translate(0)"/><path class="cls-2" d="M239,80.46,202.46,70c.14-.33.26-.67.38-1l36.49,10.45c-.11.34-.24.69-.38,1" transform="translate(0)"/><path class="cls-7" d="M239.33,79.44,202.84,69c.11-.32.2-.65.29-1l36.49,10.45c-.09.33-.18.66-.29,1" transform="translate(0)"/><path class="cls-6" d="M239.62,78.46,203.13,68c.08-.31.15-.63.21-1L239.83,77.5q-.09.5-.21,1" transform="translate(0)"/><path class="cls-11" d="M239.83,77.5,203.34,67.06c.06-.33.11-.65.15-1L240,76.54c0,.32-.08.64-.15,1" transform="translate(0)"/><path class="cls-18" d="M240,76.54,203.49,66.09c0-.34.07-.68.08-1l36.49,10.45c0,.34,0,.68-.08,1" transform="translate(0)"/><path class="cls-17" d="M240.06,75.52,203.57,65.07V65a6.61,6.61,0,0,0,0-.78l36.5,10.45c0,.23,0,.49,0,.78v.09" transform="translate(0)"/><path class="cls-16" d="M240.06,74.65,203.56,64.2c0-.7-.2-1.15-.55-1.25L239.5,73.4c.35.1.51.55.56,1.25" transform="translate(0)"/></g></g></g><g class="cls-4"><g class="cls-37"><g class="cls-4"><path class="cls-16" d="M230.67,100.55,194.18,90.1c-1.37-.4-2.35-1.57-2.79-3.71l36.49,10.45c.44,2.13,1.42,3.31,2.79,3.71" transform="translate(0)"/></g></g></g><g class="cls-4"><g class="cls-38"><g class="cls-4"><path class="cls-17" d="M227.62,93.51,191.13,83.06V82.8c0-.06,0-.13,0-.2l36.49,10.45a1.34,1.34,0,0,1,0,.2,2.26,2.26,0,0,1,0,.26" transform="translate(0)"/><path class="cls-18" d="M227.63,93.05,191.14,82.6c0-.78.1-1.67.21-2.63l36.49,10.44c-.11,1-.18,1.86-.21,2.64" transform="translate(0)"/><path class="cls-11" d="M227.84,90.41,191.35,80c.11-1,.27-2,.47-3l36.49,10.45c-.2,1.06-.35,2.08-.47,3" transform="translate(0)"/><path class="cls-6" d="M228.31,87.39,191.82,76.94c.18-.93.39-1.9.64-2.88L229,84.51c-.26,1-.47,1.94-.65,2.88" transform="translate(0)"/><path class="cls-7" d="M229,84.51l-36.5-10.45c.22-.84.47-1.69.75-2.53L229.7,82c-.28.84-.53,1.69-.74,2.53" transform="translate(0)"/><path class="cls-2" d="M229.7,82,193.21,71.53c.24-.75.52-1.49.81-2.22l36.5,10.45c-.3.72-.57,1.47-.82,2.22" transform="translate(0)"/><path class="cls-8" d="M230.52,79.76,194,69.31c.28-.69.59-1.36.92-2l36.49,10.45c-.33.65-.63,1.32-.91,2" transform="translate(0)"/><path class="cls-9" d="M231.43,77.75,194.94,67.3a22.2,22.2,0,0,1,1.11-2l36.5,10.45a19.74,19.74,0,0,0-1.12,2" transform="translate(0)"/><path class="cls-10" d="M232.55,75.78l-36.5-10.45a12.42,12.42,0,0,1,5-4.74L237.57,71a12.23,12.23,0,0,0-5,4.74" transform="translate(0)"/><path class="cls-9" d="M237.57,71l-36.5-10.45a9.06,9.06,0,0,1,1.35-.49l.07,0L239,70.53l-.07,0a8,8,0,0,0-1.34.49" transform="translate(0)"/><path class="cls-8" d="M239,70.53,202.49,60.08a6.4,6.4,0,0,1,1-.17L240,70.36a5.36,5.36,0,0,0-1,.17" transform="translate(0)"/><path class="cls-2" d="M240,70.36,203.46,59.91a4.42,4.42,0,0,1,.62,0l36.49,10.45a3.29,3.29,0,0,0-.62,0" transform="translate(0)"/><path class="cls-7" d="M240.57,70.34,204.08,59.89a3.31,3.31,0,0,1,.47.07L241,70.41a2.31,2.31,0,0,0-.47-.07" transform="translate(0)"/><path class="cls-6" d="M241,70.41,204.55,60l.16,0L241.2,70.45l-.16,0" transform="translate(0)"/></g></g></g><g class="cls-4"><g class="cls-39"><g class="cls-4"><path class="cls-6" d="M223.56,97.57,187.07,87.13h.06l36.49,10.45-.06,0" transform="translate(0)"/><path class="cls-7" d="M223.62,97.59,187.13,87.14l.16,0,36.49,10.45-.16,0" transform="translate(0)"/><path class="cls-2" d="M223.78,97.61,187.29,87.16a1.76,1.76,0,0,0,.23,0L224,97.6h-.23" transform="translate(0)"/><path class="cls-8" d="M224,97.6,187.52,87.16c.13,0,.27,0,.43-.08l36.49,10.44a2.65,2.65,0,0,1-.43.08" transform="translate(0)"/><path class="cls-9" d="M224.44,97.52,188,87.08h0a2.19,2.19,0,0,0,.33-.12L224.8,97.4a2.19,2.19,0,0,1-.33.12h0" transform="translate(0)"/><path class="cls-10" d="M224.8,97.4,188.31,87a4.62,4.62,0,0,0,1.79-1.77l36.49,10.45a4.62,4.62,0,0,1-1.79,1.77" transform="translate(0)"/><path class="cls-9" d="M226.59,95.63,190.1,85.18c.17-.27.33-.55.48-.85l36.49,10.44a8.75,8.75,0,0,1-.48.86" transform="translate(0)"/><path class="cls-8" d="M227.07,94.77,190.58,84.33c.14-.28.27-.56.39-.86l36.49,10.44c-.12.3-.25.59-.39.86" transform="translate(0)"/><path class="cls-2" d="M227.46,93.91,191,83.47c.06-.14.11-.27.16-.41l36.49,10.45c-.05.14-.1.27-.16.4" transform="translate(0)"/></g></g></g><polygon class="cls-13" points="226.53 74.36 190.04 63.92 192.42 63.28 228.91 73.73 226.53 74.36"/><g class="cls-4"><g class="cls-40"><g class="cls-4"><path class="cls-16" d="M219.48,103.79,183,93.34c-1.24-.36-2.11-1.66-2.28-4.18L217.2,99.61c.17,2.52,1,3.82,2.28,4.18" transform="translate(0)"/><path class="cls-17" d="M217.2,99.61,180.71,89.16c0-.43,0-.9,0-1.41a.71.71,0,0,1,0-.14l36.49,10.45a.66.66,0,0,1,0,.14c0,.51,0,1,0,1.41" transform="translate(0)"/><path class="cls-18" d="M217.19,98.06,180.7,87.61c0-.22,0-.45,0-.69l36.5,10.44c0,.24,0,.47,0,.7" transform="translate(0)"/></g></g></g><polygon class="cls-14" points="217.6 94.49 181.11 84.05 183.96 67.75 220.45 78.2 217.6 94.49"/><g class="cls-4"><g class="cls-41"><g class="cls-4"><path class="cls-10" d="M214.67,98,178.18,87.59a36,36,0,0,0,2.93-3.54l36.5,10.44A37.42,37.42,0,0,1,214.67,98" transform="translate(0)"/></g></g></g><polygon class="cls-14" points="220.84 75.89 184.34 65.44 185.76 57.43 222.25 67.88 220.84 75.89"/><polygon class="cls-30" points="222.25 67.88 185.76 57.43 191.66 54.74 228.15 65.19 222.25 67.88"/><polygon class="cls-13" points="219.53 76.24 183.03 65.79 184.34 65.44 220.84 75.89 219.53 76.24"/><polygon class="cls-14" points="219.14 78.55 182.65 68.1 183.03 65.79 219.53 76.24 219.14 78.55"/><g class="cls-4"><g class="cls-42"><g class="cls-4"><path class="cls-6" d="M204.41,103.63l-36.5-10.45.09,0,36.49,10.45-.08,0" transform="translate(0)"/><path class="cls-7" d="M204.49,103.65,168,93.2l.24,0,36.49,10.44a1,1,0,0,1-.24,0" transform="translate(0)"/><path class="cls-2" d="M204.73,103.68,168.24,93.24h.31L205,103.68h-.31" transform="translate(0)"/><path class="cls-8" d="M205,103.68,168.55,93.23a2.27,2.27,0,0,0,.47-.09l36.49,10.45-.47.09" transform="translate(0)"/><path class="cls-9" d="M205.51,103.59,169,93.14h0l36.5,10.45h0" transform="translate(0)"/></g></g></g><g class="cls-4"><g class="cls-43"><g class="cls-4"><path class="cls-9" d="M205.55,103.58l-36.5-10.45a3.72,3.72,0,0,0,.64-.22l36.49,10.44a4,4,0,0,1-.63.23" transform="translate(0)"/><path class="cls-10" d="M206.18,103.35,169.69,92.91a4.36,4.36,0,0,0,1.86-1.67L208,101.69a4.34,4.34,0,0,1-1.86,1.66" transform="translate(0)"/><path class="cls-9" d="M208,101.69,171.55,91.24c.1-.15.19-.32.28-.49l36.5,10.44a4.7,4.7,0,0,1-.29.5" transform="translate(0)"/><path class="cls-8" d="M208.33,101.19l-36.5-10.44.21-.45,36.49,10.45c-.07.15-.13.3-.2.44" transform="translate(0)"/><path class="cls-2" d="M208.53,100.75,172,90.3c.06-.14.11-.3.16-.45l36.5,10.44c-.06.16-.11.31-.17.46" transform="translate(0)"/><path class="cls-7" d="M208.7,100.29,172.2,89.85c.06-.16.1-.33.15-.5L208.84,99.8c0,.17-.09.34-.14.49" transform="translate(0)"/><path class="cls-6" d="M208.84,99.8,172.35,89.35c.05-.18.09-.37.13-.56L209,99.23c0,.2-.08.39-.13.57" transform="translate(0)"/><path class="cls-11" d="M209,99.23,172.48,88.79c0-.23.07-.46.1-.7l36.49,10.45c0,.24-.06.47-.1.69" transform="translate(0)"/><path class="cls-18" d="M209.07,98.54,172.58,88.09c0-.31.06-.63.07-1l36.5,10.45c0,.33,0,.65-.08,1" transform="translate(0)"/><path class="cls-17" d="M209.15,97.58l-36.5-10.45V87c.08-2.9-.22-4.53-.37-13l36.5,10.45c.14,8.47.45,10.1.36,13v.1" transform="translate(0)"/></g></g></g><g class="cls-4"><g class="cls-44"><g class="cls-4"><path class="cls-16" d="M203.71,100.79l-36.5-10.45a.7.7,0,0,1-.46-.46l36.5,10.45a.68.68,0,0,0,.46.46" transform="translate(0)"/></g></g></g><polygon class="cls-30" points="208.73 78.53 172.24 68.08 178.13 65.39 214.62 75.84 208.73 78.53"/><g class="cls-4"><g class="cls-45"><g class="cls-4"><path class="cls-2" d="M203.37,96.32l-36.5-10.45c.68-1.73,1.29-3.43,1.85-5.13l36.49,10.45q-.84,2.53-1.84,5.13" transform="translate(0)"/><path class="cls-7" d="M205.21,91.19,168.72,80.74c1-2.94,1.79-5.83,2.53-8.69l36.49,10.44c-.74,2.87-1.56,5.76-2.53,8.7" transform="translate(0)"/><path class="cls-6" d="M207.74,82.49,171.25,72.05c.35-1.33.67-2.66,1-4l36.49,10.44c-.31,1.32-.64,2.64-1,4" transform="translate(0)"/></g></g></g><g class="cls-4"><g class="cls-46"><g class="cls-4"><path class="cls-16" d="M204.1,107.71,167.61,97.26c-1.73-.5-2.65-2.19-2.91-4.15l36.49,10.45c.26,2,1.18,3.65,2.91,4.15" transform="translate(0)"/></g></g></g><g class="cls-4"><g class="cls-47"><g class="cls-4"><path class="cls-11" d="M201.28,100.59l-36.5-10.45v0l36.49,10.44v0" transform="translate(0)"/><path class="cls-6" d="M201.28,100.56,164.79,90.12c0-.22.09-.44.14-.65l36.5,10.45c-.06.21-.11.42-.15.64" transform="translate(0)"/><path class="cls-7" d="M201.43,99.92l-36.5-10.45c.06-.21.12-.42.19-.62L201.61,99.3a6.32,6.32,0,0,0-.18.62" transform="translate(0)"/><path class="cls-2" d="M201.61,99.3,165.12,88.85c.07-.21.14-.41.22-.61l36.49,10.45c-.08.19-.15.4-.22.61" transform="translate(0)"/><path class="cls-8" d="M201.83,98.69,165.34,88.24c.09-.22.19-.43.29-.63l36.49,10.45c-.1.2-.2.41-.29.63" transform="translate(0)"/><path class="cls-9" d="M202.12,98.06,165.63,87.61c.12-.24.25-.47.38-.68l36.5,10.45a6.35,6.35,0,0,0-.39.68" transform="translate(0)"/><path class="cls-10" d="M202.51,97.38,166,86.93a5.72,5.72,0,0,1,.86-1.06l36.5,10.45a5,5,0,0,0-.86,1.06" transform="translate(0)"/></g></g></g><g class="cls-4"><g class="cls-48"><g class="cls-4"><path class="cls-6" d="M193.83,106.14,157.34,95.7l.1,0,36.49,10.45-.1,0" transform="translate(0)"/><path class="cls-7" d="M193.93,106.17,157.44,95.72l.26,0,36.49,10.44a1.09,1.09,0,0,1-.26,0" transform="translate(0)"/><path class="cls-2" d="M194.19,106.2,157.7,95.76h.37l36.49,10.44a1.54,1.54,0,0,1-.37,0" transform="translate(0)"/><path class="cls-8" d="M194.56,106.19,158.07,95.75a4.75,4.75,0,0,0,.68-.13l36.49,10.45a4.65,4.65,0,0,1-.68.12" transform="translate(0)"/><path class="cls-9" d="M195.24,106.07,158.75,95.62h.05a7.4,7.4,0,0,0,1.06-.38l36.49,10.44a5.74,5.74,0,0,1-1,.38l-.06,0" transform="translate(0)"/><path class="cls-10" d="M196.35,105.67,159.86,95.23a11.73,11.73,0,0,0,4.66-4.67L201,101a11.65,11.65,0,0,1-4.67,4.66" transform="translate(0)"/><path class="cls-9" d="M201,101l-36.5-10.45c.09-.14.18-.28.26-.42l36.5,10.45c-.09.14-.18.28-.26.42" transform="translate(0)"/></g></g></g><g class="cls-4"><g class="cls-49"><g class="cls-4"><path class="cls-9" d="M193.12,97.13,156.63,86.69l.36-.15L193.49,97a2.87,2.87,0,0,1-.37.15" transform="translate(0)"/><path class="cls-10" d="M193.49,97,157,86.54a8.61,8.61,0,0,0,3.35-3.23l36.49,10.45A8.49,8.49,0,0,1,193.49,97" transform="translate(0)"/><path class="cls-9" d="M196.83,93.76,160.34,83.31c.25-.39.48-.81.7-1.24l36.5,10.44c-.22.44-.46.85-.71,1.25" transform="translate(0)"/><path class="cls-8" d="M197.54,92.51,161,82.07c.18-.36.35-.72.5-1.09L198,91.42c-.15.38-.32.74-.49,1.09" transform="translate(0)"/><path class="cls-2" d="M198,91.42,161.54,81c.14-.34.26-.68.38-1L198.41,90.4c-.11.35-.24.69-.38,1" transform="translate(0)"/><path class="cls-7" d="M198.41,90.4,161.92,80c.1-.33.2-.65.29-1L198.7,89.43c-.09.33-.18.65-.29,1" transform="translate(0)"/><path class="cls-6" d="M198.7,89.43,162.21,79q.12-.48.21-1l36.49,10.45q-.09.48-.21,1" transform="translate(0)"/><path class="cls-11" d="M198.91,88.47,162.42,78c.06-.32.11-.64.15-1L199.06,87.5c0,.32-.09.65-.15,1" transform="translate(0)"/><path class="cls-18" d="M199.06,87.5,162.57,77.05c0-.34.07-.68.08-1l36.49,10.45c0,.33,0,.67-.08,1" transform="translate(0)"/><path class="cls-17" d="M199.14,86.49,162.65,76V76a6.58,6.58,0,0,0,0-.78l36.49,10.44a6.64,6.64,0,0,1,0,.78v.1" transform="translate(0)"/><path class="cls-16" d="M199.13,85.61,162.64,75.17c0-.7-.21-1.15-.55-1.25l36.49,10.45c.35.1.51.55.55,1.24" transform="translate(0)"/></g></g></g><g class="cls-4"><g class="cls-50"><g class="cls-4"><path class="cls-16" d="M189.75,111.51l-36.5-10.45c-1.7-.49-2.8-2.18-3-5.41l36.49,10.45c.21,3.23,1.31,4.92,3,5.41" transform="translate(0)"/><path class="cls-17" d="M186.73,106.1,150.24,95.65c0-.57-.05-1.2,0-1.88,0-.07,0-.14,0-.2L186.71,104a1.21,1.21,0,0,1,0,.19q0,1,0,1.89" transform="translate(0)"/><path class="cls-18" d="M186.71,104,150.22,93.57c0-.79.1-1.68.21-2.64l36.49,10.45c-.11,1-.18,1.85-.21,2.64" transform="translate(0)"/><path class="cls-11" d="M186.92,101.38,150.43,90.93c.11-1,.27-2,.47-3l36.49,10.44c-.2,1.06-.36,2.08-.47,3" transform="translate(0)"/><path class="cls-6" d="M187.39,98.35,150.9,87.91c.17-.94.39-1.91.64-2.88L188,95.48c-.25,1-.46,1.94-.64,2.87" transform="translate(0)"/><path class="cls-7" d="M188,95.48,151.54,85c.22-.84.47-1.69.74-2.53l36.5,10.44c-.28.84-.53,1.69-.75,2.54" transform="translate(0)"/><path class="cls-2" d="M188.78,92.94,152.28,82.5c.25-.75.52-1.5.82-2.23l36.49,10.45c-.29.73-.57,1.47-.81,2.22" transform="translate(0)"/><path class="cls-8" d="M189.59,90.72,153.1,80.27c.28-.68.59-1.35.91-2l36.5,10.44c-.33.65-.63,1.33-.92,2" transform="translate(0)"/><path class="cls-9" d="M190.51,88.71,154,78.27a21.94,21.94,0,0,1,1.12-2l36.49,10.44a22.2,22.2,0,0,0-1.11,2" transform="translate(0)"/><path class="cls-10" d="M191.62,86.74,155.13,76.3a12.44,12.44,0,0,1,5-4.75L196.65,82a12.38,12.38,0,0,0-5,4.74" transform="translate(0)"/><path class="cls-9" d="M196.65,82l-36.5-10.45a8.64,8.64,0,0,1,1.35-.48l.07,0L198.06,81.5H198a8.94,8.94,0,0,0-1.34.49" transform="translate(0)"/><path class="cls-8" d="M198.06,81.5,161.57,71.05a6.63,6.63,0,0,1,1-.18L199,81.32a6.5,6.5,0,0,0-1,.18" transform="translate(0)"/><path class="cls-2" d="M199,81.32l-36.5-10.45a4.48,4.48,0,0,1,.63,0l36.49,10.45a4.34,4.34,0,0,0-.62,0" transform="translate(0)"/><path class="cls-7" d="M199.65,81.31,163.16,70.86a3.2,3.2,0,0,1,.46.06l36.5,10.45a3.35,3.35,0,0,0-.47-.06" transform="translate(0)"/><path class="cls-6" d="M200.12,81.37l-36.5-10.45.17,0,36.49,10.45-.16,0" transform="translate(0)"/></g></g></g><polygon class="cls-13" points="188.68 70.97 152.18 60.52 154.8 59.82 191.29 70.26 188.68 70.97"/><polygon class="cls-51" points="182.22 92.32 145.73 81.87 152.18 60.52 188.68 70.97 182.22 92.32"/><polygon class="cls-14" points="173.42 116.23 136.93 105.78 140.05 87.92 176.54 98.37 173.42 116.23"/><g class="cls-4"><g class="cls-52"><g class="cls-4"><path class="cls-9" d="M177.79,73.61,141.3,63.16l.09,0,36.49,10.45-.09,0" transform="translate(0)"/><path class="cls-8" d="M177.88,73.58,141.39,63.13c.52-.13,1-.21,1.49-.29l36.49,10.45c-.48.08-1,.16-1.49.29" transform="translate(0)"/></g></g></g><polygon class="cls-53" points="176.54 98.37 140.05 87.92 136.87 68.04 173.37 78.49 176.54 98.37"/><g class="cls-4"><g class="cls-54"><g class="cls-4"><path class="cls-16" d="M165.27,96.2l-36.5-10.45c-1.05-.3-1.66-1.28-1.79-3.18L163.47,93c.13,1.9.74,2.88,1.8,3.18" transform="translate(0)"/><path class="cls-17" d="M163.47,93,127,82.57c0-.36,0-.77,0-1.2v-.09l36.49,10.45v.08a12,12,0,0,0,0,1.21" transform="translate(0)"/><path class="cls-18" d="M163.46,91.73,127,81.28c0-.32,0-.64.07-1l36.49,10.45c0,.32-.06.65-.07,1" transform="translate(0)"/><path class="cls-11" d="M163.53,90.76,127,80.31c0-.31.09-.63.15-1l36.49,10.45c-.06.32-.11.63-.15,1" transform="translate(0)"/><path class="cls-6" d="M163.68,89.81,127.19,79.36c.06-.32.13-.65.22-1L163.9,88.82c-.08.33-.16.66-.22,1" transform="translate(0)"/><path class="cls-7" d="M163.9,88.82,127.41,78.38c.09-.36.2-.72.32-1.08l36.49,10.45c-.12.36-.22.72-.32,1.07" transform="translate(0)"/><path class="cls-2" d="M164.22,87.75,127.73,77.3c.14-.41.29-.82.46-1.23l36.49,10.44c-.17.41-.32.83-.46,1.24" transform="translate(0)"/><path class="cls-8" d="M164.68,86.51,128.19,76.07c.2-.51.43-1,.68-1.5L165.37,85q-.37.75-.69,1.5" transform="translate(0)"/><path class="cls-9" d="M165.37,85l-36.5-10.44c.37-.72.77-1.43,1.21-2.12L166.57,82.9c-.44.69-.84,1.4-1.2,2.11" transform="translate(0)"/><path class="cls-10" d="M166.57,82.9,130.08,72.45a23.62,23.62,0,0,1,9.3-8.59l36.5,10.45a23.57,23.57,0,0,0-9.31,8.59" transform="translate(0)"/><path class="cls-9" d="M175.88,74.31l-36.5-10.45a12.09,12.09,0,0,1,1.92-.7l36.49,10.45a11.65,11.65,0,0,0-1.91.7" transform="translate(0)"/></g></g></g><g class="cls-4"><g class="cls-55"><g class="cls-4"><path class="cls-9" d="M211.81,34.58,175.32,24.14a4.79,4.79,0,0,0,.68-.24l36.5,10.45a5,5,0,0,1-.69.23" transform="translate(0)"/><path class="cls-10" d="M212.5,34.35,176,23.9a1.68,1.68,0,0,0,.63-.45L213.12,33.9a1.72,1.72,0,0,1-.62.45" transform="translate(0)"/></g></g></g><g class="cls-4"><g class="cls-56"><g class="cls-4"><path class="cls-6" d="M211.06,34.61l-36.5-10.44h.06l36.49,10.45-.05,0" transform="translate(0)"/><path class="cls-7" d="M211.11,34.63,174.62,24.18l.16,0,36.49,10.45-.16,0" transform="translate(0)"/><path class="cls-2" d="M211.27,34.65,174.78,24.2a1.47,1.47,0,0,0,.21,0l36.49,10.45h-.21" transform="translate(0)"/><path class="cls-8" d="M211.48,34.65,175,24.2l.31-.06,36.49,10.45-.31.06" transform="translate(0)"/><path class="cls-9" d="M211.79,34.59,175.3,24.14h0l36.49,10.44h0" transform="translate(0)"/></g></g></g><g class="cls-4"><g class="cls-57"><g class="cls-4"><path class="cls-16" d="M206.91,40.85,170.42,30.41c-1.39-.4-2-2-2.11-4l36.5,10.45c.12,1.94.72,3.56,2.1,4" transform="translate(0)"/><path class="cls-17" d="M204.81,36.9l-36.5-10.45c0-.42,0-.87,0-1.31V25l36.49,10.45v.1a11.56,11.56,0,0,0,0,1.32" transform="translate(0)"/><path class="cls-18" d="M204.79,35.48,168.3,25c0-.48.06-1,.13-1.58L204.92,33.9c-.07.57-.11,1.1-.13,1.58" transform="translate(0)"/><path class="cls-11" d="M204.92,33.9,168.43,23.45c.19-1.56.53-3.42.89-5.3L205.81,28.6c-.36,1.87-.7,3.74-.89,5.3" transform="translate(0)"/><path class="cls-6" d="M205.81,28.6,169.32,18.15l.24-1.27,36.49,10.45-.24,1.27" transform="translate(0)"/><path class="cls-11" d="M206.05,27.33,169.56,16.88c.33-1.77.65-3.49.82-4.91l36.49,10.45c-.17,1.42-.48,3.14-.82,4.91" transform="translate(0)"/><path class="cls-18" d="M206.87,22.42,170.38,12c.06-.52.1-1,.12-1.42L207,21c0,.43-.06.91-.12,1.43" transform="translate(0)"/><path class="cls-17" d="M207,21,170.5,10.55v-.1a6.64,6.64,0,0,0,0-.78L207,20.12a6.61,6.61,0,0,1,0,.78V21" transform="translate(0)"/><path class="cls-16" d="M207,20.12,170.49,9.67c-.06-1-.33-1.56-.8-1.69l36.49,10.45c.47.13.74.71.8,1.69" transform="translate(0)"/></g></g></g><g class="cls-4"><g class="cls-58"><g class="cls-4"><path class="cls-9" d="M203.69,17,167.19,6.58c.16-.28.32-.55.48-.79l36.49,10.45c-.16.24-.32.51-.47.79" transform="translate(0)"/><path class="cls-10" d="M204.16,16.24,167.67,5.79a8.11,8.11,0,0,1,3.39-3.26L207.55,13a8.22,8.22,0,0,0-3.39,3.26" transform="translate(0)"/><path class="cls-9" d="M207.55,13,171.06,2.53a5.69,5.69,0,0,1,.86-.31H172l36.5,10.45h-.06a5.69,5.69,0,0,0-.86.31" transform="translate(0)"/><path class="cls-8" d="M208.47,12.66,172,2.21a5.58,5.58,0,0,1,.76-.14l36.49,10.45a4.27,4.27,0,0,0-.75.14" transform="translate(0)"/><path class="cls-2" d="M209.22,12.52,172.73,2.07a5.28,5.28,0,0,1,.56,0l36.49,10.45a3.53,3.53,0,0,0-.56,0" transform="translate(0)"/><path class="cls-7" d="M209.78,12.51,173.29,2.06a3.47,3.47,0,0,1,.45.06l36.49,10.45a3.06,3.06,0,0,0-.45-.06" transform="translate(0)"/><path class="cls-6" d="M210.23,12.57,173.74,2.12l.17,0L210.4,12.61l-.17,0" transform="translate(0)"/></g></g></g><polygon class="cls-14" points="193.48 44.52 156.98 34.08 157.54 30.85 194.04 41.29 193.48 44.52"/><polygon class="cls-13" points="198.5 15.54 162.01 5.09 167.72 3.56 204.21 14.01 198.5 15.54"/><polygon class="cls-14" points="195.27 34.18 158.78 23.73 162.01 5.09 198.5 15.54 195.27 34.18"/><g class="cls-4"><g class="cls-59"><g class="cls-4"><path class="cls-6" d="M191.15,40.28,154.66,29.83l.06,0,36.49,10.44h-.06" transform="translate(0)"/><path class="cls-7" d="M191.21,40.29,154.72,29.85l.17,0,36.49,10.44-.17,0" transform="translate(0)"/><path class="cls-2" d="M191.38,40.31,154.89,29.87h.21l36.49,10.45h-.21" transform="translate(0)"/><path class="cls-8" d="M191.59,40.31,155.1,29.86a1.87,1.87,0,0,0,.3-.05l36.49,10.45-.3.05" transform="translate(0)"/><path class="cls-9" d="M191.89,40.26,155.4,29.81h0a1.33,1.33,0,0,0,.28-.1l36.49,10.45-.28.1h0" transform="translate(0)"/><path class="cls-10" d="M192.19,40.15,155.7,29.7a3.42,3.42,0,0,0,1.35-1.33l36.49,10.45a3.42,3.42,0,0,1-1.35,1.33" transform="translate(0)"/><path class="cls-9" d="M193.54,38.82,157.05,28.37c.14-.22.27-.46.4-.71l36.49,10.45c-.13.25-.26.49-.4.71" transform="translate(0)"/><path class="cls-8" d="M193.94,38.11,157.45,27.66c.13-.26.26-.54.38-.83l36.49,10.44c-.12.3-.25.58-.38.84" transform="translate(0)"/><path class="cls-2" d="M194.32,37.27,157.83,26.83c.13-.34.26-.69.38-1.06l36.5,10.45q-.18.56-.39,1.05" transform="translate(0)"/><path class="cls-7" d="M194.71,36.22l-36.5-10.45c.15-.44.29-.9.41-1.38l36.49,10.45c-.12.47-.26.94-.4,1.38" transform="translate(0)"/><path class="cls-6" d="M195.11,34.84,158.62,24.39c.06-.22.11-.44.16-.66l36.49,10.45c-.05.22-.1.44-.16.66" transform="translate(0)"/></g></g></g><g class="cls-4"><g class="cls-60"><g class="cls-4"><path class="cls-16" d="M187,46.19,150.55,35.74c-1.2-.35-1.94-1.64-2.09-3.85L185,42.33c.15,2.21.89,3.51,2.09,3.86" transform="translate(0)"/><path class="cls-17" d="M185,42.33,148.46,31.89c0-.09,0-.19,0-.28l36.49,10.45c0,.09,0,.18,0,.27" transform="translate(0)"/></g></g></g><polygon class="cls-14" points="185.06 36.89 148.56 26.44 150.84 13.35 187.33 23.79 185.06 36.89"/><polygon class="cls-14" points="187.76 21.35 151.27 10.91 151.79 7.83 188.28 18.28 187.76 21.35"/><polygon class="cls-13" points="188.28 18.28 151.79 7.83 157.5 6.3 193.99 16.75 188.28 18.28"/><g class="cls-4"><g class="cls-61"><g class="cls-4"><path class="cls-6" d="M180.81,42.73,144.32,32.28h.06l36.49,10.45h-.06" transform="translate(0)"/><path class="cls-7" d="M180.87,42.74,144.38,32.29l.14,0L181,42.76l-.14,0" transform="translate(0)"/><path class="cls-2" d="M181,42.76,144.52,32.31h.2l36.49,10.45a1.34,1.34,0,0,1-.2,0" transform="translate(0)"/><path class="cls-8" d="M181.21,42.76,144.72,32.31a2.29,2.29,0,0,0,.36-.07l36.49,10.45a2.09,2.09,0,0,1-.36.07" transform="translate(0)"/><path class="cls-9" d="M181.57,42.69,145.08,32.24h0l.26-.1,36.49,10.45a1.34,1.34,0,0,1-.26.09l-.05,0" transform="translate(0)"/><path class="cls-10" d="M181.88,42.58,145.39,32.13a4.71,4.71,0,0,0,1.72-1.72L183.6,40.86a4.56,4.56,0,0,1-1.72,1.72" transform="translate(0)"/><path class="cls-9" d="M183.6,40.86,147.11,30.41c.15-.23.29-.48.43-.75L184,40.1a7.62,7.62,0,0,1-.43.76" transform="translate(0)"/><path class="cls-8" d="M184,40.1,147.54,29.66c.11-.23.22-.46.32-.71l36.49,10.44c-.1.25-.21.49-.32.71" transform="translate(0)"/><path class="cls-2" d="M184.35,39.39,147.86,29c.09-.23.18-.47.26-.72l36.49,10.45a6.55,6.55,0,0,1-.26.71" transform="translate(0)"/><path class="cls-7" d="M184.61,38.68,148.12,28.23c.08-.23.15-.48.22-.74l36.49,10.45c-.06.26-.14.5-.22.74" transform="translate(0)"/><path class="cls-6" d="M184.83,37.94,148.34,27.49c.07-.26.13-.52.18-.8L185,37.14c0,.27-.11.54-.18.8" transform="translate(0)"/><path class="cls-11" d="M185,37.14,148.52,26.69a1.87,1.87,0,0,0,0-.25l36.5,10.45c0,.08,0,.16-.05.25" transform="translate(0)"/></g></g></g><g class="cls-4"><g class="cls-62"><g class="cls-4"><path class="cls-17" d="M187.33,23.79,150.84,13.34v-.21l36.49,10.45v.21" transform="translate(0)"/><path class="cls-16" d="M187.33,23.58,150.84,13.13c0-.55-.27-1.3-.89-1.48l36.49,10.44c.63.18.85.94.89,1.49" transform="translate(0)"/></g></g></g><g class="cls-4"><g class="cls-63"><g class="cls-4"><path class="cls-16" d="M176.87,48.8l-36.5-10.45c-1.21-.34-2.2-1.45-2.68-3.64l36.49,10.45c.48,2.19,1.48,3.29,2.69,3.64" transform="translate(0)"/></g></g></g><g class="cls-4"><g class="cls-64"><g class="cls-4"><path class="cls-17" d="M173.88,41.46,137.39,31c0-.08,0-.16,0-.24l36.49,10.45a1.93,1.93,0,0,1,0,.24" transform="translate(0)"/><path class="cls-18" d="M173.89,41.22,137.4,30.77c0-.85.1-1.76.21-2.7l36.5,10.45c-.11.94-.19,1.85-.22,2.7" transform="translate(0)"/><path class="cls-11" d="M174.11,38.52l-36.5-10.45c.11-.93.26-1.9.45-2.88l36.49,10.45c-.19,1-.33,2-.44,2.88" transform="translate(0)"/><path class="cls-6" d="M174.55,35.64,138.06,25.19c.17-.92.38-1.87.63-2.81l36.49,10.45c-.24.94-.45,1.88-.63,2.81" transform="translate(0)"/><path class="cls-7" d="M175.18,32.83,138.69,22.38c.22-.86.47-1.72.75-2.57l36.49,10.45c-.28.85-.53,1.71-.75,2.57" transform="translate(0)"/><path class="cls-2" d="M175.93,30.26,139.44,19.81c.26-.78.54-1.55.85-2.3L176.78,28c-.3.75-.59,1.52-.85,2.3" transform="translate(0)"/><path class="cls-8" d="M176.78,28,140.29,17.51c.29-.72.61-1.41.94-2.08l36.5,10.45c-.34.66-.65,1.36-.95,2.08" transform="translate(0)"/><path class="cls-9" d="M177.73,25.88l-36.5-10.45q.54-1.06,1.14-2l36.49,10.45a21.42,21.42,0,0,0-1.13,2" transform="translate(0)"/><path class="cls-10" d="M178.86,23.87,142.37,13.42A11.71,11.71,0,0,1,147,8.94l36.5,10.44a11.69,11.69,0,0,0-4.68,4.49" transform="translate(0)"/><path class="cls-9" d="M183.54,19.38,147,8.94a6.44,6.44,0,0,1,1.11-.41h.06L184.71,19l-.06,0a7.35,7.35,0,0,0-1.11.4" transform="translate(0)"/><path class="cls-8" d="M184.71,19,148.21,8.52a4.57,4.57,0,0,1,.83-.15l36.49,10.45a5.42,5.42,0,0,0-.82.14" transform="translate(0)"/><path class="cls-2" d="M185.53,18.82,149,8.37a3,3,0,0,1,.52,0L186.05,18.8a3.09,3.09,0,0,0-.52,0" transform="translate(0)"/><path class="cls-7" d="M186.05,18.8,149.56,8.36a1.5,1.5,0,0,1,.37.05l36.49,10.44-.37-.05" transform="translate(0)"/><path class="cls-6" d="M186.42,18.85,149.93,8.41l.13,0,36.49,10.45-.13,0" transform="translate(0)"/></g></g></g><g class="cls-4"><g class="cls-65"><g class="cls-4"><path class="cls-6" d="M170.21,45.56,133.72,35.11l.06,0,36.49,10.44h-.06" transform="translate(0)"/><path class="cls-7" d="M170.27,45.57,133.78,35.13l.16,0,36.49,10.44-.16,0" transform="translate(0)"/><path class="cls-2" d="M170.43,45.59,133.94,35.15h.2l36.5,10.45h-.21" transform="translate(0)"/><path class="cls-8" d="M170.64,45.59l-36.5-10.45a1.81,1.81,0,0,0,.31,0l36.49,10.44-.3.06" transform="translate(0)"/><path class="cls-9" d="M170.94,45.53,134.45,35.09h0a1.64,1.64,0,0,0,.39-.14l36.49,10.45a2.24,2.24,0,0,1-.39.14h0" transform="translate(0)"/><path class="cls-10" d="M171.35,45.39,134.86,34.94a3.21,3.21,0,0,0,1.37-1.3l36.5,10.45a3.28,3.28,0,0,1-1.38,1.3" transform="translate(0)"/><path class="cls-9" d="M172.73,44.09l-36.5-10.45a4.56,4.56,0,0,0,.35-.62l36.5,10.45c-.12.22-.23.43-.35.62" transform="translate(0)"/><path class="cls-8" d="M173.08,43.47,136.58,33c.13-.25.25-.51.37-.8l36.49,10.45c-.12.28-.24.55-.36.8" transform="translate(0)"/><path class="cls-2" d="M173.44,42.67,137,32.22c.15-.37.3-.78.44-1.21l36.49,10.45c-.14.43-.29.84-.44,1.21" transform="translate(0)"/></g></g></g><g class="cls-4"><g class="cls-66"><g class="cls-4"><path class="cls-16" d="M166.31,51.63,129.82,41.18c-1.54-.44-2.23-2.08-2.36-4L164,47.6c.13,1.95.81,3.59,2.35,4" transform="translate(0)"/><path class="cls-17" d="M164,47.6l-36.5-10.45c0-.35,0-.71,0-1.07V36l36.49,10.44v.11a9.51,9.51,0,0,0,0,1.07" transform="translate(0)"/><path class="cls-18" d="M163.94,46.42,127.45,36c0-.48.07-1,.13-1.58l36.49,10.44c-.06.57-.11,1.11-.13,1.58" transform="translate(0)"/><path class="cls-11" d="M164.07,44.84,127.58,34.4c.19-1.57.53-3.43.89-5.3L165,39.55c-.36,1.87-.7,3.73-.89,5.29" transform="translate(0)"/><path class="cls-6" d="M165,39.55,128.47,29.1l.24-1.27L165.2,38.28,165,39.55" transform="translate(0)"/><path class="cls-11" d="M165.2,38.28,128.71,27.83c.34-1.77.65-3.49.82-4.91L166,33.36c-.17,1.43-.48,3.15-.82,4.92" transform="translate(0)"/><path class="cls-18" d="M166,33.36,129.53,22.92c.06-.52.1-1,.12-1.43l36.49,10.45c0,.43-.06.91-.12,1.42" transform="translate(0)"/><path class="cls-17" d="M166.14,31.94,129.65,21.49V21.4a6.78,6.78,0,0,0,0-.79l36.49,10.44c0,.24,0,.51,0,.8v.09" transform="translate(0)"/><path class="cls-16" d="M166.13,31.05,129.64,20.61c-.06-1-.33-1.55-.8-1.69l36.5,10.45c.47.13.73.71.79,1.68" transform="translate(0)"/></g></g></g><g class="cls-4"><g class="cls-67"><g class="cls-4"><path class="cls-9" d="M162.76,28.1,126.27,17.66c.17-.3.33-.57.49-.83l36.5,10.45c-.17.25-.33.53-.5.82" transform="translate(0)"/><path class="cls-10" d="M163.26,27.28l-36.5-10.45a8.44,8.44,0,0,1,3.48-3.36l36.49,10.45a8.3,8.3,0,0,0-3.47,3.36" transform="translate(0)"/><path class="cls-9" d="M166.73,23.92,130.24,13.47a5.05,5.05,0,0,1,.84-.3l0,0L167.62,23.6h-.05a5.15,5.15,0,0,0-.84.31" transform="translate(0)"/><path class="cls-8" d="M167.62,23.6,131.13,13.15a5.5,5.5,0,0,1,.76-.13l36.49,10.45a4.32,4.32,0,0,0-.76.13" transform="translate(0)"/><path class="cls-2" d="M168.38,23.47,131.89,13a3.51,3.51,0,0,1,.56,0l36.49,10.44a3.54,3.54,0,0,0-.56,0" transform="translate(0)"/><path class="cls-7" d="M168.94,23.45,132.45,13a3.47,3.47,0,0,1,.45.06l36.49,10.45a2.22,2.22,0,0,0-.45-.07" transform="translate(0)"/><path class="cls-6" d="M169.39,23.52,132.9,13.07l.16,0,36.5,10.45-.17,0" transform="translate(0)"/></g></g></g><polygon class="cls-14" points="152.99 55.37 116.5 44.92 122.98 7.93 159.47 18.38 152.99 55.37"/><polygon class="cls-14" points="141.9 58.34 105.4 47.9 112.17 9.38 148.67 19.83 141.9 58.34"/><g class="cls-4"><g class="cls-68"><g class="cls-4"><path class="cls-16" d="M138.54,37.09,102.05,26.64c-1.06-.3-1.67-1.28-1.8-3.18l36.49,10.45c.13,1.9.75,2.88,1.8,3.18" transform="translate(0)"/><path class="cls-17" d="M136.74,33.91,100.25,23.46c0-.37,0-.77,0-1.2a.76.76,0,0,0,0-.15l36.49,10.45v.14a12,12,0,0,0,0,1.21" transform="translate(0)"/><path class="cls-18" d="M136.73,32.56,100.24,22.11c0-.53.06-1.07.12-1.61L136.86,31c-.07.54-.11,1.07-.13,1.61" transform="translate(0)"/><path class="cls-11" d="M136.86,31,100.36,20.5c.06-.47.13-.94.22-1.42l36.49,10.45c-.09.47-.16.95-.21,1.42" transform="translate(0)"/><path class="cls-6" d="M137.07,29.53,100.58,19.08c.09-.44.18-.88.3-1.32l36.49,10.45q-.17.66-.3,1.32" transform="translate(0)"/><path class="cls-7" d="M137.37,28.21,100.88,17.76c.11-.43.23-.85.37-1.28l36.5,10.45c-.14.42-.27.85-.38,1.28" transform="translate(0)"/><path class="cls-2" d="M137.75,26.93l-36.5-10.45c.15-.44.31-.87.49-1.3l36.49,10.45c-.18.43-.34.86-.48,1.3" transform="translate(0)"/><path class="cls-8" d="M138.23,25.63,101.74,15.18c.19-.47.4-.94.64-1.4l36.49,10.45a14.69,14.69,0,0,0-.64,1.4" transform="translate(0)"/><path class="cls-9" d="M138.87,24.23,102.38,13.78a17.56,17.56,0,0,1,1-1.68l36.49,10.45c-.35.55-.66,1.11-.95,1.68" transform="translate(0)"/><path class="cls-10" d="M139.82,22.55,103.33,12.1a18.41,18.41,0,0,1,7.92-6.86l36.5,10.45a18.39,18.39,0,0,0-7.93,6.86" transform="translate(0)"/><path class="cls-9" d="M147.75,15.69,111.25,5.24A20.78,20.78,0,0,1,114.61,4h0l36.49,10.44,0,0a20.33,20.33,0,0,0-3.35,1.2" transform="translate(0)"/><path class="cls-8" d="M151.14,14.47,114.65,4a12.49,12.49,0,0,1,1.83-.27L153,14.21a14.19,14.19,0,0,0-1.84.26" transform="translate(0)"/><path class="cls-2" d="M153,14.21,116.48,3.76c1-.09,2.2-.17,3.48-.29l36.5,10.45c-1.29.12-2.49.2-3.48.29" transform="translate(0)"/><path class="cls-8" d="M156.46,13.92,120,3.47a31.84,31.84,0,0,0,5.12-.81l36.49,10.45a32.87,32.87,0,0,1-5.11.81" transform="translate(0)"/><path class="cls-9" d="M161.57,13.11,125.08,2.66l.18,0a15.16,15.16,0,0,0,2.27-.8L164,12.27a14.1,14.1,0,0,1-2.27.79l-.18,0" transform="translate(0)"/><path class="cls-10" d="M164,12.27,127.53,1.82A7.43,7.43,0,0,0,130.1,0l36.49,10.45A7.71,7.71,0,0,1,164,12.27" transform="translate(0)"/></g></g></g><g class="cls-4"><g class="cls-69"><g class="cls-4"><path class="cls-9" d="M125.69,35.05,89.2,24.6h0l36.49,10.45h0" transform="translate(0)"/><path class="cls-8" d="M125.71,35.05,89.22,24.6l.35-.07L126.07,35a1.63,1.63,0,0,0-.36.07" transform="translate(0)"/><path class="cls-2" d="M126.07,35,89.57,24.53a2.8,2.8,0,0,1,.29,0L126.35,35h-.28" transform="translate(0)"/><path class="cls-7" d="M126.35,35,89.86,24.53a1.9,1.9,0,0,1,.25,0L126.61,35a1.15,1.15,0,0,0-.26,0" transform="translate(0)"/><path class="cls-6" d="M126.61,35,90.11,24.56l.1,0L126.7,35l-.09,0" transform="translate(0)"/></g></g></g><g class="cls-4"><g class="cls-70"><g class="cls-4"><path class="cls-16" d="M124.64,43.36,88.15,32.91c-1.16-.33-.58-2.89-1.28-3.09l36.49,10.45c.7.2.12,2.75,1.28,3.09" transform="translate(0)"/></g></g></g><g class="cls-4"><g class="cls-71"><g class="cls-4"><path class="cls-10" d="M120.79,39.79,84.3,29.35c1.29-1.83,2.68-3.78,4.32-4.53l36.49,10.44c-1.64.76-3,2.71-4.32,4.53" transform="translate(0)"/><path class="cls-9" d="M125.11,35.26,88.62,24.82a4.07,4.07,0,0,1,.58-.22l36.49,10.45a4.5,4.5,0,0,0-.58.21" transform="translate(0)"/></g></g></g><polygon class="cls-14" points="110.68 66.71 74.19 56.26 75.31 49.82 111.8 60.27 110.68 66.71"/><polygon class="cls-14" points="112.48 56.34 75.99 45.89 79.22 27.28 115.71 37.73 112.48 56.34"/><polygon class="cls-13" points="115.71 37.73 79.22 27.28 84.92 25.75 121.41 36.2 115.71 37.73"/><g class="cls-4"><g class="cls-72"><g class="cls-4"><path class="cls-6" d="M103.84,63.93,67.35,53.49l.09,0L103.94,64l-.1,0" transform="translate(0)"/><path class="cls-7" d="M103.94,64,67.44,53.51a1.24,1.24,0,0,0,.27,0L104.2,64a1.09,1.09,0,0,1-.26,0" transform="translate(0)"/><path class="cls-2" d="M104.2,64,67.71,53.54h.37L104.57,64a1.54,1.54,0,0,1-.37,0" transform="translate(0)"/><path class="cls-8" d="M104.57,64,68.08,53.54a5,5,0,0,0,.68-.13l36.49,10.45a4.65,4.65,0,0,1-.68.12" transform="translate(0)"/><path class="cls-9" d="M105.25,63.86,68.76,53.41h0A6.39,6.39,0,0,0,69.87,53l36.5,10.45a6.47,6.47,0,0,1-1.07.38l0,0" transform="translate(0)"/><path class="cls-10" d="M106.37,63.46,69.87,53a11.75,11.75,0,0,0,4.69-4.7l36.49,10.45a11.79,11.79,0,0,1-4.68,4.7" transform="translate(0)"/><path class="cls-9" d="M111.05,58.76,74.56,48.31c.48-.75,1-1.57,1.43-2.42l36.49,10.45c-.47.85-1,1.66-1.43,2.42" transform="translate(0)"/></g></g></g><g class="cls-4"><g class="cls-73"><g class="cls-4"><path class="cls-9" d="M103.14,54.91,66.64,44.46l.37-.14L103.5,54.76a2.75,2.75,0,0,1-.36.15" transform="translate(0)"/><path class="cls-10" d="M103.5,54.76,67,44.32a8.59,8.59,0,0,0,3.34-3.23l36.49,10.45a8.49,8.49,0,0,1-3.34,3.22" transform="translate(0)"/><path class="cls-9" d="M106.84,51.54,70.35,41.09c.25-.39.48-.81.7-1.24L107.54,50.3a12.41,12.41,0,0,1-.7,1.24" transform="translate(0)"/><path class="cls-8" d="M107.54,50.3,71.05,39.85c.18-.35.35-.72.5-1.09L108,49.21c-.15.37-.32.73-.5,1.09" transform="translate(0)"/><path class="cls-2" d="M108,49.21,71.55,38.76c.14-.33.26-.67.38-1l36.49,10.45c-.12.34-.24.68-.38,1" transform="translate(0)"/><path class="cls-7" d="M108.42,48.19,71.93,37.74c.1-.32.2-.65.28-1l36.5,10.44c-.09.33-.19.66-.29,1" transform="translate(0)"/><path class="cls-6" d="M108.71,47.21,72.21,36.77c.08-.32.16-.64.22-1l36.49,10.45c-.06.32-.13.64-.21,1" transform="translate(0)"/><path class="cls-11" d="M108.92,46.26,72.43,35.81c.06-.32.11-.64.15-1l36.49,10.45c0,.32-.09.65-.15,1" transform="translate(0)"/><path class="cls-18" d="M109.07,45.29,72.58,34.84c0-.34.06-.68.08-1l36.49,10.44c0,.34,0,.68-.08,1" transform="translate(0)"/><path class="cls-17" d="M109.15,44.27,72.66,33.83v-.09a6.75,6.75,0,0,0,0-.79l36.49,10.44a6.78,6.78,0,0,1,0,.79v.09" transform="translate(0)"/><path class="cls-16" d="M109.14,43.39,72.65,33c-.05-.7-.21-1.14-.55-1.24l36.49,10.45c.35.09.51.54.55,1.23" transform="translate(0)"/></g></g></g><g class="cls-4"><g class="cls-74"><g class="cls-4"><path class="cls-16" d="M99.77,69.3,63.27,58.85c-1.37-.4-2.35-1.57-2.79-3.7L97,65.6c.44,2.12,1.42,3.3,2.8,3.7" transform="translate(0)"/></g></g></g><g class="cls-4"><g class="cls-75"><g class="cls-4"><path class="cls-17" d="M96.72,62.25,60.22,51.8v-.25a1.41,1.41,0,0,0,0-.2L96.72,61.79V62a1.13,1.13,0,0,0,0,.26" transform="translate(0)"/><path class="cls-18" d="M96.72,61.79,60.23,51.35c0-.79.1-1.68.21-2.65l36.5,10.45c-.12,1-.19,1.86-.22,2.64" transform="translate(0)"/><path class="cls-11" d="M96.94,59.15,60.44,48.7c.12-1,.27-2,.47-3L97.4,56.12c-.2,1.06-.35,2.08-.46,3" transform="translate(0)"/><path class="cls-6" d="M97.4,56.12,60.91,45.68c.18-.94.39-1.91.65-2.88L98.05,53.24c-.25,1-.47,1.95-.65,2.88" transform="translate(0)"/><path class="cls-7" d="M98.05,53.24,61.56,42.8c.21-.85.46-1.69.74-2.53L98.79,50.71c-.28.84-.52,1.69-.74,2.53" transform="translate(0)"/><path class="cls-2" d="M98.79,50.71,62.3,40.27c.25-.75.52-1.5.82-2.22L99.61,48.49c-.3.73-.57,1.47-.82,2.22" transform="translate(0)"/><path class="cls-8" d="M99.61,48.49,63.12,38.05c.28-.69.58-1.36.91-2l36.49,10.45c-.33.65-.63,1.32-.91,2" transform="translate(0)"/><path class="cls-9" d="M100.52,46.49,64,36a22.2,22.2,0,0,1,1.11-2l36.49,10.45a21.88,21.88,0,0,0-1.11,2" transform="translate(0)"/><path class="cls-10" d="M101.63,44.52,65.14,34.07a12.33,12.33,0,0,1,5-4.73l36.49,10.44a12.42,12.42,0,0,0-5,4.74" transform="translate(0)"/><path class="cls-9" d="M106.65,39.78,70.16,29.34a7.75,7.75,0,0,1,1.35-.49l.06,0,36.5,10.45H108a8.67,8.67,0,0,0-1.35.49" transform="translate(0)"/><path class="cls-8" d="M108.07,39.28,71.57,28.83a6.5,6.5,0,0,1,1-.18L109,39.1a6.39,6.39,0,0,0-1,.18" transform="translate(0)"/><path class="cls-2" d="M109,39.1,72.54,28.65a4.34,4.34,0,0,1,.62,0l36.5,10.45a4.46,4.46,0,0,0-.63,0" transform="translate(0)"/><path class="cls-7" d="M109.66,39.09,73.16,28.64a3.35,3.35,0,0,1,.47.06l36.49,10.45a3.2,3.2,0,0,0-.46-.06" transform="translate(0)"/><path class="cls-6" d="M110.12,39.15,73.63,28.7l.16,0,36.5,10.45-.17,0" transform="translate(0)"/></g></g></g><g class="cls-4"><g class="cls-76"><g class="cls-4"><path class="cls-6" d="M92.65,66.33,56.16,55.88h.05l36.5,10.45h-.06" transform="translate(0)"/><path class="cls-7" d="M92.71,66.34,56.21,55.89l.17,0L92.87,66.36l-.16,0" transform="translate(0)"/><path class="cls-2" d="M92.87,66.36,56.38,55.91a.88.88,0,0,0,.23,0L93.1,66.36a1.76,1.76,0,0,1-.23,0" transform="translate(0)"/><path class="cls-8" d="M93.1,66.36,56.61,55.91a2.37,2.37,0,0,0,.42-.08L93.52,66.28a3.83,3.83,0,0,1-.42.08" transform="translate(0)"/><path class="cls-9" d="M93.52,66.28,57,55.83h0l.33-.12L93.89,66.15a2.19,2.19,0,0,1-.33.12h0" transform="translate(0)"/><path class="cls-10" d="M93.89,66.15,57.4,55.7a4.64,4.64,0,0,0,1.78-1.76l36.5,10.44a4.62,4.62,0,0,1-1.79,1.77" transform="translate(0)"/><path class="cls-9" d="M95.68,64.38,59.18,53.94c.17-.27.34-.56.49-.86L96.16,63.53a8.57,8.57,0,0,1-.48.85" transform="translate(0)"/><path class="cls-8" d="M96.16,63.53,59.67,53.08c.14-.28.27-.57.4-.87L96.56,62.65c-.13.31-.26.6-.4.88" transform="translate(0)"/><path class="cls-2" d="M96.56,62.65,60.07,52.21l.15-.41,36.5,10.45c-.06.14-.11.27-.16.4" transform="translate(0)"/></g></g></g><polygon class="cls-13" points="95.63 43.11 59.13 32.66 61.51 32.02 98 42.47 95.63 43.11"/><g class="cls-4"><g class="cls-77"><g class="cls-4"><path class="cls-16" d="M88.57,72.54,52.08,62.09c-1.2-.34-2-1.58-2.26-3.92L86.31,68.61c.21,2.35,1.06,3.58,2.26,3.93" transform="translate(0)"/></g></g></g><polygon class="cls-14" points="86.7 63.24 50.2 52.8 53.04 36.5 89.54 46.95 86.7 63.24"/><g class="cls-4"><g class="cls-78"><g class="cls-4"><path class="cls-6" d="M82.07,69.16,45.58,58.71l.06,0L82.13,69.17h-.06" transform="translate(0)"/><path class="cls-7" d="M82.13,69.17,45.64,58.73l.16,0L82.29,69.2a.76.76,0,0,1-.16,0" transform="translate(0)"/><path class="cls-2" d="M82.29,69.2,45.8,58.75H46L82.52,69.19h-.23" transform="translate(0)"/><path class="cls-8" d="M82.52,69.19,46,58.74a2.65,2.65,0,0,0,.43-.08L83,69.11a2.47,2.47,0,0,1-.43.08" transform="translate(0)"/><path class="cls-9" d="M83,69.11,46.46,58.66h0a2,2,0,0,0,.34-.13L83.32,69a2.19,2.19,0,0,1-.33.12h0" transform="translate(0)"/><path class="cls-10" d="M83.32,69,46.83,58.53a4.62,4.62,0,0,0,1.79-1.77L85.11,67.2A4.52,4.52,0,0,1,83.32,69" transform="translate(0)"/><path class="cls-9" d="M85.11,67.2,48.62,56.76c.17-.27.33-.55.49-.86L85.6,66.35c-.16.3-.32.59-.49.85" transform="translate(0)"/><path class="cls-8" d="M85.6,66.35,49.11,55.9c.13-.27.27-.56.39-.86L86,65.49c-.12.3-.25.59-.39.86" transform="translate(0)"/><path class="cls-2" d="M86,65.49,49.5,55q.18-.43.33-.9L86.32,64.59q-.15.47-.33.9" transform="translate(0)"/><path class="cls-7" d="M86.32,64.59,49.83,54.14c.1-.31.19-.62.28-.94L86.6,63.64c-.08.33-.18.64-.28,1" transform="translate(0)"/><path class="cls-6" d="M86.6,63.64,50.11,53.2l.09-.4L86.7,63.25c0,.13-.07.26-.1.39" transform="translate(0)"/></g></g></g><polygon class="cls-30" points="91.34 36.63 54.85 26.18 60.74 23.5 97.24 33.95 91.34 36.63"/><polygon class="cls-14" points="89.92 44.64 53.43 34.19 54.85 26.18 91.34 36.63 89.92 44.64"/><polygon class="cls-13" points="88.61 44.99 52.12 34.54 53.43 34.19 89.92 44.64 88.61 44.99"/><polygon class="cls-2" points="88.23 47.3 51.74 36.85 52.12 34.54 88.61 44.99 88.23 47.3"/><polygon class="cls-13" points="85.05 45.94 48.56 35.49 50.94 34.86 87.43 45.3 85.05 45.94"/><g class="cls-4"><g class="cls-79"><g class="cls-4"><path class="cls-16" d="M78,75.37,41.5,64.92c-1.24-.35-2.11-1.66-2.28-4.17L75.71,71.19c.17,2.52,1,3.83,2.28,4.18" transform="translate(0)"/><path class="cls-17" d="M75.71,71.19,39.22,60.75a13,13,0,0,1,0-1.41v0L75.69,69.77v0c0,.5,0,1,0,1.4" transform="translate(0)"/><path class="cls-18" d="M75.69,69.77,39.2,59.32c0-.09,0-.19,0-.29L75.71,69.48a2.83,2.83,0,0,0,0,.29" transform="translate(0)"/></g></g></g><polygon class="cls-14" points="76.12 66.08 39.63 55.63 42.47 39.34 78.96 49.78 76.12 66.08"/><polygon class="cls-14" points="79.34 47.47 42.85 37.02 44.27 29.02 80.77 39.47 79.34 47.47"/><polygon class="cls-30" points="80.77 39.47 44.27 29.02 50.16 26.33 86.66 36.78 80.77 39.47"/><polygon class="cls-13" points="78.04 47.82 41.55 37.37 42.85 37.02 79.34 47.47 78.04 47.82"/><polygon class="cls-2" points="77.65 50.14 41.16 39.69 41.55 37.37 78.04 47.82 77.65 50.14"/><g class="cls-4"><g class="cls-80"><g class="cls-4"><path class="cls-6" d="M67.48,73.68,31,63.23l.1,0L67.57,73.7l-.09,0" transform="translate(0)"/><path class="cls-7" d="M67.57,73.7,31.08,63.25l.26,0L67.83,73.74l-.26,0" transform="translate(0)"/><path class="cls-2" d="M67.83,73.74,31.34,63.29a2.32,2.32,0,0,0,.37,0l36.5,10.45h-.38" transform="translate(0)"/><path class="cls-8" d="M68.21,73.73,31.71,63.28a3.68,3.68,0,0,0,.68-.13L68.88,73.6a4.9,4.9,0,0,1-.67.13" transform="translate(0)"/><path class="cls-9" d="M68.88,73.6,32.39,63.15h0a7.53,7.53,0,0,0,1.07-.38L70,73.2a6.39,6.39,0,0,1-1.06.39h-.06" transform="translate(0)"/><path class="cls-10" d="M70,73.2,33.51,62.76a11.79,11.79,0,0,0,4.68-4.7L74.68,68.51A11.76,11.76,0,0,1,70,73.2" transform="translate(0)"/><path class="cls-9" d="M74.68,68.51,38.19,58.06q.72-1.14,1.44-2.43L76.12,66.08c-.48.85-1,1.67-1.44,2.43" transform="translate(0)"/></g></g></g><g class="cls-4"><g class="cls-81"><g class="cls-4"><path class="cls-9" d="M66.77,64.66,30.28,54.21l.36-.15L67.13,64.51l-.36.15" transform="translate(0)"/><path class="cls-10" d="M67.13,64.51,30.64,54.06A8.49,8.49,0,0,0,34,50.84L70.47,61.28a8.45,8.45,0,0,1-3.34,3.23" transform="translate(0)"/><path class="cls-9" d="M70.47,61.28,34,50.84c.25-.4.49-.81.71-1.25L71.18,60c-.22.43-.46.85-.71,1.24" transform="translate(0)"/><path class="cls-8" d="M71.18,60,34.69,49.59c.17-.35.34-.71.49-1.08L71.67,59c-.15.38-.31.74-.49,1.09" transform="translate(0)"/><path class="cls-2" d="M71.67,59,35.18,48.51c.14-.34.26-.68.38-1L72.05,57.93c-.11.35-.24.69-.38,1" transform="translate(0)"/><path class="cls-7" d="M72.05,57.93,35.56,47.49c.11-.33.2-.65.29-1L72.34,57c-.09.33-.18.65-.29,1" transform="translate(0)"/><path class="cls-6" d="M72.34,57,35.85,46.51q.12-.48.21-1L72.55,56q-.09.48-.21,1" transform="translate(0)"/><path class="cls-11" d="M72.55,56,36.06,45.55q.09-.48.15-1L72.7,55c0,.33-.09.65-.15,1" transform="translate(0)"/><path class="cls-18" d="M72.7,55,36.21,44.59c0-.34.07-.68.08-1L72.78,54c0,.34,0,.68-.08,1" transform="translate(0)"/><path class="cls-17" d="M72.78,54,36.29,43.57v-.09a6.78,6.78,0,0,0,0-.79l36.5,10.45c0,.23,0,.5,0,.79V54" transform="translate(0)"/><path class="cls-16" d="M72.78,53.14,36.28,42.69c0-.69-.2-1.14-.55-1.24L72.23,51.9c.34.1.5.55.55,1.24" transform="translate(0)"/></g></g></g><g class="cls-4"><g class="cls-82"><g class="cls-4"><path class="cls-16" d="M63.39,79,26.9,68.6c-1.71-.49-2.8-2.19-3-5.41L60.38,73.63c.21,3.23,1.3,4.92,3,5.41" transform="translate(0)"/><path class="cls-17" d="M60.38,73.63,23.89,63.19c0-.59-.05-1.22,0-1.9a1.34,1.34,0,0,1,0-.2L60.36,71.54a1.34,1.34,0,0,0,0,.2q0,1,0,1.89" transform="translate(0)"/><path class="cls-18" d="M60.36,71.54,23.87,61.09c0-.78.09-1.67.21-2.64L60.57,68.9c-.11,1-.18,1.86-.21,2.64" transform="translate(0)"/><path class="cls-11" d="M60.57,68.9,24.08,58.45c.11-.94.26-2,.46-3L61,65.88c-.2,1.06-.36,2.07-.47,3" transform="translate(0)"/><path class="cls-6" d="M61,65.88,24.54,55.43c.18-.94.4-1.9.65-2.88L61.68,63c-.25,1-.47,1.94-.64,2.88" transform="translate(0)"/><path class="cls-7" d="M61.68,63,25.19,52.55c.22-.84.46-1.69.74-2.53L62.42,60.47c-.27.84-.52,1.69-.74,2.53" transform="translate(0)"/><path class="cls-2" d="M62.42,60.47,25.93,50c.25-.75.52-1.49.82-2.22L63.24,58.25c-.3.72-.57,1.47-.82,2.22" transform="translate(0)"/><path class="cls-8" d="M63.24,58.25,26.75,47.8c.28-.69.58-1.36.91-2L64.15,56.24c-.32.65-.63,1.32-.91,2" transform="translate(0)"/><path class="cls-9" d="M64.15,56.24,27.66,45.79a21.94,21.94,0,0,1,1.12-2L65.27,54.27a21.94,21.94,0,0,0-1.12,2" transform="translate(0)"/><path class="cls-10" d="M65.27,54.27,28.78,43.82a12.23,12.23,0,0,1,5-4.74L70.29,49.53a12.29,12.29,0,0,0-5,4.74" transform="translate(0)"/><path class="cls-9" d="M70.29,49.53,33.8,39.08a7.75,7.75,0,0,1,1.35-.49l.06,0L71.71,49l-.07,0a7.75,7.75,0,0,0-1.35.49" transform="translate(0)"/><path class="cls-8" d="M71.71,49,35.21,38.57a5.36,5.36,0,0,1,1-.17L72.67,48.84a6.16,6.16,0,0,0-1,.18" transform="translate(0)"/><path class="cls-2" d="M72.67,48.84,36.18,38.4a4.37,4.37,0,0,1,.62,0L73.29,48.83a4.34,4.34,0,0,0-.62,0" transform="translate(0)"/><path class="cls-7" d="M73.29,48.83,36.8,38.38a2.21,2.21,0,0,1,.46.07l36.5,10.44a3.35,3.35,0,0,0-.47-.06" transform="translate(0)"/><path class="cls-6" d="M73.76,48.89,37.26,38.45l.17,0L73.92,48.94l-.16,0" transform="translate(0)"/></g></g></g><g class="cls-4"><g class="cls-83"><g class="cls-4"><path class="cls-2" d="M55.26,57.69,18.77,47.24H19L55.49,57.7h-.23" transform="translate(0)"/><path class="cls-7" d="M55.49,57.7,19,47.25a4.14,4.14,0,0,1,.64.08L56.12,57.78a4.17,4.17,0,0,0-.63-.08" transform="translate(0)"/><path class="cls-6" d="M56.12,57.78,19.63,47.33l.23.06L56.35,57.84l-.23-.06" transform="translate(0)"/></g></g></g><g class="cls-4"><g class="cls-84"><g class="cls-4"><path class="cls-6" d="M49,78.63,12.46,68.18l.1,0L49.05,78.66l-.1,0" transform="translate(0)"/><path class="cls-7" d="M49.05,78.66,12.56,68.21a1.07,1.07,0,0,0,.25,0L49.3,78.69a1.07,1.07,0,0,1-.25,0" transform="translate(0)"/><path class="cls-2" d="M49.3,78.69,12.81,68.24a1.22,1.22,0,0,0,.27,0L49.57,78.69a1.22,1.22,0,0,1-.27,0" transform="translate(0)"/><path class="cls-8" d="M49.57,78.69,13.08,68.24a1.91,1.91,0,0,0,.33-.06L49.9,78.63a1.91,1.91,0,0,1-.33.06" transform="translate(0)"/><path class="cls-9" d="M49.9,78.63,13.41,68.18h0a1.9,1.9,0,0,0,.4-.14L50.32,78.48a2,2,0,0,1-.39.14h0" transform="translate(0)"/><path class="cls-10" d="M50.32,78.48,13.83,68a4.08,4.08,0,0,0,1.62-1.54L51.94,76.94a4.08,4.08,0,0,1-1.62,1.54" transform="translate(0)"/><path class="cls-9" d="M51.94,76.94,15.45,66.49a6.85,6.85,0,0,0,.39-.71l36.5,10.45c-.13.25-.26.49-.4.71" transform="translate(0)"/><path class="cls-8" d="M52.34,76.23,15.84,65.78c.13-.24.24-.49.35-.75L52.68,75.47c-.11.27-.22.52-.34.76" transform="translate(0)"/><path class="cls-2" d="M52.68,75.47,16.19,65q.18-.44.33-.9L53,74.57c-.1.31-.21.62-.33.9" transform="translate(0)"/><path class="cls-7" d="M53,74.57,16.52,64.13c.12-.37.23-.74.33-1.13L53.34,73.45c-.1.38-.21.76-.33,1.12" transform="translate(0)"/><path class="cls-6" d="M53.34,73.45,16.85,63c.12-.48.23-1,.32-1.46L53.67,72q-.15.75-.33,1.47" transform="translate(0)"/><path class="cls-11" d="M53.67,72,17.17,61.54q.18-1,.3-1.92L54,70.07c-.08.63-.17,1.28-.29,1.91" transform="translate(0)"/><path class="cls-18" d="M54,70.07,17.47,59.62c.09-.8.15-1.58.18-2.32L54.14,67.75c0,.73-.09,1.52-.18,2.32" transform="translate(0)"/><path class="cls-17" d="M54.14,67.75,17.65,57.3v-.21c0-.67,0-1.31,0-1.91L54.12,65.62c0,.6.05,1.25,0,1.92a1.48,1.48,0,0,0,0,.21" transform="translate(0)"/><path class="cls-16" d="M54.12,65.62,17.63,55.18c-.15-2.19-.72-3.82-2-4.19L52.08,61.44c1.32.37,1.9,2,2,4.18" transform="translate(0)"/></g></g></g><g class="cls-4"><g class="cls-85"><g class="cls-4"><path class="cls-16" d="M48.38,83.85,11.89,73.41c-.86-.25-1.54-1-1.65-2.51L46.73,81.35c.11,1.55.79,2.26,1.65,2.5" transform="translate(0)"/><path class="cls-17" d="M46.73,81.35,10.24,70.9c0-.2,0-.42,0-.65v-.06L46.72,80.64v.06c0,.23,0,.45,0,.65" transform="translate(0)"/><path class="cls-18" d="M46.72,80.64,10.23,70.19c0-.23,0-.48.06-.74L46.78,79.9c0,.26-.05.5-.06.74" transform="translate(0)"/><path class="cls-11" d="M46.78,79.9,10.29,69.45c0-.27.08-.56.14-.87L46.92,79c-.06.31-.1.6-.14.87" transform="translate(0)"/><path class="cls-6" d="M46.92,79,10.43,68.58c.06-.36.15-.74.26-1.15L47.18,77.88c-.11.41-.19.79-.26,1.15" transform="translate(0)"/><path class="cls-7" d="M47.18,77.88,10.69,67.43c0-.18.09-.36.15-.55L47.33,77.33l-.15.55" transform="translate(0)"/></g></g></g><polygon class="cls-13" points="49.28 59.18 12.79 48.73 13.03 48.67 49.52 59.11 49.28 59.18"/><g class="cls-4"><g class="cls-86"><g class="cls-4"><path class="cls-9" d="M49.52,59.11,13,48.67a3.89,3.89,0,0,0,.62-.23L50.14,58.89a3.52,3.52,0,0,1-.62.22" transform="translate(0)"/><path class="cls-10" d="M50.14,58.89,13.65,48.44a7.62,7.62,0,0,0,3-2.92L53.13,56a7.62,7.62,0,0,1-3,2.92" transform="translate(0)"/><path class="cls-9" d="M53.13,56,16.64,45.52a12.25,12.25,0,0,0,.7-1.23l36.5,10.45c-.22.43-.46.84-.71,1.23" transform="translate(0)"/><path class="cls-8" d="M53.84,54.74,17.34,44.29c.19-.37.36-.75.52-1.14L54.35,53.6q-.24.59-.51,1.14" transform="translate(0)"/><path class="cls-2" d="M54.35,53.6,17.86,43.15c.15-.35.28-.72.4-1.08L54.75,52.52c-.12.36-.25.72-.4,1.08" transform="translate(0)"/><path class="cls-7" d="M54.75,52.52,18.26,42.07c.11-.34.22-.68.3-1l36.5,10.45c-.09.34-.19.69-.31,1" transform="translate(0)"/><path class="cls-6" d="M55.06,51.49,18.56,41c.09-.33.16-.65.23-1L55.28,50.51c-.06.32-.14.65-.22,1" transform="translate(0)"/><path class="cls-11" d="M55.28,50.51,18.79,40.06c.06-.32.1-.63.14-.94L55.42,49.57c0,.31-.08.62-.14.94" transform="translate(0)"/><path class="cls-18" d="M55.42,49.57,18.93,39.12c0-.32.06-.63.07-.93L55.5,48.64c0,.3,0,.61-.08.93" transform="translate(0)"/><path class="cls-17" d="M55.5,48.64,19,38.19v-.08a8.88,8.88,0,0,0,0-.9L55.48,47.66a8.88,8.88,0,0,1,0,.9v.08" transform="translate(0)"/><path class="cls-16" d="M55.48,47.66,19,37.21c-.12-1.87-.85-3.36-2.41-3.81l36.5,10.45c1.55.44,2.28,1.93,2.4,3.81" transform="translate(0)"/></g></g></g><g class="cls-4"><g class="cls-87"><g class="cls-4"><path class="cls-9" d="M51.32,41.16,14.82,30.72l.12,0L51.43,41.13l-.11,0" transform="translate(0)"/><path class="cls-8" d="M51.43,41.13,14.94,30.69a10.39,10.39,0,0,1,1.68-.31l36.5,10.45a11.39,11.39,0,0,0-1.69.3" transform="translate(0)"/><path class="cls-2" d="M53.12,40.83,16.62,30.38a7.17,7.17,0,0,1,1.22,0L54.33,40.81a7,7,0,0,0-1.21,0" transform="translate(0)"/><path class="cls-7" d="M54.33,40.81,17.84,30.36a5.6,5.6,0,0,1,.94.13l36.5,10.44a7,7,0,0,0-1-.12" transform="translate(0)"/><path class="cls-6" d="M55.28,40.93,18.78,30.49l.35.08L55.62,41l-.34-.09" transform="translate(0)"/></g></g></g><polygon class="cls-30" points="45.62 48.99 9.13 38.55 15.02 35.86 51.52 46.31 45.62 48.99"/><polygon class="cls-14" points="39.18 85.87 2.69 75.42 9.13 38.55 45.62 48.99 39.18 85.87"/><g class="cls-4"><g class="cls-88"><g class="cls-4"><path class="cls-16" d="M38.34,63.88,1.84,53.43c-1-.3-1.7-1.26-1.82-3.09L36.51,60.79c.12,1.83.77,2.79,1.83,3.09" transform="translate(0)"/><path class="cls-17" d="M36.51,60.79,0,50.34a8.23,8.23,0,0,1,0-1v-.1L36.5,59.69v.09c0,.36,0,.7,0,1" transform="translate(0)"/><path class="cls-18" d="M36.5,59.69,0,49.24c0-.36,0-.73.08-1.1l36.5,10.45a10.19,10.19,0,0,0-.09,1.1" transform="translate(0)"/><path class="cls-11" d="M36.59,58.59.09,48.14c.05-.35.1-.7.17-1L36.75,57.54c-.07.35-.12.7-.16,1.05" transform="translate(0)"/><path class="cls-6" d="M36.75,57.54.26,47.09A10.89,10.89,0,0,1,.5,46L37,56.47c-.09.36-.17.72-.24,1.07" transform="translate(0)"/><path class="cls-7" d="M37,56.47.5,46q.15-.57.33-1.14l36.5,10.45c-.13.38-.24.76-.34,1.14" transform="translate(0)"/><path class="cls-2" d="M37.33,55.33.83,44.88c.15-.43.31-.86.48-1.28L37.8,54.05c-.17.42-.33.85-.47,1.28" transform="translate(0)"/><path class="cls-8" d="M37.8,54.05,1.31,43.6c.21-.52.45-1,.71-1.55L38.51,52.5c-.26.51-.5,1-.71,1.55" transform="translate(0)"/><path class="cls-9" d="M38.51,52.5,2,42.05a21.62,21.62,0,0,1,1.16-2L39.67,50.47c-.42.66-.81,1.34-1.16,2" transform="translate(0)"/><path class="cls-10" d="M39.67,50.47,3.18,40a23,23,0,0,1,9.31-8.46L49,42a22.87,22.87,0,0,0-9.32,8.46" transform="translate(0)"/><path class="cls-9" d="M49,42,12.49,31.56a15.16,15.16,0,0,1,2.33-.84l36.5,10.44A14.49,14.49,0,0,0,49,42" transform="translate(0)"/></g></g></g></g><g id="Text"><path class="cls-89" d="M312.94,51.21l5.74-1.54-5.79,33.61c-1.43,8.29-4.88,10.71-7.5,11.41-2.41.64-4.6-1.15-4.5-4.77.16-5.18,3.3-7.62,7.11-10.2l.47-2.55c-1.78,3.18-3.58,4.16-4.93,4.52-2.05.55-3.67-.5-4-3.8-2.18,4.77-4.62,6.11-6.23,6.54-2.22.59-3.59-.81-3.73-4.08-1.3,2.89-3.24,6-6.06,6.7-2.08.56-4-.31-4.74-3.8-2.2,4.81-4.67,6-6.3,6.43-2.14.58-3.52-.71-3.74-3.75-1.26,2.88-3.2,5.94-6,6.69s-5.2-.92-5-7.55c.22-7.52,3.87-20.39,10.76-22.23,2.25-.61,3.17.36,3.12,2v.23l2.33-13.34L279.83,49l-5.45,31.31a12.09,12.09,0,0,0-.21,1.82c0,1.55.45,1.92,1.56,1.62s2.12-1.79,2.8-3.78v-.5c.23-7.52,3.87-20.39,10.76-22.24,2.27-.6,3.18.37,3.13,2v.39l.52-3.07,5.7-1.53-3.41,19.71a12.4,12.4,0,0,0-.22,1.83c0,1.55.45,2.25,1.56,2,1.55-.41,2.69-3.15,3.36-6.09l3.23-18.61,5.71-1.52L305.44,72a8.82,8.82,0,0,0-.16,1.43c0,1.28.21,2.37,1.12,2.12,1.54-.41,2.63-2.8,3.31-5.75ZM268.87,80.76l2.32-13.28c-.06-.65-.38-1.83-1.57-1.51-3.36.9-5.84,11.51-6,16.75-.12,4.29,1.14,4,1.85,3.81,1.11-.3,2.78-2.29,3.39-5.5v-.27m20.83-5.59L292,62.08c0-.67-.29-2-1.56-1.69-3.37.91-5.84,11.52-6,16.76-.13,4.29,1.14,4,1.85,3.81,1.15-.31,2.87-2.43,3.43-5.79M307.1,85l.57-3.42c-2.53,1.84-4.48,4-4.57,7A1.32,1.32,0,0,0,304.63,90c.79-.22,1.85-1.55,2.47-5" transform="translate(0)"/><path class="cls-89" d="M256.61,66.31c1.78-.48,2.66,1.32,2.6,3.44-.06,2-1,4.31-3,4.83-2.22.59-1-3.38-2.19-3.06s-1.93,1.35-3,2.89l-3.8,22L241.6,98l1.11-6.44c-2.26,4.19-5.22,7.87-9.17,8.93-2.88.77-4.95-.2-5.66-3.61-2.31,5-5,6.47-6.66,6.91-2.37.63-4.18-.86-4-5.55,0-.27,0-.55,0-.84a42.72,42.72,0,0,1-4.23,5.28,11,11,0,0,1-6.32,5c-3.43.92-5.12-1.31-5.49-4.08-2.17,3.73-5,6.89-8.57,7.85s-6.1-.9-5.92-7.2,3.17-20.52,11.29-22.7c3.53-.94,4.28,1.4,4.2,4.18-.19,6.41-4.7,12.54-9.46,14.2-.07.79-.13,1.58-.15,2.25-.11,3.79.82,4.42,2.72,3.91,2.52-.67,4.3-2.74,6-5.46a8,8,0,0,1,2.09-4.27,134.7,134.7,0,0,0,5.36-17.8l5.89-2.68c0,14.3.38,16.37.27,20a12.23,12.23,0,0,1-.22,2.15,37.42,37.42,0,0,0,2.94-3.55l2.84-16.29-1.31.35.39-2.31,1.31-.35,1.41-8,5.9-2.69-1.61,9.17,2.37-.63-.38,2.3-2.37.64-3,17.4a12.23,12.23,0,0,0-.21,1.82c0,1.56.45,1.92,1.56,1.63s2.38-1.93,3.15-4a2.26,2.26,0,0,0,0-.26c.2-6.41,3.17-20.52,11.29-22.7,3.53-1,4.28,1.39,4.2,4.17-.19,6.41-4.7,12.54-9.46,14.2-.07.79-.13,1.58-.15,2.26-.11,3.78.82,4.42,2.72,3.91,3.13-.84,5.1-3.79,7.17-7.5L246.62,69l5.71-1.53L251.71,71C253.14,69,254.7,66.82,256.61,66.31Zm-51.06,37.27c1.74-.47,3.48-2.2,3.6-6.1.09-2.9-.22-4.53-.36-13a100.9,100.9,0,0,1-3.53,11.39c.51.19.88.76.86,1.7,0,1.34-.8,2.92-1.82,3.2a.78.78,0,0,1-1.05-.44c-.08,2.62.55,3.72,2.3,3.25m-7.33-19.2c-2,.54-4.14,7-5.1,12.75,3.07-1.09,5.89-6.11,6-10.74.05-1.39-.17-2.21-.92-2m40.92-11c-2,.54-4.14,7-5.1,12.76,3.07-1.1,5.89-6.12,6-10.74,0-1.39-.18-2.22-.93-2" transform="translate(0)"/><path class="cls-89" d="M177.79,73.61a14.28,14.28,0,0,1,1.58-.32l2.85,19L188.68,71l2.61-.7-8.41,26.41-3.12,17.86-6.34,1.7,3.12-17.86-3.17-19.88c-3.75,2.88-6.1,7.82-6.28,14a8.61,8.61,0,0,0,.45,3.64c-2.74.73-4.2-.25-4.08-4.27C163.68,84.41,171.18,75.38,177.79,73.61Z" transform="translate(0)"/><path class="cls-89" d="M211.81,34.58a2.44,2.44,0,0,0,1.31-.68c-.47,4.11-2.42,6.34-4.53,6.91-3,.81-3.9-2.05-3.8-5.23.11-3.78,2.1-11.12,2.2-14.68.06-1.84-.39-2.72-1.34-2.46-1.42.38-2.56,3-3.24,5.95L199.18,43l-5.7,1.53.56-3.23c-1.95,3.41-4,4.48-5.37,4.85-2.22.6-3.59-.8-3.73-4.08-1.3,2.89-3.24,5.95-6.05,6.71-2,.55-4-.28-4.71-3.61-2,4.75-4.17,6-5.75,6.41-3.45.92-4.59-1.87-4.49-5,.11-3.79,2.1-11.12,2.21-14.68,0-1.85-.39-2.72-1.35-2.47-1.38.37-2.48,2.82-3.14,5.6-.83,5-1.8,11.2-3,18.86L153,55.37l6.48-37c-1.62.28-3.38.3-5.19.45l-6.68,38-5.7,1.52,6.77-38.51c-4.45,1.41-8,4.75-8.31,13.5a8.81,8.81,0,0,0,.45,3.64c-2.74.73-4.2-.25-4.08-4.27A19,19,0,0,1,151.1,14.49c1.83-.49,6.61-.34,10.65-1.43a9.59,9.59,0,0,0,4.84-2.61c-1,2.7-1.63,4.46-3.83,17.65,1.79-3.18,3.54-4.14,4.81-4.49,2.54-.67,4.34.66,4.21,5.12s-2.23,11.76-2.33,14.88c0,1.4.33,2.24,1.51,1.92,1.4-.38,2.18-1.88,2.92-4.07.23-7.77,3.87-20.63,10.77-22.48,2.26-.61,3.17.37,3.12,2v.39l.52-3.07L194,16.75l-3.42,19.71a11.24,11.24,0,0,0-.21,1.83c-.05,1.56.44,2.26,1.55,2,1.54-.41,2.68-3.14,3.36-6.07l3.24-18.64,5.7-1.53-.52,3c1.74-3.12,3.5-4,4.72-4.36,2.54-.68,4.35.66,4.21,5.12s-2.23,11.76-2.33,14.88C210.25,34.07,210.62,34.9,211.81,34.58Zm-26.75,2.31,2.27-13.1c0-.67-.29-2-1.56-1.68-3.37.9-5.84,11.51-6,16.74-.13,4.3,1.14,4,1.85,3.82,1.15-.3,2.87-2.42,3.44-5.78" transform="translate(0)"/><path class="cls-89" d="M125.69,35.05c1.79-.48,2.68,1.33,2.61,3.45-.05,2-1,4.31-3,4.83-2.22.6-1-3.38-2.19-3.06s-1.92,1.34-3,2.89l-3.8,22-5.71,1.53,1.12-6.44c-2.25,4.19-5.22,7.87-9.17,8.93-2.88.77-5-.21-5.66-3.6-2.31,5-5,6.46-6.66,6.9-2.07.56-3.7-.52-4-3.89-2.3,4.87-5,6.29-6.58,6.72-2.38.64-4.18-.86-4-5.54,0-.1,0-.21,0-.31-2.29,4.41-5.33,8.36-9.45,9.46-3.72,1-6.1-.9-5.91-7.2S63.52,51.21,71.64,49c3.52-.95,4.27,1.4,4.19,4.18-.19,6.41-4.69,12.54-9.46,14.2-.06.79-.13,1.58-.15,2.25-.11,3.79.82,4.43,2.72,3.92,3.13-.84,5.1-3.81,7.18-7.51L79,49.78l-1.31.36L78,47.82l1.3-.35,1.43-8,5.89-2.68-1.61,9.16,2.38-.64L87,47.62l-2.37.64-3,17.39a11.24,11.24,0,0,0-.21,1.83c0,1.56.45,1.92,1.57,1.62,1.54-.41,3-2.91,3.71-5.85L89.54,47l-1.31.35L88.61,45l1.31-.35,1.42-8,5.9-2.69-1.61,9.17L98,42.47l-.38,2.32-2.38.63-3,17.39A11.35,11.35,0,0,0,92,64.65c0,1.55.45,1.92,1.56,1.62s2.37-1.92,3.16-4a1.13,1.13,0,0,1,0-.26c.19-6.4,3.16-20.52,11.28-22.7,3.53-.94,4.28,1.4,4.2,4.19-.19,6.41-4.7,12.54-9.46,14.2-.06.79-.13,1.58-.15,2.24-.11,3.8.81,4.43,2.71,3.92,3.13-.83,5.1-3.79,7.18-7.5l3.23-18.61,5.7-1.53-.62,3.59C122.23,37.75,123.79,35.56,125.69,35.05Zm-17.46,7.12c-2,.54-4.14,7-5.09,12.74,3-1.09,5.87-6.1,6-10.73,0-1.39-.16-2.22-.92-2M71.86,51.91c-2,.54-4.13,7-5.09,12.75,3.06-1.1,5.88-6.11,6-10.73,0-1.39-.16-2.22-.92-2" transform="translate(0)"/><path class="cls-89" d="M51.32,41.16c5.82-1.56,8.31,2,8.17,6.6a15.72,15.72,0,0,1-4.23,9.93c3.34,0,4.54,3.53,4.41,7.71-.16,5.35-2.53,16.6-9.15,18.37-1.71.46-3.9.33-3.8-3.07a14,14,0,0,1,.61-3.37c1,1.18,1.69,1.54,2.6,1.29,2.89-.77,4.09-6.84,4.22-11.08.11-3.9-.67-6.84-3.56-6.06a17.39,17.39,0,0,0-1.83.65L44.88,84.34l-5.7,1.53L45.62,49l5.9-2.68L49.29,59.18l.23-.07c3.18-.85,5.85-6.37,6-10.55.09-3.18-1.29-5.63-5-4.62-4.64,1.25-10,7-10.31,16.2a9.19,9.19,0,0,0,.44,3.63c-2.61.7-4.19-.25-4.08-4C36.73,52.1,43.83,43.17,51.32,41.16Z" transform="translate(0)"/></g></g></g></svg>