<svg width="250" height="250" viewBox="0 0 250 250" fill="none" xmlns="http://www.w3.org/2000/svg">
<g filter="url(#filter0_ii_181_454)">
<rect width="250" height="250" rx="30" fill="#020715"/>
</g>
<rect x="1.5" y="1.5" width="247" height="247" rx="28.5" stroke="#00BFFF" stroke-width="3"/>
<path d="M74 135.883C74 137.969 73.6016 139.926 72.8047 141.754C72.0078 143.582 70.918 145.188 69.5352 146.57C68.1758 147.93 66.582 149.008 64.7539 149.805C62.9258 150.602 60.9688 151 58.8828 151H33.6758V100.586H58.8828C60.9688 100.586 62.9258 100.984 64.7539 101.781C66.582 102.578 68.1758 103.668 69.5352 105.051C70.918 106.41 72.0078 108.004 72.8047 109.832C73.6016 111.66 74 113.617 74 115.703C74 116.641 73.8711 117.602 73.6133 118.586C73.3555 119.57 72.9922 120.52 72.5234 121.434C72.0547 122.348 71.4922 123.18 70.8359 123.93C70.1797 124.68 69.4531 125.301 68.6562 125.793C69.4766 126.238 70.2148 126.848 70.8711 127.621C71.5273 128.371 72.0898 129.203 72.5586 130.117C73.0273 131.031 73.3789 131.992 73.6133 133C73.8711 133.984 74 134.945 74 135.883ZM43.7656 140.91H58.8828C59.5859 140.91 60.2422 140.781 60.8516 140.523C61.4609 140.266 61.9883 139.914 62.4336 139.469C62.9023 139 63.2656 138.461 63.5234 137.852C63.7812 137.242 63.9102 136.586 63.9102 135.883C63.9102 135.18 63.7812 134.523 63.5234 133.914C63.2656 133.305 62.9023 132.777 62.4336 132.332C61.9883 131.863 61.4609 131.5 60.8516 131.242C60.2422 130.984 59.5859 130.855 58.8828 130.855H43.7656V140.91ZM43.7656 120.766H58.8828C59.5859 120.766 60.2422 120.637 60.8516 120.379C61.4609 120.121 61.9883 119.77 62.4336 119.324C62.9023 118.855 63.2656 118.316 63.5234 117.707C63.7812 117.074 63.9102 116.406 63.9102 115.703C63.9102 115 63.7812 114.344 63.5234 113.734C63.2656 113.125 62.9023 112.598 62.4336 112.152C61.9883 111.684 61.4609 111.32 60.8516 111.062C60.2422 110.805 59.5859 110.676 58.8828 110.676H43.7656V120.766ZM116.926 151H81.6289V100.586H91.7188V140.91H116.926V151ZM169.836 126.004C169.836 128.395 169.52 130.703 168.887 132.93C168.277 135.133 167.41 137.207 166.285 139.152C165.16 141.074 163.801 142.832 162.207 144.426C160.613 146.02 158.855 147.391 156.934 148.539C155.012 149.664 152.938 150.531 150.711 151.141C148.484 151.773 146.176 152.09 143.785 152.09C141.395 152.09 139.086 151.773 136.859 151.141C134.656 150.531 132.582 149.664 130.637 148.539C128.715 147.391 126.957 146.02 125.363 144.426C123.77 142.832 122.398 141.074 121.25 139.152C120.125 137.207 119.246 135.133 118.613 132.93C118.004 130.703 117.699 128.395 117.699 126.004C117.699 123.613 118.004 121.305 118.613 119.078C119.246 116.852 120.125 114.777 121.25 112.855C122.398 110.934 123.77 109.176 125.363 107.582C126.957 105.988 128.715 104.629 130.637 103.504C132.582 102.379 134.656 101.512 136.859 100.902C139.086 100.27 141.395 99.9531 143.785 99.9531C146.176 99.9531 148.484 100.27 150.711 100.902C152.938 101.512 155.012 102.379 156.934 103.504C158.855 104.629 160.613 105.988 162.207 107.582C163.801 109.176 165.16 110.934 166.285 112.855C167.41 114.777 168.277 116.852 168.887 119.078C169.52 121.305 169.836 123.613 169.836 126.004ZM159.816 126.004C159.816 123.801 159.395 121.727 158.551 119.781C157.707 117.812 156.559 116.113 155.105 114.684C153.676 113.23 151.977 112.082 150.008 111.238C148.062 110.395 145.988 109.973 143.785 109.973C141.559 109.973 139.473 110.395 137.527 111.238C135.582 112.082 133.883 113.23 132.43 114.684C130.977 116.113 129.828 117.812 128.984 119.781C128.141 121.727 127.719 123.801 127.719 126.004C127.719 128.207 128.141 130.281 128.984 132.227C129.828 134.148 130.977 135.836 132.43 137.289C133.883 138.742 135.582 139.891 137.527 140.734C139.473 141.578 141.559 142 143.785 142C145.988 142 148.062 141.578 150.008 140.734C151.977 139.891 153.676 138.742 155.105 137.289C156.559 135.836 157.707 134.148 158.551 132.227C159.395 130.281 159.816 128.207 159.816 126.004ZM216.594 145.902C214.25 147.895 211.637 149.43 208.754 150.508C205.871 151.562 202.871 152.09 199.754 152.09C197.363 152.09 195.055 151.773 192.828 151.141C190.625 150.531 188.562 149.664 186.641 148.539C184.719 147.391 182.961 146.031 181.367 144.461C179.773 142.867 178.414 141.109 177.289 139.188C176.164 137.242 175.285 135.156 174.652 132.93C174.043 130.703 173.738 128.395 173.738 126.004C173.738 123.613 174.043 121.316 174.652 119.113C175.285 116.91 176.164 114.848 177.289 112.926C178.414 110.98 179.773 109.223 181.367 107.652C182.961 106.059 184.719 104.699 186.641 103.574C188.562 102.449 190.625 101.582 192.828 100.973C195.055 100.34 197.363 100.023 199.754 100.023C202.871 100.023 205.871 100.562 208.754 101.641C211.637 102.695 214.25 104.219 216.594 106.211L211.32 115C209.797 113.453 208.039 112.246 206.047 111.379C204.055 110.488 201.957 110.043 199.754 110.043C197.551 110.043 195.477 110.465 193.531 111.309C191.609 112.152 189.922 113.301 188.469 114.754C187.016 116.184 185.867 117.871 185.023 119.816C184.18 121.738 183.758 123.801 183.758 126.004C183.758 128.23 184.18 130.316 185.023 132.262C185.867 134.207 187.016 135.906 188.469 137.359C189.922 138.812 191.609 139.961 193.531 140.805C195.477 141.648 197.551 142.07 199.754 142.07C201.02 142.07 202.25 141.918 203.445 141.613C204.641 141.309 205.777 140.887 206.855 140.348V126.004H216.594V145.902Z" fill="white"/>
<defs>
<filter id="filter0_ii_181_454" x="-5" y="-5" width="260" height="260" filterUnits="userSpaceOnUse" color-interpolation-filters="sRGB">
<feFlood flood-opacity="0" result="BackgroundImageFix"/>
<feBlend mode="normal" in="SourceGraphic" in2="BackgroundImageFix" result="shape"/>
<feColorMatrix in="SourceAlpha" type="matrix" values="0 0 0 0 0 0 0 0 0 0 0 0 0 0 0 0 0 0 127 0" result="hardAlpha"/>
<feMorphology radius="5" operator="erode" in="SourceAlpha" result="effect1_innerShadow_181_454"/>
<feOffset dx="-5" dy="-5"/>
<feGaussianBlur stdDeviation="10"/>
<feComposite in2="hardAlpha" operator="arithmetic" k2="-1" k3="1"/>
<feColorMatrix type="matrix" values="0 0 0 0 0.439216 0 0 0 0 0.862745 0 0 0 0 1 0 0 0 0.25 0"/>
<feBlend mode="normal" in2="shape" result="effect1_innerShadow_181_454"/>
<feColorMatrix in="SourceAlpha" type="matrix" values="0 0 0 0 0 0 0 0 0 0 0 0 0 0 0 0 0 0 127 0" result="hardAlpha"/>
<feMorphology radius="5" operator="erode" in="SourceAlpha" result="effect2_innerShadow_181_454"/>
<feOffset dx="5" dy="5"/>
<feGaussianBlur stdDeviation="10"/>
<feComposite in2="hardAlpha" operator="arithmetic" k2="-1" k3="1"/>
<feColorMatrix type="matrix" values="0 0 0 0 0.439216 0 0 0 0 0.862745 0 0 0 0 1 0 0 0 0.25 0"/>
<feBlend mode="normal" in2="effect1_innerShadow_181_454" result="effect2_innerShadow_181_454"/>
</filter>
</defs>
</svg>
