<svg xmlns="http://www.w3.org/2000/svg" viewBox="0 0 96.65 138.84"><defs><style>.cls-1{isolation:isolate;}.cls-2{fill:#030403;}.cls-3{fill:#878787;}.cls-4{fill:#4a4a49;}.cls-5{fill:#1d1d1b;}.cls-27,.cls-6{fill:#3f76ab;}.cls-7,.cls-8{fill:#3c3c3b;}.cls-27,.cls-28,.cls-8{mix-blend-mode:multiply;}.cls-24,.cls-25,.cls-27,.cls-8{opacity:0.5;}.cls-9{fill:#575756;}.cls-10{fill:#b2b2b2;}.cls-11{fill:#e83345;}.cls-12{fill:#824639;}.cls-13,.cls-25{fill:#fff;}.cls-14{fill:#eb9481;}.cls-15{fill:#98584a;}.cls-16{fill:#375d68;}.cls-17{fill:#284952;}.cls-18{fill:#dadada;}.cls-19{fill:#c6c6c6;}.cls-20{fill:#333332;}.cls-21{fill:#ff4756;}.cls-22{fill:#c22b3a;}.cls-23{fill:#273340;}.cls-26,.cls-28{fill:#fcaf75;}.cls-28{opacity:0.3;}.cls-29{fill:#acabb9;}.cls-30{fill:#ea4a49;}.cls-31{fill:#e8c17d;}.cls-32{fill:#c21e1d;}.cls-33{fill:#5589b9;}.cls-34{fill:#456f96;}.cls-35{fill:#cea55f;}</style></defs><g class="cls-1"><g id="Layer_2" data-name="Layer 2"><g id="Layer_1-2" data-name="Layer 1"><path class="cls-2" d="M33.7,95.58a1.15,1.15,0,1,0,1.14-1.15A1.14,1.14,0,0,0,33.7,95.58Z"/><path class="cls-2" d="M36.4,107.19A1.15,1.15,0,1,0,37.55,106,1.14,1.14,0,0,0,36.4,107.19Z"/><path class="cls-2" d="M17.91,112.53a1.15,1.15,0,0,0,2.3,0,1.15,1.15,0,0,0-2.3,0Z"/><path class="cls-2" d="M4.05,104.29a1.15,1.15,0,1,0,1.15-1.15A1.15,1.15,0,0,0,4.05,104.29Z"/><path class="cls-2" d="M12.56,93.12A1.15,1.15,0,1,0,13.7,92,1.15,1.15,0,0,0,12.56,93.12Z"/><polygon class="cls-2" points="12.48 92.22 12.48 90.64 14.61 91.6 22.6 99.05 34.2 93.39 35.88 92.78 35.88 94.36 26.09 101.06 38.99 104.09 38.99 105.67 37.9 106.9 23.85 103.59 20.23 112.1 17.87 111.89 17.87 110.31 18.98 103.15 3.85 103.79 3.47 102.43 3.47 100.85 18.21 100.34 12.48 92.22"/><polygon class="cls-3" points="12.48 90.64 14.61 90.02 22.6 97.47 34.2 91.81 35.88 92.78 26.09 99.48 38.99 104.09 37.9 105.32 23.85 102.01 20.23 110.52 17.87 110.31 18.98 101.57 3.85 102.21 3.47 100.85 18.21 98.76 12.48 90.64"/><path class="cls-2" d="M20.4,98.93a1,1,0,0,0,0,1.81,3.47,3.47,0,0,0,3.14,0,1,1,0,0,0,0-1.81A3.47,3.47,0,0,0,20.4,98.93Z"/><rect class="cls-2" x="19.75" y="85.56" width="4.43" height="14.27"/><path class="cls-4" d="M22.13,72.15,39.67,82.27c.81.47,1.46.09,1.46-.85a7.48,7.48,0,0,0-3.38-5.91l-15.62-9c-.8-.46-1.46-.08-1.46.85v2.27A3.27,3.27,0,0,0,22.13,72.15Z"/><path class="cls-4" d="M16,34.71l.9,6,3.57,23.73a3.15,3.15,0,0,0,.22.7,2.59,2.59,0,0,0,1,1.11l2.43,1.41a.85.85,0,0,0,.81.1,1,1,0,0,0,.37-1.08L24.87,64,20.93,38.44l-.3-2a2.61,2.61,0,0,0-1.37-1.9L17,33.65a.74.74,0,0,0-.7,0A1,1,0,0,0,16,34.71Z"/><polygon class="cls-4" points="24.77 91.58 40.84 82.27 21.16 66.36 5.03 75.69 24.77 91.58"/><polygon class="cls-4" points="0.48 42.85 16.31 33.68 24.96 67.71 9.04 76.9 0.48 42.85"/><path class="cls-5" d="M6.15,81.39,23.68,91.51c.81.47,1.46.09,1.46-.84a7.49,7.49,0,0,0-3.38-5.92l-15.61-9c-.81-.47-1.47-.09-1.47.84v2.27A3.24,3.24,0,0,0,6.15,81.39Z"/><path class="cls-5" d="M9.29,75.89,4.64,45.69a2.61,2.61,0,0,0-1.37-1.9L1,42.89c-.67-.27-1.13.22-1,1.06l4.47,29.7a2.73,2.73,0,0,0,1.19,1.82l2.43,1.4C8.87,77.31,9.44,76.84,9.29,75.89Z"/><path class="cls-6" d="M42.89,104.36c-1,1-1.1,2.83-.78,4.67A3.68,3.68,0,0,0,44.44,111a18.74,18.74,0,0,1,2.9,1.34c2.79,2.9,5.37,3.25,6.33,2.9,3.21-1.19-.24-3.95-1.17-4.63-.27-.2-3.85-3.6-3.85-3.6l-.85-1.35.1-2.93-4.66-1.38Z"/><path class="cls-7" d="M52.5,83.07c-.62,7.29-2.9,12.77-4.7,22.56a4.71,4.71,0,0,1-3.92.86,2.29,2.29,0,0,1-1.53-1.76c-.28-8.34-.21-14.8,2.1-20.2-7-3.08-16.28-4.06-22-8.84C20.23,73.77,18.55,72,18,70.26a3.53,3.53,0,0,1,.14-2.59,5.07,5.07,0,0,1,.89-1.37L20.88,65l7.87-1.12c1,.53,2.11,1.14,3.29,1.82C40.54,70.53,52.54,78.57,52.5,83.07Z"/><path class="cls-8" d="M44.44,106.3l-.56.19a2.29,2.29,0,0,1-1.53-1.76c-.28-8.34-.21-14.8,2.1-20.2-7-3.08-16.28-4.06-22-8.84C20.23,73.77,18.55,72,18,70.26l.14-2.59a5.07,5.07,0,0,1,.89-1.37L20.88,65l7.87-1.12c1,.53,2.11,1.14,3.29,1.82.6,7.4,7.81,12.62,15.79,17.57C44.83,90.17,44,98,44.44,106.3Z"/><path class="cls-6" d="M30.17,111.53c-1,1-1,2.72-.79,4.67a5.16,5.16,0,0,0,3,2s4.46,4.24,8.7,3.61,0-3.68,0-3.68l-4.89-4.24-.94-1.31,0-2.76-4.66-1.37Z"/><path class="cls-7" d="M41.79,88.46c-.61,7.28-4.77,14.38-6.57,24.17-1.65,1.25-3.09,1.47-4.25.15a5.79,5.79,0,0,1-.89-1.42c-.28-8.34.29-15.71,2.59-21.1A71.53,71.53,0,0,1,14.41,79.34a8.88,8.88,0,0,1-.93-12.27l.78-.12.15,0L27.27,69.6,29.39,72c1,1.07,1.92,2.15,2.85,3.21C37,80.56,41.17,85.61,41.79,88.46Z"/><path class="cls-8" d="M31.79,113.09l-.82-.31a5.79,5.79,0,0,1-.89-1.42c-.28-8.34.29-15.71,2.59-21.1A71.53,71.53,0,0,1,14.41,79.34a8.88,8.88,0,0,1-.93-12.27l.78-.12L29.39,72c1,1.07,1.92,2.15,2.85,3.21-1.64.26-5.26.34-12.78.25,2.68,5.66,9,10.47,16.65,13.79C32.57,95.31,31.69,103.76,31.79,113.09Z"/><path class="cls-7" d="M33.27,138.35,11.65,125.87a7.08,7.08,0,0,1-3.25-5.63V91.46c0-1.64.92-2.75,2.29-2.75a3.32,3.32,0,0,1,1.63.49l21.62,12.48a7.11,7.11,0,0,1,3.25,5.63v28.78c0,1.65-.92,2.75-2.28,2.75A3.22,3.22,0,0,1,33.27,138.35ZM9.74,91.46v28.78a5.78,5.78,0,0,0,2.58,4.47l21.62,12.48a2,2,0,0,0,1,.31c.85,0,.94-1,.94-1.41V107.31a5.81,5.81,0,0,0-2.58-4.47L11.65,90.36a2,2,0,0,0-1-.31C9.83,90.05,9.74,91,9.74,91.46Z"/><path class="cls-7" d="M82.81,109.69,61.19,97.21a7.09,7.09,0,0,1-3.25-5.63V62.8c0-1.65.92-2.75,2.28-2.75a3.22,3.22,0,0,1,1.64.49L83.48,73a7.08,7.08,0,0,1,3.25,5.63v28.78c0,1.64-.92,2.75-2.29,2.75A3.32,3.32,0,0,1,82.81,109.69ZM59.28,62.8V91.58a5.81,5.81,0,0,0,2.58,4.47l21.62,12.48a2,2,0,0,0,1,.31c.86,0,1-1,1-1.41V78.65a5.78,5.78,0,0,0-2.58-4.47L61.19,61.69a2,2,0,0,0-1-.3C59.37,61.39,59.28,62.37,59.28,62.8Z"/><polygon class="cls-9" points="6.56 90.04 35.46 106.72 87.39 76.71 87.39 75.23 58.49 60.02 6.56 88.57 6.56 90.04"/><polygon class="cls-10" points="6.56 88.57 35.46 105.25 87.39 75.23 58.49 58.54 6.56 88.57"/><polygon class="cls-11" points="30.1 81.19 27.78 82.56 27.66 82.63 27.39 82.79 26.96 82.03 27.24 81.87 27.36 81.81 29.7 80.5 30.1 81.19"/><path class="cls-12" d="M30.34,80.79c0,.11-.39.35-.49.29a.39.39,0,0,1-.18-.3c0-.12.4-.35.5-.29A.39.39,0,0,1,30.34,80.79Z"/><path class="cls-12" d="M27.48,82.59c0,.19-.13.27-.3.18a.67.67,0,0,1-.31-.54c0-.19.13-.27.31-.18A.68.68,0,0,1,27.48,82.59Z"/><path class="cls-13" d="M27.79,82.46a.31.31,0,0,1,0,.1l-.12.07a.25.25,0,0,0,.05-.17.71.71,0,0,0-.31-.55l-.13,0s.09-.06.09-.06l.08,0A.82.82,0,0,1,27.79,82.46Z"/><path class="cls-11" d="M30.19,81c0,.18-.13.25-.28.16a.61.61,0,0,1-.28-.49c0-.18.12-.25.28-.16A.64.64,0,0,1,30.19,81Z"/><path class="cls-14" d="M24.14,84.35c0,.1-.07.15-.16.09a.34.34,0,0,1-.17-.29c0-.1.07-.15.17-.09A.36.36,0,0,1,24.14,84.35Z"/><path class="cls-11" d="M27.42,82.55a.56.56,0,0,0-.24-.42.17.17,0,0,0-.18,0,21.67,21.67,0,0,0-3.14,1.93l.24.4a22.68,22.68,0,0,0,3.24-1.74A.19.19,0,0,0,27.42,82.55Z"/><path class="cls-12" d="M29.71,80.66l-1.81,1a.19.19,0,0,1-.18,0l-.06,0s0,0,0-.11,1.85-1,1.85-1a.19.19,0,0,1,.18,0l.05,0s0,0,0,0A.07.07,0,0,1,29.71,80.66Z"/><path class="cls-15" d="M29.71,80.61l-1.81,1a.19.19,0,0,1-.18,0l-.06,0a.06.06,0,0,1,0-.1l1.82-1a.19.19,0,0,1,.18,0l.05,0A.06.06,0,0,1,29.71,80.61Z"/><path class="cls-7" d="M24,84.33c0-.06,0-.1,0-.11a1.59,1.59,0,0,0-.32.16.11.11,0,0,0,0,.11,2.38,2.38,0,0,0,.32-.16Z"/><polygon class="cls-10" points="25.61 84.65 25.46 84.27 25.61 84.05 25.91 84.22 26.06 84.61 25.91 84.82 25.61 84.65"/><polygon class="cls-10" points="30.46 81.85 30.31 81.47 30.46 81.26 30.76 81.43 30.91 81.81 30.76 82.03 30.46 81.85"/><polygon class="cls-16" points="30.76 81.43 25.91 84.22 25.61 84.05 30.46 81.26 30.76 81.43"/><polygon class="cls-17" points="30.91 81.81 26.06 84.61 25.91 84.22 30.76 81.43 30.91 81.81"/><polygon class="cls-17" points="30.76 82.03 25.91 84.82 26.06 84.61 30.91 81.81 30.76 82.03"/><polygon class="cls-13" points="25.91 84.22 24.83 84.97 25.61 84.05 25.91 84.22"/><polygon class="cls-18" points="26.06 84.61 24.83 84.97 25.91 84.22 26.06 84.61"/><polygon class="cls-10" points="25.91 84.82 24.83 84.97 26.06 84.61 25.91 84.82"/><path class="cls-7" d="M24.61,85.19a.07.07,0,0,1-.07,0,.08.08,0,0,1,0-.11l.44-.25s.06,0,.09,0a.08.08,0,0,1,0,.1l-.44.25Z"/><path class="cls-13" d="M25.61,84.05l.3.17C26.09,84.09,26,83.84,25.61,84.05Z"/><path class="cls-18" d="M25.91,84.22l.15.39C26.39,84.41,26.2,84.05,25.91,84.22Z"/><path class="cls-10" d="M26.06,84.61l-.15.21C26.22,84.64,26.28,84.5,26.06,84.61Z"/><path class="cls-19" d="M29.4,83.77s-.11,0-.11,0a.4.4,0,0,0-.34,0l-.21.12-.46.27h-.56v.38a.1.1,0,0,0,.07.1l.51.3a.4.4,0,0,0,.34,0l.63-.36.53-.31c.05,0,.08-.07.07-.11v-.37Z"/><path class="cls-13" d="M29.8,83.87l-.54.31-.62.36a.4.4,0,0,1-.34,0l-.51-.3c-.1,0-.1-.14,0-.2l.63-.36.53-.31a.4.4,0,0,1,.34,0l.51.3C29.9,83.72,29.9,83.81,29.8,83.87Z"/><path class="cls-12" d="M29.87,83.77v.37s0,.08-.07.11l-.53.31v-.38l.45-.41.09-.09A.1.1,0,0,1,29.87,83.77Z"/><path class="cls-11" d="M29.87,83.77a.13.13,0,0,1-.07.1l-.53.31-.53-.31-.32-.19.53-.31a.4.4,0,0,1,.34,0l.51.3C29.85,83.7,29.87,83.73,29.87,83.77Z"/><rect class="cls-20" x="45.95" y="83.23" width="3.91" height="1.27" transform="translate(-35.51 35.18) rotate(-30)"/><path class="cls-20" d="M33.71,77.28,46.79,84.8c0,.59-.4.83-.91.54L34.62,78.87a2,2,0,0,1-.91-1.58Z"/><polygon class="cls-9" points="63.51 75.07 50.46 67.61 33.71 77.28 46.79 84.8 63.51 75.07"/><polygon class="cls-18" points="45.14 81.74 45.89 82.17 44.97 82.7 44.22 82.27 45.14 81.74"/><polygon class="cls-18" points="48.09 80.9 47.17 81.43 46.43 81 47.35 80.47 48.09 80.9"/><polygon class="cls-18" points="48.45 79.83 49.19 80.26 48.27 80.79 47.53 80.36 48.45 79.83"/><polygon class="cls-18" points="49.55 79.19 50.3 79.62 49.38 80.16 48.63 79.72 49.55 79.19"/><polygon class="cls-18" points="50.65 78.56 51.4 78.99 50.48 79.52 49.73 79.09 50.65 78.56"/><polygon class="cls-18" points="53.6 77.72 52.68 78.25 51.94 77.82 52.86 77.28 53.6 77.72"/><polygon class="cls-18" points="53.96 76.65 54.7 77.08 53.78 77.61 53.04 77.18 53.96 76.65"/><polygon class="cls-18" points="55.06 76.01 55.8 76.44 54.88 76.97 54.14 76.54 55.06 76.01"/><polygon class="cls-18" points="52.04 72.78 51.29 72.36 52.21 71.82 52.96 72.25 52.04 72.78"/><polygon class="cls-18" points="53.14 72.15 52.39 71.72 53.31 71.19 54.06 71.62 53.14 72.15"/><polygon class="cls-18" points="53.5 71.08 54.42 70.55 55.16 70.98 54.24 71.51 53.5 71.08"/><polygon class="cls-18" points="40.31 79.83 39.56 79.4 40.48 78.87 41.23 79.3 40.31 79.83"/><polygon class="cls-18" points="41.41 79.2 40.66 78.77 41.59 78.24 42.33 78.67 41.41 79.2"/><polygon class="cls-18" points="47.84 75.48 46.17 76.45 45.82 76.65 45.63 76.76 45.17 77.02 44.53 77.39 43.61 77.92 42.51 78.56 41.77 78.13 44.78 76.39 44.89 76.33 47.09 75.06 47.84 75.48"/><polygon class="cls-18" points="48.02 75.38 47.28 74.95 48.2 74.42 48.94 74.85 48.02 75.38"/><polygon class="cls-18" points="49.12 74.74 48.38 74.31 49.3 73.78 50.04 74.21 49.12 74.74"/><polygon class="cls-18" points="49.48 73.68 50.4 73.15 51.15 73.58 50.22 74.11 49.48 73.68"/><polygon class="cls-18" points="52.22 72.89 53.14 72.36 53.88 72.79 52.96 73.32 52.22 72.89"/><polygon class="cls-18" points="53.32 72.25 54.24 71.72 54.98 72.15 54.06 72.68 53.32 72.25"/><polygon class="cls-18" points="54.42 71.62 55.34 71.08 56.09 71.52 55.17 72.05 54.42 71.62"/><polygon class="cls-18" points="40.49 79.94 41.41 79.41 42.15 79.84 41.23 80.37 40.49 79.94"/><polygon class="cls-18" points="43.26 79.2 42.34 79.73 41.59 79.3 42.51 78.77 43.26 79.2"/><polygon class="cls-18" points="44.36 78.56 43.44 79.1 42.69 78.67 43.61 78.14 44.36 78.56"/><polygon class="cls-18" points="45.46 77.93 44.54 78.46 43.79 78.03 44.72 77.5 45.46 77.93"/><polygon class="cls-18" points="46.56 77.29 45.64 77.82 44.9 77.39 45.82 76.86 46.56 77.29"/><polygon class="cls-18" points="47.66 76.66 46.74 77.19 46 76.76 46.92 76.23 47.66 76.66"/><polygon class="cls-18" points="48.77 76.02 47.84 76.55 47.1 76.12 48.02 75.59 48.77 76.02"/><polygon class="cls-18" points="49.87 75.38 48.95 75.92 48.2 75.48 49.12 74.95 49.87 75.38"/><polygon class="cls-18" points="50.97 74.75 50.05 75.28 49.3 74.85 50.22 74.32 50.97 74.75"/><polygon class="cls-18" points="53.14 73.42 54.06 72.89 54.81 73.32 53.89 73.85 53.14 73.42"/><polygon class="cls-18" points="55.91 72.69 54.99 73.22 54.24 72.79 55.17 72.26 55.91 72.69"/><polygon class="cls-18" points="55.35 72.15 56.27 71.62 57.01 72.05 56.09 72.58 55.35 72.15"/><polygon class="cls-18" points="41.41 80.47 42.34 79.94 43.08 80.37 42.16 80.9 41.41 80.47"/><polygon class="cls-18" points="44.18 79.73 43.26 80.27 42.52 79.84 43.44 79.31 44.18 79.73"/><polygon class="cls-18" points="43.62 79.2 44.54 78.67 45.28 79.1 44.36 79.63 43.62 79.2"/><polygon class="cls-18" points="44.72 78.56 45.64 78.03 46.38 78.46 45.46 78.99 44.72 78.56"/><polygon class="cls-18" points="45.82 77.93 46.74 77.4 47.49 77.83 46.57 78.36 45.82 77.93"/><polygon class="cls-18" points="46.92 77.29 47.84 76.76 48.59 77.19 47.67 77.72 46.92 77.29"/><polygon class="cls-18" points="49.69 76.55 48.77 77.08 48.03 76.66 48.95 76.12 49.69 76.55"/><polygon class="cls-18" points="49.13 76.02 50.05 75.49 50.79 75.92 49.87 76.45 49.13 76.02"/><polygon class="cls-18" points="52.08 75.18 50.97 75.81 50.23 75.38 51.33 74.75 50.41 74.21 51.33 73.68 52.25 74.22 52.55 74.39 53 74.64 52.38 75 52.08 75.18"/><polygon class="cls-18" points="54.81 74.39 54.07 73.96 54.99 73.43 55.73 73.86 54.81 74.39"/><polygon class="cls-18" points="56.09 72.79 56.84 73.22 55.91 73.75 55.17 73.32 56.09 72.79"/><polygon class="cls-18" points="56.27 72.69 57.19 72.15 57.94 72.58 57.02 73.11 56.27 72.69"/><polygon class="cls-18" points="42.34 81.01 43.26 80.48 44.01 80.91 43.08 81.44 42.34 81.01"/><polygon class="cls-18" points="44.19 80.8 43.44 80.37 44.36 79.84 45.11 80.27 44.19 80.8"/><polygon class="cls-18" points="44.54 79.73 45.46 79.2 46.21 79.63 45.29 80.17 44.54 79.73"/><polygon class="cls-18" points="46.57 78.57 47.31 79 46.39 79.53 45.65 79.1 46.57 78.57"/><polygon class="cls-18" points="46.75 78.46 47.67 77.93 48.41 78.36 47.49 78.89 46.75 78.46"/><polygon class="cls-18" points="47.85 77.83 48.77 77.3 49.51 77.72 48.59 78.26 47.85 77.83"/><polygon class="cls-18" points="49.7 77.62 48.95 77.19 49.87 76.66 50.62 77.09 49.7 77.62"/><polygon class="cls-18" points="50.05 76.55 50.97 76.02 51.72 76.45 50.8 76.98 50.05 76.55"/><polygon class="cls-18" points="52.26 75.28 52.59 75.09 53.18 74.75 53.92 75.18 53.34 75.52 53 75.71 51.9 76.35 51.16 75.92 52.26 75.28"/><polygon class="cls-18" points="57.59 74.92 56.66 75.46 55.92 75.03 56.84 74.5 57.59 74.92"/><polygon class="cls-18" points="57.94 73.86 58.69 74.29 57.77 74.82 57.02 74.39 57.94 73.86"/><polygon class="cls-18" points="59.05 73.22 59.79 73.65 58.87 74.18 58.12 73.75 59.05 73.22"/><path class="cls-3" d="M41.68,73.82l2.2,1.27a.4.4,0,0,0,.37,0l3.33-1.92c.1-.06.1-.15,0-.21l-2.21-1.27a.38.38,0,0,0-.36,0l-3.33,1.92C41.58,73.67,41.58,73.76,41.68,73.82Z"/><path class="cls-21" d="M54.72,64.17a1.12,1.12,0,0,1,0,2.12,4.09,4.09,0,0,1-3.67,0,1.12,1.12,0,0,1,0-2.12A4.09,4.09,0,0,1,54.72,64.17Z"/><rect class="cls-21" x="50.29" y="60.93" width="5.18" height="4.3"/><path class="cls-22" d="M54.62,59.93c1,.59,1.11,1.48.1,2.06a4,4,0,0,1-3.67,0c-1-.58-.95-1.45.06-2A3.73,3.73,0,0,1,54.62,59.93Z"/><path class="cls-21" d="M55.55,65.33a1.39,1.39,0,0,1-.44-.07.29.29,0,1,1,.18-.56.73.73,0,0,0,.68-.09,2.1,2.1,0,0,0,.44-1.72c0-.55-.36-.58-.45-.58a.39.39,0,0,0-.29.2,3.81,3.81,0,0,0-.26.65.28.28,0,0,1-.36.2.29.29,0,0,1-.2-.36,3.86,3.86,0,0,1,.33-.82,1,1,0,0,1,.76-.46A1.08,1.08,0,0,1,57,62.86a2.5,2.5,0,0,1-.66,2.21A1.26,1.26,0,0,1,55.55,65.33Z"/><path class="cls-22" d="M54.71,59.87a4.11,4.11,0,0,0-3.66,0,1.12,1.12,0,0,0,0,2.12,4,4,0,0,0,3.66,0A1.12,1.12,0,0,0,54.71,59.87Zm-.12,1.91-.11,0a3.83,3.83,0,0,1-3.2,0l-.11,0a1,1,0,0,1-.63-.84,1.06,1.06,0,0,1,.63-.85,3.54,3.54,0,0,1,1.71-.4,3.49,3.49,0,0,1,1.71.4,1.07,1.07,0,0,1,.64.85A1.06,1.06,0,0,1,54.59,61.78Z"/><path class="cls-7" d="M54.48,61.83a3.83,3.83,0,0,1-3.2,0A3.6,3.6,0,0,1,54.48,61.83Z"/><polygon class="cls-19" points="32.02 89.42 32.63 89.77 39.96 94.01 45.3 90.92 37.36 86.34 32.88 88.93 32.68 89.04 32.09 89.38 32.02 89.42"/><polygon class="cls-13" points="32.02 89.32 39.96 93.9 45.3 90.82 37.36 86.23 32.02 89.32"/><polygon class="cls-19" points="32.02 89.22 39.96 93.8 45.3 90.72 37.36 86.14 32.02 89.22"/><polygon class="cls-13" points="32.02 89.11 39.96 93.69 45.3 90.61 37.36 86.03 32.02 89.11"/><polygon class="cls-19" points="32.02 89.01 39.96 93.59 45.3 90.51 37.36 85.93 32.02 89.01"/><polygon class="cls-13" points="32.02 88.9 39.96 93.48 45.3 90.4 37.36 85.82 32.02 88.9"/><polygon class="cls-19" points="32.02 88.8 39.96 93.39 45.3 90.3 37.36 85.72 32.02 88.8"/><polygon class="cls-13" points="32.02 88.69 39.96 93.28 45.3 90.19 37.36 85.61 32.02 88.69"/><polygon class="cls-19" points="32.02 88.59 39.96 93.18 45.3 90.1 37.36 85.51 32.02 88.59"/><path class="cls-13" d="M32,88.49l6.46,3.73a7,7,0,0,0,1.4.6l.08,0,5.34-3.08a6.91,6.91,0,0,1-1.48-.62l-6.46-3.73Z"/><path class="cls-7" d="M31.49,88.55a1.46,1.46,0,0,0,.66,1.15.65.65,0,0,0,.33.1.4.4,0,0,0,.15,0L32,89.42l.07,0a1.26,1.26,0,0,1-.38-.79l-.22-.07Z"/><path class="cls-7" d="M32.15,88.29a.45.45,0,0,0-.21-.06c-.15,0-.23.12-.23.32,0,0-.22,0-.22,0,0-.31.19-.51.45-.51a.6.6,0,0,1,.32.1,1.1,1.1,0,0,1,.36.32l-.23.07A.79.79,0,0,0,32.15,88.29Z"/><path class="cls-7" d="M32.41,88.41s0,.07,0,.1a.19.19,0,0,0,.18,0s0-.08,0-.1A.19.19,0,0,0,32.41,88.41Z"/><path class="cls-7" d="M31.49,88.52c0-.31.19-.51.45-.51a.6.6,0,0,1,.32.1,1.21,1.21,0,0,1,.36.32.06.06,0,0,1,0,.08.19.19,0,0,1-.18,0,.85.85,0,0,0-.26-.22.45.45,0,0,0-.21-.06c-.15,0-.23.12-.23.32C31.71,88.59,31.49,88.52,31.49,88.52Z"/><path class="cls-7" d="M32.1,88.17a.47.47,0,0,1,.44-.51.7.7,0,0,1,.33.1,1.53,1.53,0,0,1,.36.32.07.07,0,0,1,0,.08.19.19,0,0,1-.18,0,.92.92,0,0,0-.26-.21.4.4,0,0,0-.22-.07c-.14,0-.22.12-.22.33C32.32,88.24,32.1,88.17,32.1,88.17Z"/><path class="cls-7" d="M32.71,87.82c0-.3.18-.51.44-.51a.7.7,0,0,1,.32.1,1,1,0,0,1,.36.32s0,.06,0,.08a.17.17,0,0,1-.18,0,3.1,3.1,0,0,0-.25-.21.43.43,0,0,0-.22-.07c-.15,0-.24.12-.23.33C32.92,87.9,32.71,87.82,32.71,87.82Z"/><path class="cls-7" d="M33.31,87.47c0-.3.18-.5.44-.5a.71.71,0,0,1,.33.09,1.19,1.19,0,0,1,.35.32s0,.06,0,.09a.23.23,0,0,1-.18,0,2.06,2.06,0,0,0-.25-.22.51.51,0,0,0-.22-.07c-.14,0-.23.12-.23.33C33.52,87.55,33.31,87.47,33.31,87.47Z"/><path class="cls-7" d="M33.91,87.13c0-.31.19-.51.44-.51a.68.68,0,0,1,.33.09A1.1,1.1,0,0,1,35,87a.05.05,0,0,1,0,.08.19.19,0,0,1-.18,0,2.18,2.18,0,0,0-.26-.22.51.51,0,0,0-.22-.07c-.14,0-.23.13-.22.33C34.13,87.2,33.91,87.13,33.91,87.13Z"/><path class="cls-7" d="M34.51,86.78c0-.31.19-.51.45-.51a.6.6,0,0,1,.32.1,1.08,1.08,0,0,1,.36.32s0,.06,0,.08a.19.19,0,0,1-.18,0,2.18,2.18,0,0,0-.26-.22.47.47,0,0,0-.21-.07c-.15,0-.24.13-.23.33C34.73,86.85,34.51,86.78,34.51,86.78Z"/><path class="cls-7" d="M35.12,86.43c0-.31.18-.51.44-.51a.65.65,0,0,1,.33.1,1,1,0,0,1,.35.32s0,.06,0,.08a.17.17,0,0,1-.18,0c-.12-.1-.16-.16-.25-.22a.52.52,0,0,0-.22-.06c-.14,0-.23.12-.23.32C35.33,86.5,35.12,86.43,35.12,86.43Z"/><path class="cls-7" d="M35.72,86.08a.47.47,0,0,1,.44-.51.6.6,0,0,1,.33.1,1.06,1.06,0,0,1,.35.32.05.05,0,0,1,0,.08.17.17,0,0,1-.18,0,2.65,2.65,0,0,0-.26-.21.4.4,0,0,0-.22-.07c-.14,0-.23.12-.23.32C35.94,86.15,35.72,86.08,35.72,86.08Z"/><path class="cls-7" d="M36.32,85.73c0-.3.19-.51.45-.51a.7.7,0,0,1,.32.1,1.53,1.53,0,0,1,.36.32.06.06,0,0,1,0,.08.19.19,0,0,1-.18,0,.8.8,0,0,0-.26-.21.37.37,0,0,0-.21-.07c-.15,0-.23.12-.23.33C36.54,85.8,36.32,85.73,36.32,85.73Z"/><path class="cls-4" d="M79,74l-3.66,2.11a.36.36,0,0,1-.32,0l-7-4a.1.1,0,0,1,0-.18l3.66-2.12a.38.38,0,0,1,.33,0l7,4C79.12,73.89,79.12,74,79,74Z"/><polygon class="cls-4" points="67.98 71.64 67.98 72 79.1 73.94 79.1 73.58 67.98 71.64 67.98 71.64"/><path class="cls-3" d="M79,73.66l-3.66,2.11a.31.31,0,0,1-.32,0l-7-4a.11.11,0,0,1,0-.19l3.66-2.11a.38.38,0,0,1,.33,0l7,4C79.12,73.53,79.12,73.61,79,73.66Z"/><path class="cls-13" d="M75,75.5l-6.3-3.64,1.62-.93.54-.32.83-.47L72,70l.29-.16,6.3,3.64Z"/><path class="cls-13" d="M70.81,70.5,69.9,71a.15.15,0,0,1-.13,0l-.23-.14s0,0,0-.08l.9-.52a.15.15,0,0,1,.13,0l.24.14A0,0,0,0,1,70.81,70.5Z"/><path class="cls-4" d="M69.87,71H69.8l-.23-.14s.9-.56.9-.56a.09.09,0,0,1,.07,0l.23.14S69.87,71,69.87,71Z"/><path class="cls-23" d="M76.86,74.76s0,0,0,0l-.22-.12a0,0,0,0,1,.06,0Z"/><path class="cls-23" d="M77,74.69s0,0-.06,0l-.21-.13s0,0,.05,0Z"/><path class="cls-23" d="M77.1,74.63s0,0-.06,0l-.22-.13s0,0,.06,0Z"/><path class="cls-23" d="M77.21,74.56s0,0,0,0l-.22-.13s0,0,.06,0Z"/><path class="cls-23" d="M77.33,74.49s0,0,0,0l-.22-.12a0,0,0,0,1,0,0Z"/><path class="cls-24" d="M76.86,74.76s0,0,0,0l-.22-.12a0,0,0,0,1,.06,0Z"/><path class="cls-24" d="M77,74.69s0,0-.06,0l-.21-.13s0,0,.05,0Z"/><path class="cls-24" d="M77.1,74.63s0,0-.06,0l-.22-.13s0,0,.06,0Z"/><path class="cls-24" d="M77.21,74.56s0,0,0,0l-.22-.13s0,0,.06,0Z"/><path class="cls-24" d="M77.33,74.49s0,0,0,0l-.22-.12a0,0,0,0,1,0,0Z"/><path class="cls-25" d="M75.71,75.3s0,.06,0,.09a.19.19,0,0,1-.15,0s0-.06,0-.09a.2.2,0,0,1,.15,0Z"/><path class="cls-24" d="M76.24,75a0,0,0,0,1,0,.08.2.2,0,0,1-.15,0,0,0,0,0,1,0-.08.14.14,0,0,1,.15,0Z"/><path class="cls-26" d="M47.87,67.24a8.6,8.6,0,0,0-.41,2.46L47.82,71l.76,1.33c.41.7,1,.33.66-.41l-.54-1.16v-1l1.71,1.84,1.44,2.27c.49.5.67.28.71-.22l.5.62c.42.53.95,0,.76-.39L54,74c.4.51,1,.08.65-.53L54.42,73c.5.34.48-.22,0-.93L53.1,69.58a10.92,10.92,0,0,0-3.21-3L49,65.83l-1.72.73Z"/><path class="cls-6" d="M50,66.67c-1-.49-1.75-.06-2.22,1.13l-.44-.25A59.88,59.88,0,0,1,36.1,59l-2-6.88L31.65,43.5l-1.41-2.61L32.71,39c3.66-.55,4.86,1.16,5.68,5.15l3.37,12A41.32,41.32,0,0,1,50,66.67Z"/><path class="cls-27" d="M47.29,67.55A59.88,59.88,0,0,1,36.1,59l-2-6.88,3-5.78c.72,4.81,2.72,8.19,2.91,12.51Z"/><path class="cls-5" d="M24.47,33.7c-7.3,2.37-5.74,9.25-3.77,14.65l5.15-4.84Z"/><path class="cls-6" d="M38.39,56.63a.66.66,0,0,1,0,.14c-.17,4.19-5.89,3.8-5.89,3.8l-2.31,5c-.58,7.28-13.17,9.12-16.7,1.48C16,63.47,16,63.47,16.24,61c-.2-.66-.38-1.3-.52-1.92a17.33,17.33,0,0,1,1.5-12.78c2.07-2.68,6.71-5.36,9.63-6.44l8.54-.2,1.71,6.2C36.64,53.63,38.44,53.36,38.39,56.63Z"/><path class="cls-26" d="M25.43,38.4C25,40,23.72,42.46,23.42,44c-.35,1.88,3.11,4.79,5.42,4.62,1.64-.32,2.05-2.42,2.3-4.36Z"/><path class="cls-28" d="M26.62,39.61s-1.36,11.21,4,10.29c3.52-.61,2.78-6.4,2.78-6.4Z"/><path class="cls-26" d="M30,29.35c5.39.75,7.06,3.92,6.52,8.21-.06,3.6-3.06,8.37-5.15,8.28-3,.17-4.45-3.32-7-7C22.42,32.67,25,28.66,30,29.35Z"/><path class="cls-5" d="M36.47,37.68c-1.13,1.2-2.92,1.88-5.16,2.4-1.9.78-3.73.7-4.46,1.76l-2.19-.91c-2.2-2.53-2.42-9.78,1.35-11.31C32.08,27.16,39.28,33.25,36.47,37.68Z"/><path class="cls-26" d="M26.77,40.73c-.33-1.32-1.25-2.19-2-1.43-.36.36-.34,1,0,1.83a1.51,1.51,0,0,0,1.18,1C26.65,42.27,27,41.75,26.77,40.73Z"/><path class="cls-26" d="M36.38,75.69c.45,1.42,1.28,2.1,2.76,3.17l2.76,1.8c.82.25.88-.1.63-.69l1.14.79c.77.47,1.39-.05,1-.63l.74.32c.71.19,1-.22.32-1L45.32,79c.64.31,1.3,0,.46-.85A31,31,0,0,0,41.37,74a9.55,9.55,0,0,0-3.57-1l-2.42-.79-1.22,2.22Z"/><path class="cls-27" d="M38.38,56.77c-.17,4.19-5.89,3.8-5.89,3.8l-2.31,5c-.58,7.28-13.17,9.12-16.7,1.48C16,63.47,16,63.47,16.24,61c-.2-.66-.38-1.3-.52-1.92l5.08-5.44,2.93,6.59c2.37,5.12,8,2.93,8.41-1.2C33,60.33,37.21,60,38.38,56.77Z"/><path class="cls-6" d="M17.23,46.29c-2.48,2.06-3.14,4.12-2.69,8.48A41.06,41.06,0,0,0,19.67,71.2C24,73.54,30,74.75,36.38,75.69c-.08-1.27.28-2.22,1.42-2.61C32,70.33,25.74,66.47,23.4,66.65A61,61,0,0,0,21.33,53C20.5,49.8,19.29,47.3,17.23,46.29Z"/><path class="cls-4" d="M63.56,75.29l3.6-13.17a1.86,1.86,0,0,1,.64,1.66L64.68,75.21c-.13.48-.63.52-1.12.09Z"/><polygon class="cls-4" points="50.42 71.78 47.69 85.22 64.42 75.55 67.16 62.12 50.42 71.78"/><path class="cls-20" d="M46.81,85l3.6-13.17a1.86,1.86,0,0,1,.64,1.66L47.93,84.88c-.13.48-.63.52-1.12.09Z"/><path class="cls-18" d="M57.48,74.22c-.1.57.25.8.78.51a2.41,2.41,0,0,0,1.13-1.54c.1-.57-.26-.8-.79-.52A2.44,2.44,0,0,0,57.48,74.22Z"/><path class="cls-29" d="M96.65,61.86,45,32.06V0L96.65,29.8ZM46.09,31.44,95.58,60V30.42L46.09,1.85Z"/><polygon class="cls-30" points="63.93 19.13 51.09 11.72 51.09 9.74 63.93 17.15 63.93 19.13"/><polygon class="cls-31" points="76.77 29.51 57.51 18.39 57.51 16.41 76.77 27.53 76.77 29.51"/><polygon class="cls-32" points="70.33 28.76 57.51 21.36 57.51 19.38 70.33 26.78 70.33 28.76"/><polygon class="cls-33" points="76.77 35.44 51.09 20.62 51.09 18.64 76.77 33.46 76.77 35.44"/><polygon class="cls-10" points="89.61 45.82 70.35 34.7 70.35 32.72 89.61 43.84 89.61 45.82"/><polygon class="cls-34" points="76.77 41.37 70.33 37.66 70.33 35.68 76.77 39.39 76.77 41.37"/><polygon class="cls-35" points="89.61 51.75 76.77 44.34 76.77 42.36 89.61 49.77 89.61 51.75"/><polygon class="cls-9" points="51.17 31.3 51.01 31.21 51.01 7.95 51.17 8.04 51.17 31.3"/><polygon class="cls-9" points="57.59 35.01 57.43 34.92 57.43 11.66 57.59 11.75 57.59 35.01"/><polygon class="cls-9" points="64.01 38.72 63.85 38.62 63.85 15.36 64.01 15.46 64.01 38.72"/><polygon class="cls-9" points="70.43 42.42 70.27 42.33 70.27 19.07 70.43 19.16 70.43 42.42"/><polygon class="cls-9" points="76.85 46.13 76.69 46.03 76.69 22.78 76.85 22.87 76.85 46.13"/><polygon class="cls-9" points="83.27 49.83 83.11 49.74 83.11 26.48 83.27 26.57 83.27 49.83"/><polygon class="cls-9" points="89.69 53.54 89.53 53.45 89.53 30.19 89.69 30.28 89.69 53.54"/><polygon class="cls-9" points="90.46 31.82 50.18 8.57 50.18 8.38 90.46 31.64 90.46 31.82"/><polygon class="cls-9" points="90.46 52.95 50.17 29.69 50.17 29.5 90.46 52.76 90.46 52.95"/></g></g></g></svg>