<svg width="64" height="64" viewBox="0 0 64 64" fill="none" xmlns="http://www.w3.org/2000/svg">
<rect x="1.5" y="1.5" width="61" height="61" rx="13.5" fill="#020715" stroke="url(#paint0_angular_168_457)" stroke-width="3"/>
<path d="M19.3864 43.3182C17.7803 43.3182 16.3485 43.0227 15.0909 42.4318C13.8409 41.8409 12.8485 41.0265 12.1136 39.9886C11.3788 38.9508 10.9962 37.7614 10.9659 36.4205H15.7386C15.7917 37.322 16.1705 38.053 16.875 38.6136C17.5795 39.1742 18.4167 39.4545 19.3864 39.4545C20.1591 39.4545 20.8409 39.2841 21.4318 38.9432C22.0303 38.5947 22.4962 38.1136 22.8295 37.5C23.1705 36.8788 23.3409 36.1667 23.3409 35.3636C23.3409 34.5455 23.1667 33.8258 22.8182 33.2045C22.4773 32.5833 22.0038 32.0985 21.3977 31.75C20.7917 31.4015 20.0985 31.2235 19.3182 31.2159C18.6364 31.2159 17.9735 31.3561 17.3295 31.6364C16.6932 31.9167 16.197 32.2992 15.8409 32.7841L11.4659 32L12.5682 19.7273H26.7955V23.75H16.625L16.0227 29.5795H16.1591C16.5682 29.0038 17.1856 28.5265 18.0114 28.1477C18.8371 27.7689 19.7614 27.5795 20.7841 27.5795C22.1856 27.5795 23.4356 27.9091 24.5341 28.5682C25.6326 29.2273 26.5 30.1326 27.1364 31.2841C27.7727 32.428 28.0871 33.7462 28.0795 35.2386C28.0871 36.8068 27.7235 38.2008 26.9886 39.4205C26.2614 40.6326 25.2424 41.5871 23.9318 42.2841C22.6288 42.9735 21.1136 43.3182 19.3864 43.3182ZM31.6477 43V19.7273H36.5682V29.3295H46.5568V19.7273H51.4659V43H46.5568V33.3864H36.5682V43H31.6477Z" fill="#70DCFF"/>
<defs>
<radialGradient id="paint0_angular_168_457" cx="0" cy="0" r="1" gradientUnits="userSpaceOnUse" gradientTransform="translate(32 32) rotate(49.9392) scale(28.7446)">
<stop offset="0.480986" stop-color="#70DCFF"/>
<stop offset="1" stop-color="#3A8299"/>
</radialGradient>
</defs>
</svg>
